<?xml version="1.0" encoding="iso-8859-1"?>
<!-- Generator: Adobe Illustrator 19.0.0, SVG Export Plug-In . SVG Version: 6.00 Build 0)  -->
<svg version="1.1" id="Layer_1" xmlns="http://www.w3.org/2000/svg" xmlns:xlink="http://www.w3.org/1999/xlink" x="0px" y="0px"
	 viewBox="0 0 512 512" style="enable-background:new 0 0 512 512;" xml:space="preserve">
<path style="fill:#825732;" d="M512,101.621v5.501c0,9.036-7.401,16.638-17.22,17.688l-29.59,5.448l-4.46-2.822
	c0-7.384-10.29-13.378-18.373-13.378h-13.364c-16.358,0-30.584-10.229-34.417-24.756l-2.682-10.194
	c-1.353-5.164,13.835-39.194,13.835-39.194l39.518,6.925c8.622,1.51,15.939,6.661,19.746,13.88c1.616,3.074,3.868,5.776,6.599,7.997
	c2.719,2.219,27.295,16.081,27.295,16.081C506.731,87.268,512,94.029,512,101.621z"/>
<g>
	<circle style="fill:#F2E5CB;" cx="453.925" cy="80.897" r="8.084"/>
	<path style="fill:#F2E5CB;" d="M163.358,497.232v10.589h-39.295v-71.65h24.699v45.441
		C156.919,482.147,163.358,488.941,163.358,497.232z"/>
	<path style="fill:#F2E5CB;" d="M312.361,497.232v10.589h-39.295v-11.628c0-0.296,0.01-0.59,0.032-0.886c0,0-0.01,0,0-0.01
		c-0.328-2.188-0.054-4.496,0.897-6.684l23.955-55.023l22.643,9.867l-17.231,39.599
		C308.676,485.549,312.361,490.964,312.361,497.232z"/>
	<path style="fill:#F2E5CB;" d="M102.775,497.232v10.589H63.481v-71.65h24.698v45.441
		C96.335,482.147,102.775,488.941,102.775,497.232z"/>
	<path style="fill:#F2E5CB;" d="M410.653,497.232v10.589h-39.295v-71.65h24.699v45.441
		C404.214,482.147,410.653,488.941,410.653,497.232z"/>
</g>
<g>
	<path style="fill:#825732;" d="M112.417,453.643h24.151c19.345,0,35.028-15.69,35.028-35.045v-33.83h-70.372v57.677
		C101.224,448.63,106.236,453.643,112.417,453.643z"/>
	<path style="fill:#825732;" d="M293.226,453.463l6.985,3.044c19.255,8.389,41.667-0.373,50.134-19.602l26.237-59.587
		l-64.518-28.112l-31.563,71.681C274.992,433.398,280.697,448.005,293.226,453.463z"/>
	<path style="fill:#825732;" d="M49.084,281.769c0.006-4.673-3.777-8.465-8.448-8.465H31.13l0,0C13.938,273.304,0,287.248,0,304.449
		v47.383c0,16.148,13.083,29.237,29.223,29.237h11.282c4.661,0,8.441-3.776,8.448-8.44L49.084,281.769z"/>
</g>
<path style="fill:#FBB071;" d="M408.194,89.303c3.498,14.527,16.487,24.756,31.423,24.756h12.201
	c7.385,0,13.372,5.989,13.372,13.379v194.837c0,31.767-19.013,59.104-46.292,71.212v25.116c0,19.35-15.679,35.038-35.02,35.038
	h-8.454c-14.859,0-26.906-12.053-26.906-26.92v-22.246c0-2.382-1.93-4.313-4.311-4.313H116.993c-2.381,0-4.311,1.931-4.311,4.313
	v14.128c0,19.35-15.679,35.038-35.02,35.038H53.486c-6.176,0-11.185-5.01-11.185-11.19V311.134
	c0-43.767,35.468-79.251,79.236-79.251h192.715c19.626,0,41.799-101.645,51.781-137.974c0,0-14.772-19.077,5.325-62.1
	c18.904-40.474,104.252-30.629,103.158-7.657c-1.093,22.972-23.463,22.688-23.463,22.688S419.848,71.188,408.194,89.303z"/>
<g>
	<path style="fill:#CC894F;" d="M387.591,93.909c0,0-14.771-19.078,5.325-62.1c7.865-16.841,27.233-24.964,47.091-27.061
		c-25.618-2.704-57.892,4.026-68.65,27.061c-20.095,43.023-5.325,62.1-5.325,62.1c-9.982,36.329-32.156,137.974-51.781,137.974
		h21.558C355.436,231.881,377.609,130.237,387.591,93.909z"/>
	<path style="fill:#CC894F;" d="M63.86,442.45V311.134c0-43.767,35.469-79.252,79.236-79.252h-21.558
		c-43.767,0-79.236,35.486-79.236,79.252V442.45c0,6.181,5.019,11.19,11.196,11.19h21.558C68.879,453.64,63.86,448.63,63.86,442.45z
		"/>
	<path style="fill:#CC894F;" d="M370.076,426.719v-5.962c0-8.993-7.287-16.284-16.275-16.284h-5.282v22.246
		c0,14.868,12.047,26.921,26.906,26.921h8.442c2.402,0,4.748-0.243,7.014-0.703C378.963,450.169,370.076,439.485,370.076,426.719z"
		/>
</g>
<g>
	<path style="fill:#FBB071;" d="M392.955,49.077l-7.111-39.448c-0.423-2.345,1.135-4.588,3.477-5.011l0.689-0.124
		c10.648-1.922,20.835,5.157,22.755,15.809l4.07,22.575c0.394,2.184-0.909,4.318-3.032,4.963l-15.272,4.645
		C396.027,53.249,393.42,51.654,392.955,49.077z"/>
</g>
<path style="fill:#825732;" d="M395.824,41.741l-5.235-29.04l3.278-0.591c7.076-1.277,13.848,3.427,15.124,10.507l2.705,15.005
	c0.261,1.451-0.604,2.869-2.016,3.299l-10.15,3.088C397.866,44.513,396.132,43.454,395.824,41.741z"/>
<g>
</g>
<g>
</g>
<g>
</g>
<g>
</g>
<g>
</g>
<g>
</g>
<g>
</g>
<g>
</g>
<g>
</g>
<g>
</g>
<g>
</g>
<g>
</g>
<g>
</g>
<g>
</g>
<g>
</g>
</svg>
