<svg id="Capa_1" enable-background="new 0 0 512 512" height="512" viewBox="0 0 512 512" width="512" xmlns="http://www.w3.org/2000/svg"><path d="m278.758 200.252c-1.363 0-2.743-.36-3.994-1.116-18.041-10.899-33.238-3.151-33.876-2.815-3.747 2.053-8.421.662-10.472-3.085-2.053-3.747-.65-8.464 3.097-10.516.943-.515 23.376-12.461 49.252 3.175 3.656 2.209 4.83 6.964 2.62 10.622-1.453 2.405-4.008 3.735-6.627 3.735z" fill="#c79a57"/><path d="m282.438 512h-217.104c-2.631 0-4.765-2.133-4.765-4.765v-311.092c0-2.631 2.133-4.765 4.765-4.765h217.104c2.631 0 4.765 2.133 4.765 4.765v311.092c0 2.632-2.134 4.765-4.765 4.765z" fill="#eedfda"/><path d="m282.116 191.378h-41.042v271.542c0 2.809-2.277 5.087-5.087 5.087h-175.418v38.907c0 2.809 2.277 5.087 5.087 5.087h216.46c2.809 0 5.087-2.277 5.087-5.087v-310.449c0-2.809-2.278-5.087-5.087-5.087z" fill="#ded0cb"/><g fill="#c8c1c9"><path d="m200.693 261.977h-55.426c-4.273 0-7.736-3.463-7.736-7.736s3.463-7.736 7.736-7.736h55.426c4.273 0 7.736 3.463 7.736 7.736s-3.463 7.736-7.736 7.736z"/><path d="m225.935 312.06h-105.911c-4.273 0-7.736-3.463-7.736-7.736s3.463-7.736 7.736-7.736h105.911c4.273 0 7.736 3.463 7.736 7.736s-3.463 7.736-7.736 7.736z"/><path d="m225.935 343.437h-105.911c-4.273 0-7.736-3.463-7.736-7.736s3.463-7.736 7.736-7.736h105.911c4.273 0 7.736 3.463 7.736 7.736s-3.463 7.736-7.736 7.736z"/><path d="m225.935 374.813h-105.911c-4.273 0-7.736-3.463-7.736-7.736s3.463-7.736 7.736-7.736h105.911c4.273 0 7.736 3.463 7.736 7.736s-3.463 7.736-7.736 7.736z"/><path d="m225.935 406.834h-105.911c-4.273 0-7.736-3.463-7.736-7.736s3.463-7.736 7.736-7.736h105.911c4.273 0 7.736 3.463 7.736 7.736s-3.463 7.736-7.736 7.736z"/><path d="m225.935 438.211h-105.911c-4.273 0-7.736-3.463-7.736-7.736s3.463-7.736 7.736-7.736h105.911c4.273 0 7.736 3.463 7.736 7.736s-3.463 7.736-7.736 7.736z"/></g><path d="m257.929 221.335c-1.521 0-3.058-.448-4.407-1.38-3.516-2.428-4.38-7.273-1.952-10.788.611-.883 15.314-21.619 45.437-19.269 4.259.333 7.442 4.056 7.109 8.316-.332 4.259-4.042 7.445-8.316 7.109-21.011-1.634-31.116 12.103-31.536 12.689-1.496 2.165-3.894 3.323-6.335 3.323z" fill="#c79a57"/><path d="m332.159 130.994 114.373 81.698c8.003 5.716 5.797 18.158-3.683 20.775-2.813.777-5.814.473-8.415-.852l-133.558-68.032z" fill="#fce25c"/><path d="m446.532 212.691-4.236-3.026c-2.65.595-5.431.261-7.862-.977l-118.444-60.333-15.114 16.228 133.558 68.032c2.6 1.325 5.602 1.628 8.415.852 9.48-2.617 11.685-15.059 3.683-20.776z" fill="#fcdd2e"/><path d="m302.441 73.403c-12.979-7.396-25.446-13.883-37.074-18.185-.411-26.531-22.032-47.914-48.66-47.914-26.885 0-48.68 21.795-48.68 48.68 0 19.643 11.641 36.557 28.395 44.25-1.682 29.492 15.508 60.614 46.219 78.113 41.167 23.458 91.019 13.554 111.348-22.121 20.328-35.675-10.381-59.364-51.548-82.823z" fill="#fce25c"/><path d="m340.688 99.155c1.494 8.435-.172 17.561-5.919 27.646-20.329 35.675-70.181 45.579-111.348 22.121-8.22-4.684-15.453-10.356-21.635-16.699 7.206 18.275 21.278 34.969 40.854 46.124 41.167 23.458 91.019 13.554 111.348-22.121 13.071-22.937 5.041-40.919-13.3-57.071z" fill="#fcdd2e"/><path d="m285.214 84.345c-15.048 9.896-13.475 32.536 2.867 40.109 11.169 5.176 26.564 9.125 47.54 9.125 39.498 0 81.695-16.618 106.447-28.282 6.403-3.017 4.669-12.563-2.386-13.144l-139.919-11.52c-5.128-.422-10.25.885-14.549 3.712z" fill="#fce25c"/><path d="m439.681 92.152-39.354-3.24c-25.222 11.087-62.331 24.134-97.33 24.134-10.354 0-19.342-.965-27.139-2.562 1.79 5.838 5.894 11.035 12.223 13.968 11.169 5.176 26.564 9.125 47.54 9.125 39.498 0 81.695-16.618 106.447-28.282 6.402-3.016 4.668-12.562-2.387-13.143z" fill="#fcdd2e"/><path d="m161.785 36.941-19.556-31.238c-2.159-3.448 2.011-7.352 5.31-4.972l34.313 24.761c5.936 4.284 10.67 10.024 13.744 16.668 1.581 3.416.415 7.475-2.739 9.531l-6.071 3.957c-5.924 3.861-12.715 6.189-19.762 6.773l-33.257 2.756c-3.899.323-5.573-4.831-2.229-6.861l29.413-17.858c1.21-.734 1.585-2.317.834-3.517z" fill="#e7b467"/><path d="m195.596 42.16c-2.657-5.741-6.557-10.802-11.397-14.837 1.421 2.039 2.681 4.195 3.733 6.468 1.581 3.417.415 7.476-2.739 9.531l-6.071 3.957c-5.924 3.861-12.715 6.189-19.762 6.773l-24.086 1.996-3.736 2.268c-3.344 2.03-1.669 7.184 2.229 6.861l33.257-2.756c7.047-.584 13.839-2.912 19.762-6.773l6.071-3.957c3.154-2.056 4.321-6.115 2.739-9.531z" fill="#d7a85f"/><circle cx="222.534" cy="50.816" fill="#8f818f" r="9.208"/></svg>