<svg height="512" viewBox="0 0 60 59" width="512" xmlns="http://www.w3.org/2000/svg"><g id="032---Bee" fill="none" fill-rule="evenodd" transform="translate(0 -1)"><g fill-rule="nonzero"><path id="Shape" d="m37 60c-.4062651.0023626-.77358-.2413038-.929371-.6165185-.1557909-.3752147-.0690889-.807391.219371-1.0934815 2-1.95 2-4.82 1.61-6.89-.0883656-.5522847.2877153-1.0716344.84-1.16s1.0716344.2877153 1.16.84c.6 3.62-.15 6.61-2.17 8.63-.1935931.1921891-.4572975.2969484-.73.29z" fill="#35495e"/><path id="Shape" d="m46 57.86c-.354903-.000611-.6828935-.1892836-.861847-.4957672-.1789535-.3064835-.1820562-.6848557-.008153-.9942328 1.42-2.53.52-5.45-.49-7.45-.1932607-.3211808-.1906728-.7234705.0067041-1.0421383.1973768-.3186678.5563928-.5001928.9300368-.4702434s.6991617.2663431.8432591.6123817c1.23 2.44 2.31 6 .45 9.33-.1767741.3144869-.5092359.5093783-.87.51z" fill="#35495e"/><path id="Shape" d="m11.6 55.34c-.0772331-.5467395.3032837-1.0526029.85-1.13 3.12-.44 5-3.31 5.95-5.64.1298693-.342728.4368224-.586951.7999685-.6364837.363146-.0495327.7242929.1035621.9412058.3989895.216913.2954273.2548331.6858464.0988257 1.0174942-1.2 2.8-3.47 6.27-7.51 6.84-.5467395.0772331-1.0526029-.3032837-1.13-.85z" fill="#35495e"/><path id="Shape" d="m21.07 59.89c-.467844-.0067289-.8684782-.3369618-.9643855-.7949193-.0959073-.4579574.1385551-.9211949.5643855-1.1150807 2.8-1.24 3.81-4.33 4.16-6.71.0828427-.5522847.5977153-.9328427 1.15-.85.5522847.0828428.9328427.5977153.85 1.15-.6 4.06-2.5 7-5.34 8.24-.1334202.0538797-.2761152.0810597-.42.08z" fill="#35495e"/><path id="Shape" d="m9 34c-3.43674321-.1048156-6.65410161-1.7134948-8.8-4.4-.21435936-.2858125-.25995644-.6642734-.11961525-.9928203.14034118-.3285469.44529946-.5572656.8-.6.35470055-.0427344.7052559.1070078.91961525.3928203 1.77936199 2.1686494 4.39746333 3.4777 7.2 3.6.55228475 0 1 .4477153 1 1s-.44771525 1-1 1z" fill="#547580"/><path id="Shape" d="m21 10 1 6 16 2 2.06-2.79c.0981245-.3979441.1682958-.802264.21-1.21 1.25-12.76-10.57-16-16.27-10.36z" fill="#84b5cb"/><path id="Shape" d="m32 52.12c-12.7 0-23-8.53-23-19.06.06740967-4.6616943 2.0232346-9.0965814 5.42-12.29l18-6.76c4.181132.0355981 8.2940138 1.0638185 12 3l10 11.81c3.22 11.66-7.33 23.3-22.42 23.3z" fill="#f29c1f"/><path id="Shape" d="m55 32.09c-.8 11.85-14 19.65-27 17.73-9.93-1.42-18.38-8.45-19-17.77.33925526-4.2915779 2.2600757-8.3042752 5.39-11.26l18-6.76c4.1800683.0439124 8.2910397 1.0716553 12 3l10 11.81c.3192393 1.0583366.5237483 2.1479334.61 3.25z" fill="#f0c419"/><path id="Shape" d="m42.3 50.1c-1.4265859.6006383-2.9064127 1.0660137-4.42 1.39-.6690764-.5106522-1.2976205-1.0723299-1.88-1.68 1.7037485-.2308151 3.3792338-.6362826 5-1.21.3991369.5286423.8334547 1.0297783 1.3 1.5z" fill="#2c3e50"/><path id="Shape" d="m41 48.6c-1.6207662.5737174-3.2962515.9791849-5 1.21-5.42-5.68-7.13-15.23-5.31-23.11l2.31-6.26c1.1550501-2.2590492 2.7776599-4.2464054 4.76-5.83 2.3185395.4894484 4.5592849 1.2935597 6.66 2.39l.56.66c-2.4124152 1.4824131-4.7425153 3.0947889-6.98 4.83-3.42 8.2-2.5 19.26 3 26.11z" fill="#35495e"/><path id="Shape" d="m30.75 52.1c-2.7336033-.1219949-5.4320163-.6650505-8-1.61-1.0365286-.9427144-1.9594436-2.0032276-2.75-3.16 2.5117564 1.2638813 5.2146436 2.1051549 8 2.49.8196069.8699956 1.7432232 1.6357576 2.75 2.28z" fill="#2c3e50"/><path id="Shape" d="m28 49.82c-2.7853564-.3848451-5.4882436-1.2261187-8-2.49-4.4-6.57-5.22-16.17-2.39-23.91l.39-.42 1-3.94 5-1.87c-1.12 9-1 7.6-1 8.33-2.3 8.39-.59 18.4 5 24.3z" fill="#35495e"/></g><path id="Shape" d="m49.58 20.79-.01-.01" stroke="#000" stroke-linecap="round" stroke-linejoin="round" stroke-width="2"/><path id="Shape" d="m29.86 8.07c5 5.94 2.56 18.69 2.56 18.69s-13 0-17.92-5.89-4.24-12.09 0-15.62 10.41-3.12 15.36 2.82z" fill="#9fc9d3" fill-rule="nonzero"/><path id="Shape" d="m60 23c-.0029058 2.9695931-1.8435645 5.6273632-4.6224345 6.6744414s-5.9157255.2648354-7.8775655-1.9644414v-9.42c1.96184-2.2292768 5.0986955-3.0115196 7.8775655-1.9644414s4.6195287 3.7048483 4.6224345 6.6744414z" fill="#f0c419" fill-rule="nonzero"/><circle id="Oval" cx="44" cy="23" fill="#f0c419" fill-rule="nonzero" r="7"/><path id="Shape" d="m59 23c.0131171 2.5011124-1.5266545 4.7479964-3.8639455 5.638393s-4.9817404.2375015-6.6360545-1.638393v-8c1.6543141-1.8758945 4.2987635-2.5287896 6.6360545-1.638393s3.8770626 3.1372806 3.8639455 5.638393z" fill="#fff" fill-rule="nonzero"/><path id="Shape" d="m54 25c-1.1045695 0-2-.8954305-2-2s.8954305-2 2-2 2 .8954305 2 2-.8954305 2-2 2z" fill="#35495e" fill-rule="nonzero"/><path id="Shape" d="m52 23c-1.1045695 0-2-.8954305-2-2s.8954305-2 2-2 2 .8954305 2 2-.8954305 2-2 2z" fill="#fff" fill-rule="nonzero"/><path id="Shape" d="m49 27.46c-.178934-.1539304-.3460696-.321066-.5-.5v-7.96c.1539304-.178934.321066-.3460696.5-.5 1.2779127 1.1384805 2.0088097 2.7685098 2.0088097 4.48s-.730897 3.3415195-2.0088097 4.48z" fill="#ecf0f1" fill-rule="nonzero"/><circle id="Oval" cx="44" cy="23" fill="#fff" fill-rule="nonzero" r="6"/><path id="Shape" d="m45 25c-1.1045695 0-2-.8954305-2-2s.8954305-2 2-2 2 .8954305 2 2-.8954305 2-2 2z" fill="#35495e" fill-rule="nonzero"/><path id="Shape" d="m43 23c-1.1045695 0-2-.8954305-2-2s.8954305-2 2-2 2 .8954305 2 2-.8954305 2-2 2z" fill="#fff" fill-rule="nonzero"/></g></svg>