<?xml version="1.0" encoding="UTF-8" standalone="no"?>
<!DOCTYPE svg PUBLIC "-//W3C//DTD SVG 1.1//EN" "http://www.w3.org/Graphics/SVG/1.1/DTD/svg11.dtd">
<svg version="1.1" xmlns="http://www.w3.org/2000/svg" xmlns:xlink="http://www.w3.org/1999/xlink" preserveAspectRatio="xMidYMid meet" viewBox="0 0 640 640" width="640" height="640"><defs><path d="M344.21 0.74L356.1 1.65L367.85 2.91L379.43 4.52L390.85 6.47L402.09 8.74L413.15 11.34L424.01 14.26L434.66 17.49L445.1 21.02L455.31 24.84L465.29 28.96L475.04 33.35L484.53 38.03L493.76 42.96L502.72 48.16L511.4 53.61L519.79 59.31L527.89 65.25L535.69 71.42L543.16 77.81L550.32 84.42L557.14 91.24L563.61 98.27L569.74 105.49L575.51 112.91L580.9 120.5L585.92 128.27L590.55 136.21L594.78 144.31L598.6 152.57L602.01 160.97L605 169.51L607.55 178.19L609.65 186.99L611.31 195.91L612.5 204.95L613.22 214.09L613.47 223.32L613.28 231.5L612.73 239.55L611.82 247.46L610.55 255.23L608.93 262.87L606.97 270.38L604.67 277.74L602.03 284.97L599.07 292.07L595.79 299.02L592.18 305.84L588.27 312.51L584.05 319.05L579.53 325.45L574.71 331.71L569.6 337.82L564.21 343.8L558.54 349.63L552.6 355.33L546.39 360.88L539.92 366.28L533.19 371.54L526.21 376.66L518.98 381.64L511.51 386.47L503.81 391.15L495.88 395.69L487.72 400.08L479.34 404.33L470.76 408.42L461.96 412.37L452.96 416.18L443.77 419.83L434.38 423.33L424.81 426.69L415.05 429.89L405.13 432.94L395.03 435.85L384.77 438.6L374.35 441.2L368.87 442.79L362.95 444.49L356.61 446.29L349.89 448.17L342.82 450.14L335.42 452.18L327.73 454.28L319.78 456.45L311.6 458.67L303.22 460.93L294.66 463.22L285.97 465.55L277.16 467.9L268.28 470.26L259.34 472.63L250.38 474.99L241.44 477.35L232.53 479.7L223.7 482.01L214.96 484.3L206.36 486.55L197.92 488.76L189.67 490.91L181.64 492.99L173.86 495.01L166.37 496.96L159.19 498.82L152.35 500.59L145.89 502.26L139.83 503.83L134.2 505.28L129.03 506.61L124.37 507.81L120.22 508.88L116.63 509.8L113.62 510.57L111.23 511.19L109.49 511.63L108.42 511.91L108.06 512L135.23 403.07L129.91 399.95L124.72 396.75L119.66 393.46L114.73 390.08L109.94 386.61L105.28 383.06L100.75 379.43L96.35 375.71L92.08 371.92L87.95 368.05L83.95 364.1L80.08 360.08L76.35 355.98L72.75 351.81L69.28 347.57L65.94 343.26L62.74 338.89L59.68 334.44L56.75 329.94L53.95 325.37L51.29 320.74L48.76 316.05L46.37 311.31L44.11 306.51L41.99 301.65L40 296.74L38.15 291.78L36.44 286.77L34.86 281.71L33.42 276.6L32.11 271.45L30.94 266.26L29.91 261.02L29.02 255.74L28.26 250.43L27.64 245.07L27.15 239.68L26.81 234.26L26.6 228.8L26.53 223.32L26.78 214.08L27.5 204.94L28.69 195.91L30.35 186.99L32.45 178.18L35 169.51L37.99 160.97L41.4 152.56L45.22 144.31L49.45 136.21L54.08 128.27L59.1 120.5L64.49 112.9L70.26 105.49L76.39 98.27L82.86 91.24L89.68 84.42L96.84 77.81L104.31 71.41L112.11 65.24L120.21 59.31L128.6 53.61L137.28 48.16L146.24 42.96L155.47 38.02L164.96 33.35L174.71 28.96L184.69 24.84L194.9 21.02L205.34 17.49L215.99 14.26L226.85 11.34L237.91 8.74L249.15 6.47L260.57 4.52L272.15 2.91L283.9 1.65L295.79 0.74L307.83 0.19L320 0L332.17 0.19L344.21 0.74ZM299.75 33.33L289.74 34.13L279.82 35.23L270 36.64L260.3 38.34L250.71 40.33L241.25 42.61L231.93 45.15L222.75 47.96L213.74 51.04L204.89 54.37L196.22 57.94L187.74 61.76L179.46 65.81L171.38 70.08L163.52 74.58L155.88 79.29L148.48 84.21L141.32 89.32L134.42 94.63L127.79 100.13L121.42 105.81L115.34 111.66L109.56 117.68L104.08 123.85L98.91 130.18L94.06 136.66L89.55 143.27L85.38 150.02L81.55 156.9L78.09 163.89L75.01 171L72.3 178.21L69.98 185.52L68.06 192.92L66.55 200.41L65.46 207.98L64.8 215.62L64.58 223.32L64.68 228.5L64.98 233.65L65.47 238.75L66.16 243.82L67.03 248.85L68.08 253.83L69.3 258.77L70.7 263.66L72.27 268.51L73.99 273.3L75.88 278.05L77.92 282.75L80.1 287.39L82.44 291.97L84.91 296.5L87.51 300.97L90.25 305.38L93.11 309.73L96.1 314.02L99.2 318.24L102.41 322.4L105.73 326.49L109.15 330.51L112.68 334.45L116.29 338.33L120 342.13L123.79 345.86L127.66 349.51L131.61 353.08L135.62 356.57L139.71 359.98L143.85 363.31L148.06 366.55L152.31 369.71L156.62 372.77L160.97 375.75L165.35 378.64L169.78 381.43L174.23 384.13L178.71 386.74L151.54 468.44L154.76 467.52L158.08 466.58L161.5 465.62L165.01 464.62L168.62 463.59L172.33 462.54L176.13 461.45L180.04 460.34L184.05 459.2L188.15 458.03L192.37 456.83L196.68 455.6L201.1 454.34L205.63 453.05L210.26 451.73L215 450.38L219.85 449L224.8 447.59L229.87 446.15L235.05 444.67L240.34 443.17L245.75 441.64L251.27 440.07L256.9 438.47L262.65 436.84L268.52 435.18L274.5 433.49L280.61 431.77L286.83 430.01L293.18 428.22L299.64 426.4L306.23 424.55L312.95 422.66L319.78 420.74L326.75 418.79L333.84 416.8L341.05 414.78L348.4 412.73L355.87 410.64L363.48 408.52L371.06 406.92L378.69 405.12L386.36 403.12L394.05 400.94L401.74 398.57L409.44 396.01L417.12 393.27L424.77 390.36L432.39 387.27L439.95 384.01L447.44 380.59L454.86 377L462.19 373.25L469.42 369.34L476.53 365.27L483.52 361.06L490.37 356.7L497.06 352.2L503.59 347.55L509.95 342.77L516.12 337.85L522.08 332.8L527.83 327.62L533.36 322.32L538.64 316.9L543.68 311.36L548.45 305.71L552.95 299.94L557.16 294.07L561.06 288.1L564.66 282.02L567.93 275.84L570.86 269.57L573.44 263.21L575.65 256.76L577.5 250.23L578.95 243.62L580 236.93L580.65 230.16L580.86 223.32L580.63 215.62L579.94 207.98L578.8 200.41L577.23 192.92L575.23 185.52L572.81 178.21L569.99 170.99L566.78 163.89L563.18 156.89L559.22 150.02L554.88 143.27L550.2 136.66L545.18 130.18L539.83 123.85L534.16 117.67L528.18 111.66L521.91 105.81L515.34 100.13L508.5 94.63L501.4 89.32L494.04 84.2L486.43 79.29L478.6 74.58L470.54 70.08L462.26 65.8L453.79 61.75L445.13 57.94L436.28 54.36L427.27 51.04L418.1 47.96L408.78 45.15L399.32 42.61L389.74 40.33L380.04 38.34L370.23 36.64L360.33 35.23L350.35 34.13L340.29 33.33L330.17 32.84L320 32.68L309.84 32.84L299.75 33.33Z" id="c3IR1qdUUI"></path></defs><g><g><g><use xlink:href="#c3IR1qdUUI" opacity="1" fill="#9dd8c8" fill-opacity="1"></use><g><use xlink:href="#c3IR1qdUUI" opacity="1" fill-opacity="0" stroke="#000000" stroke-width="1" stroke-opacity="0"></use></g></g></g></g></svg>