<svg height="511pt" viewBox="0 0 511 511.99846" width="511pt" xmlns="http://www.w3.org/2000/svg"><path d="m387.046875 277.890625 9.003906-5.03125 8.917969-5.035156 106.015625-59.671875v-8.828125c.027344-24.796875-6.5-49.160157-18.925781-70.621094h1.261718l-8.304687-124.582031c-.105469-1.59375-1.0625-3-2.5-3.6875s-3.132813-.546875-4.4375.367187l-81.859375 57.300781h-52.964844l-81.867187-57.300781c-1.304688-.910156-3-1.050781-4.433594-.363281s-2.386719 2.09375-2.496094 3.683594l-8.308593 124.601562h1.351562c-12.445312 21.453125-19 45.816406-18.996094 70.617188v8.828125l6.355469 3.53125c-41.5 24.425781-76.882813 57.992187-103.460937 98.144531-6.441407 9.667969-12.335938 19.6875-17.652344 30.015625.394531-31.109375 2.515625-62.171875 6.355468-93.042969 3.355469-29.042968 11.296876-58.617187 11.296876-87.921875.015624-.707031-.011719-1.414062-.085938-2.121093v-.175782c-1.175781-33.21875-28.464844-59.53125-61.707031-59.496094-14.074219-.238281-28.039063 2.53125-40.957031 8.121094-8.386719 3.796875-41.757813 20.742188-21.980469 29.925782 25.773437 12.003906 36.632812 40.253906 42.457031 67.265624 1.414062 6.445313 2.472656 12.710938 3.445312 18.714844 4.738282 39.410156 7.449219 79.039063 8.121094 118.730469h.265625c.1875 22.285156 11.5625 42.984375 30.277344 55.082031-8.339844 12.429688-12.796875 27.054688-12.800781 42.019532v48.554687c-.296875 13.972656 10.664062 25.601563 24.628906 26.128906l134.269531.351563h35.308594c4.875 0 8.828125-3.953125 8.828125-8.828125 0 4.875 3.953125 8.828125 8.828125 8.828125h123.585937c4.875 0 8.828126-3.953125 8.828126-8.828125.011718-9.367188-3.707032-18.355469-10.328126-24.980469-6.625-6.625-15.613281-10.339844-24.984374-10.328125h-8.824219v-97.105469c.035156-13.914062-10.746094-25.464844-24.628907-26.394531 9.292969-19.570313 15.316407-40.535156 17.828126-62.054687 5.363281-.28125 10.589843-1.792969 15.273437-4.414063zm-158.632813 162.425781c0 1.058594-.085937 2.207032-.175781 3.265625h-.089843c.179687-1.078125.269531-2.171875.265624-3.265625zm0 0" fill="#e57e25"/><path d="m422.710938 503.167969c0 4.875-3.953126 8.828125-8.828126 8.828125h-52.964843v-8.828125c0-9.707031 13.683593-18.535157 7.324219-24.980469-6.640626-6.601562-15.617188-10.3125-24.980469-10.328125h-8.828125v-97.105469c-.027344-5.207031-1.558594-10.296875-4.414063-14.652344.972657-1.46875 2.097657-2.828124 3.355469-4.058593 4.957031-4.976563 11.691406-7.769531 18.714844-7.769531.617187-.015626 1.238281.015624 1.855468.085937 13.882813.929687 24.664063 12.480469 24.628907 26.394531v97.105469h8.824219c9.371093-.011719 18.359374 3.703125 24.984374 10.328125 6.621094 6.625 10.339844 15.613281 10.328126 24.980469zm0 0" fill="#802f34"/><path d="m404.96875 267.824219-8.917969 5.035156c.089844-.972656.175781-1.945313.175781-2.914063 0-14.625-11.855468-26.484374-26.480468-26.484374-14.628906 0-26.484375 11.859374-26.484375 26.484374 0 .96875.089843 1.941407.175781 2.914063l-8.828125-5.035156c.707031-16.417969 3.796875-124.644531-45.902344-184.140625 48.671875-34.121094 113.492188-34.121094 162.164063 0-49.789063 59.496094-46.699219 167.632812-45.902344 184.140625zm0 0" fill="#f29c1f"/><path d="m334.609375 267.824219-99.75-56.140625-6.355469-3.53125v-8.828125c-.230468-46.117188 22.292969-89.378907 60.203125-115.640625 49.699219 59.496094 46.609375 167.722656 45.902344 184.140625zm0 0" fill="#e6e7e8"/><path d="m510.984375 199.324219v8.828125l-106.015625 59.671875c-.796875-16.507813-3.886719-124.644531 45.902344-184.140625 37.726562 26.410156 60.171875 69.585937 60.113281 115.640625zm0 0" fill="#e6e7e8"/><g fill="#2c2f38"><path d="m396.226562 269.945312c0 .96875-.085937 1.941407-.175781 2.914063l-9.003906 5.03125c-10.765625 5.960937-23.839844 5.960937-34.605469 0l-9.003906-5.03125c-.085938-.972656-.175781-1.945313-.175781-2.914063 0-14.625 11.855469-26.484374 26.484375-26.484374 14.625 0 26.480468 11.859374 26.480468 26.484374zm0 0"/><path d="m458.011719 172.859375c0 4.875-3.953125 8.828125-8.828125 8.828125s-8.828125-3.953125-8.828125-8.828125 3.953125-8.828125 8.828125-8.828125 8.828125 3.953125 8.828125 8.828125zm0 0"/><path d="m299.117188 172.859375c0 4.875-3.953126 8.828125-8.828126 8.828125s-8.828124-3.953125-8.828124-8.828125 3.953124-8.828125 8.828124-8.828125 8.828126 3.953125 8.828126 8.828125zm0 0"/></g><path d="m281.46875 503.167969c0 4.875-3.953125 8.828125-8.828125 8.828125h-35.308594l-134.269531-.351563c-13.964844-.527343-24.925781-12.15625-24.628906-26.128906v-48.554687c.003906-14.964844 4.460937-29.589844 12.800781-42.019532.175781-.175781.351563-.441406.53125-.617187v-.175781c4.164063-5.894532 9.125-11.183594 14.742187-15.710938h.085938c14.246094-11.550781 32.269531-17.402344 50.582031-16.421875 39.753907 2.40625 70.890625 35.121094 71.328125 74.945313 0 1.148437 0 2.207031-.089844 3.355468.003907 1.09375-.085937 2.1875-.265624 3.265625-.058594 1.332031-.207032 2.660157-.441407 3.972657-.273437 2.261718-.6875 4.5-1.234375 6.710937-.027344.210937-.089844.421875-.175781.617187-.53125 2.117188-1.148437 4.238282-1.855469 6.355469-.792968 2.296875-1.675781 4.503907-2.648437 6.621094h24.367187c9.367188-.011719 18.355469 3.703125 24.980469 10.328125s10.339844 15.613281 10.328125 24.980469zm0 0" fill="#d25627"/><path d="m371.773438 282.304688c-2.511719 21.519531-8.535157 42.484374-17.828126 62.054687-.617187-.070313-1.238281-.101563-1.855468-.085937-7.023438 0-13.757813 2.792968-18.714844 7.769531-1.257812 1.230469-2.382812 2.589843-3.355469 4.058593-6.457031-9.738281-18.535156-14.089843-29.71875-10.714843-11.1875 3.375-18.839843 13.683593-18.832031 25.367187v132.414063c.011719-9.367188-3.703125-18.355469-10.328125-24.980469s-15.613281-10.339844-24.980469-10.328125h-24.367187c.972656-2.117187 1.855469-4.324219 2.648437-6.621094.707032-2.117187 1.324219-4.238281 1.855469-6.355469.085937-.195312.148437-.40625.175781-.617187.546875-2.210937.960938-4.449219 1.234375-6.710937.234375-1.3125.382813-2.640626.441407-3.972657h.089843c.089844-1.058593.175781-2.207031.175781-3.265625s.089844-2.207031.089844-3.355468c-.4375-39.824219-31.574218-72.539063-71.328125-74.945313-18.3125-.980469-36.335937 4.871094-50.582031 16.421875h-.085938c-5.617187 4.527344-10.578124 9.816406-14.742187 15.710938 5.628906-18.738282 12.988281-36.910157 21.980469-54.289063 5.316406-10.328125 11.210937-20.347656 17.652344-30.015625 26.574218-40.160156 61.960937-73.734375 103.460937-98.160156l99.75 56.140625 8.828125 5.035156 9.003906 5.03125c5.882813 3.308594 12.597656 4.84375 19.332032 4.414063zm0 0" fill="#e57e25"/><path d="m131.398438 158.894531c0 29.304688-7.941407 58.878907-11.296876 87.921875-3.839843 30.871094-5.960937 61.933594-6.355468 93.042969-8.992188 17.378906-16.351563 35.550781-21.980469 54.289063v.175781c-.179687.175781-.355469.441406-.53125.617187-18.714844-12.097656-30.089844-32.796875-30.277344-55.082031h-.265625c-.671875-39.691406-3.382812-79.320313-8.121094-118.730469-.972656-6.003906-2.03125-12.269531-3.445312-18.714844 48.464844-3.882812 71.328125-27.101562 82.1875-45.640624.074219.707031.101562 1.414062.085938 2.121093zm0 0" fill="#f29c1f"/><path d="m131.3125 156.597656v.175782c-10.859375 18.539062-33.722656 41.757812-82.1875 45.640624-5.824219-27.011718-16.683594-55.261718-42.457031-67.265624-19.777344-9.183594 13.59375-26.128907 21.980469-29.925782 12.917968-5.589844 26.882812-8.359375 40.957031-8.121094 33.242187-.035156 60.53125 26.277344 61.707031 59.496094zm0 0" fill="#e6e7e8"/><path d="m378.5625 503.753906c-.230469 4.679688-4.140625 8.328125-8.828125 8.242188h-79.445313c-4.875 0-8.828124-3.953125-8.828124-8.828125v-132.414063c-.007813-11.683594 7.644531-21.992187 18.828124-25.367187 11.1875-3.375 23.265626.976562 29.722657 10.714843 2.855469 4.355469 4.386719 9.445313 4.414062 14.652344v97.105469h8.828125c9.46875-.015625 18.550782 3.78125 25.191406 10.53125 6.644532 6.75 10.289063 15.890625 10.117188 25.363281zm0 0" fill="#d25627"/></svg>