<svg height="512" viewBox="0 0 61 59" width="512" xmlns="http://www.w3.org/2000/svg"><g id="007---Ladybird" fill="none"><g fill="#35495e"><path id="Shape" d="m12.65 22.86c-.29 0-.1 0-4.47-1.71-.38-.15-.25-.15-4.98.85-.35726559.0714531-.7255124-.0531204-.96602542-.3267949s-.31675259-.6548724-.2-1c.11675258-.3451277.40875982-.601752.76602542-.6732051 4.62-.93 5-1.16 6.12-.73l4.08 1.66c.4436676.1751425.7018776.6392533.6167657 1.1085845-.0851118.4693311-.48985.8132182-.9667657.8214155z"/><path id="Shape" d="m1 37c-.4608398-.0027311-.86013814-.3200462-.96687997-.7683619s.10671726-.9115255.51687997-1.1216381c4.88-2.45 3.7-2.28 7.69-1.48.3572656.0714531.64927284.3280774.76602542.6732051.11675259.3451276.04051302.7263255-.2 1s-.60875983.398248-.96602542.3267949l-2.36-.47c-.48-.1-.43 0-4 1.77-.15099046.0653843-.31662485.0895393-.48.07z"/><path id="Shape" d="m5 54c-.34659321-.0010489-.66792859-.1814922-.84923693-.4768822-.18130833-.2953899-.19673232-.6635996-.04076307-.9731178l1.65-3.32c.33197647-.6577291.89437852-1.1702981 1.58-1.44l3.2-1.28c.5136248-.2043454 1.0956546.0463752 1.3.56s-.0463752 1.0956546-.56 1.3l-3.2 1.28c-.47.18-.38.18-2.19 3.8-.16945024.3362797-.51344179.5488587-.89.55z"/><path id="Shape" d="m47 20.93c4.19-1.67 4.64-2 5.8-1.79l4.4.86c.3572656.0714531.6492728.3280774.7660254.6732051.1167526.3451276.040513.7263255-.2 1s-.6087598.398248-.9660254.3267949l-4.41-.88c-.4-.08-.19-.1-4.67 1.69-.5191477.1988225-1.1011775-.0608523-1.3-.58s.0608523-1.1011775.58-1.3z"/><path id="Shape" d="m59 37c-.32 0-.13.06-3.83-1.8-.4-.2-.45-.12-3 .39-.3572656.0714531-.7255124-.0531204-.9660254-.3267949s-.3167526-.6548724-.2-1c.1167526-.3451277.4087598-.601752.7660254-.6732051l2.37-.48c.6544811-.1258222 1.3321467-.0345305 1.93.26l3.39 1.7c.471235.1775402.7369408.6777868.6201892 1.1676358-.1167516.4898489-.5795337.8164663-1.0801892.7623642z"/><path id="Shape" d="m55 54c-.3765582-.0011413-.7205498-.2137203-.89-.55l-1.66-3.32c-.24-.48-.34-.41-3.73-1.76-.5136248-.2043454-.7643453-.7863752-.56-1.3.2043454-.5136248.7863752-.7643453 1.3-.56l3.2 1.28c.6856215.2697019 1.2480235.7822709 1.58 1.44l1.65 3.32c.1559692.3095182.1405453.6777279-.0407631.9731178-.1813083.29539-.5026437.4758333-.8492369.4768822z"/><path id="Shape" d="m41 16.08h-22c0-3.81-.11-5 .34-6.67l7.07-7.07c.8447534-.22609176 1.7155141-.34040011 2.59-.34 1.538392-.10959903 3.0845464.00493093 4.59.34l7.07 7.07c.45 1.69.34 2.59.34 6.67z"/></g><path id="Shape" d="m13.76 5c-.5522847-.13254834-.8925483-.68771525-.76-1.24s.6877153-.89254834 1.24-.76c1.4155668.41911669 2.9464072.12859223 4.11-.78.436305-.34241653 1.0675834-.26630494 1.41.17000001.3424165.43630495.2663049 1.06758344-.17 1.40999999-1.6381568 1.31240264-3.8066987 1.75875773-5.83 1.2z" fill="#c03a2b"/><path id="Shape" d="m15 9c-.5522847 0-1-.44771525-1-1s.4477153-1 1-1c.8813078.01017629 1.7197398-.37962105 2.28-1.06.3589851-.41973641.9902636-.46898509 1.41-.11s.4689851.99026359.11 1.41c-.939545 1.12565988-2.3338061 1.77142294-3.8 1.76z" fill="#c03a2b"/><path id="Shape" d="m40.41 3.83c-.436305-.34241654-.5124165-.97369505-.17-1.41s.973695-.51241654 1.41-.17c1.1695442.8966881 2.6991243 1.17580855 4.11.75.3572656-.08574374.7331364.0256247.9860254.2921539.2528891.26652921.3443765.64772706.24 1-.1043765.35227295-.3887598.62210236-.7460254.7078461-2.0187165.56205565-4.1844549.12742205-5.83-1.17z" fill="#c03a2b"/><path id="Shape" d="m45 9c-1.4661939.01142294-2.860455-.63434012-3.8-1.76-.2322227-.27152185-.3019501-.64630769-.1829166-.98317933s.4087439-.58465025.7600001-.65000002c.3512561-.06534978.7106939.06165748.9429165.33317935.5602602.68037895 1.3986922 1.07017629 2.28 1.06.5522847 0 1 .44771525 1 1s-.4477153 1-1 1z" fill="#c03a2b"/><ellipse id="Oval" cx="30" cy="36" fill="#c03a2b" rx="22" ry="23"/><ellipse id="Oval" cx="30" cy="36" fill="#e64c3c" rx="19" ry="23"/><circle id="Oval" cx="21" cy="46" fill="#2c3e50" r="3"/><circle id="Oval" cx="17" cy="35" fill="#2c3e50" r="3"/><circle id="Oval" cx="22" cy="24" fill="#2c3e50" r="3"/><circle id="Oval" cx="39" cy="46" fill="#2c3e50" r="3"/><circle id="Oval" cx="43" cy="35" fill="#2c3e50" r="3"/><circle id="Oval" cx="38" cy="24" fill="#2c3e50" r="3"/><path id="Shape" d="m33 58.78c-1.9889701.2970502-4.0110299.2970502-6 0l3-45.78z" fill="#802f34"/><path id="Shape" d="m30 6c.0020263 2.6079858-1.4459543 5.0008562-3.7572184 6.2090169-2.3112641 1.2081608-5.1025332 1.0312619-7.2427816-.4590169.0122835-.7906865.1231392-1.5767539.33-2.34l7.07-7.07c.7660531-.21106411 1.5555386-.32528756 2.35-.34.8153753 1.17439524 1.2515959 2.57030126 1.25 4z" fill="#2c3e50"/><path id="Shape" d="m41 11.75c-2.7828176 1.9507267-6.5647292 1.6208521-8.9677906-.7822094-2.4030615-2.4030614-2.7329361-6.18497299-.7822094-8.9677906.7906865.01228355 1.5767539.1231392 2.34.33l7.07 7.07c.2110641.7660531.3252876 1.5555386.34 2.35z" fill="#2c3e50"/><circle id="Oval" cx="23" cy="6" fill="#e64c3c" r="6"/><circle id="Oval" cx="37" cy="6" fill="#e64c3c" r="6"/><circle id="Oval" cx="23" cy="6" fill="#fff" r="5"/><path id="Shape" d="m42 6c0 2.35130224-1.6382865 4.3849178-3.9357036 4.8854143-2.2974172.5004965-4.6331526-.6673712-5.6112057-2.8056028s-.3341325-4.66903015 1.5469093-6.0798115c1.5150882-1.13631617 3.5421478-1.31909603 5.236068-.47213595 1.6939201.84696007 2.763932 2.57827566 2.763932 4.47213595z" fill="#fff"/><circle id="Oval" cx="24" cy="6" fill="#35495e" r="2"/><circle id="Oval" cx="36" cy="6" fill="#35495e" r="2"/><circle id="Oval" cx="22" cy="4" fill="#fff" r="2"/><path id="Shape" d="m36 4c-.006505.94780663-.6774091 1.76088862-1.6067386 1.94723856-.9293296.18634993-1.8618422-.3052136-2.2332614-1.17723856.2793276-1.10622312.9285893-2.08364432 1.84-2.77.530433 0 1.0391408.21071368 1.4142136.58578644.3750727.37507275.5857864.88378058.5857864 1.41421356z" fill="#fff"/></g></svg>