<?xml version="1.0"?>
<svg xmlns="http://www.w3.org/2000/svg" xmlns:xlink="http://www.w3.org/1999/xlink" version="1.1" id="Capa_1" x="0px" y="0px" viewBox="0 0 512.005 512.005" style="enable-background:new 0 0 512.005 512.005;" xml:space="preserve" width="512px" height="512px"><g><g>
	<g>
		<path d="M373.516,78.646H192.512c-13.665,0-24.782,11.117-24.782,24.782v69.464c0,13.665,11.117,24.782,24.782,24.782h181.004    c13.665,0,24.782-11.117,24.782-24.782v-69.464C398.298,89.763,387.181,78.646,373.516,78.646z M383.298,172.892    c0,5.394-4.388,9.782-9.782,9.782H192.512c-5.394,0-9.782-4.388-9.782-9.782v-69.464c0-5.394,4.388-9.782,9.782-9.782h181.004    c5.394,0,9.782,4.388,9.782,9.782V172.892z" data-original="#000000" class="active-path" data-old_color="#000000" fill="#555555"/>
	</g>
</g><g>
	<g>
		<path d="M346.625,113.392H219.403c-4.142,0-7.5,3.358-7.5,7.5c0,4.142,3.358,7.5,7.5,7.5h127.222c4.142,0,7.5-3.358,7.5-7.5    C354.125,116.75,350.767,113.392,346.625,113.392z" data-original="#000000" class="active-path" data-old_color="#000000" fill="#555555"/>
	</g>
</g><g>
	<g>
		<path d="M320.08,142.527h-74.132c-4.142,0-7.5,3.358-7.5,7.5c0,4.142,3.358,7.5,7.5,7.5h74.132c4.142,0,7.5-3.358,7.5-7.5    C327.58,145.885,324.223,142.527,320.08,142.527z" data-original="#000000" class="active-path" data-old_color="#000000" fill="#555555"/>
	</g>
</g><g>
	<g>
		<path d="M203.646,291.755c-4.142,0-7.5,3.358-7.5,7.5v15.494c0,4.142,3.358,7.5,7.5,7.5c4.142,0,7.5-3.358,7.5-7.5v-15.494    C211.146,295.113,207.788,291.755,203.646,291.755z" data-original="#000000" class="active-path" data-old_color="#000000" fill="#555555"/>
	</g>
</g><g>
	<g>
		<path d="M374.871,291.755c-4.142,0-7.5,3.358-7.5,7.5v15.494c0,4.142,3.358,7.5,7.5,7.5c4.142,0,7.5-3.358,7.5-7.5v-15.494    C382.371,295.113,379.012,291.755,374.871,291.755z" data-original="#000000" class="active-path" data-old_color="#000000" fill="#555555"/>
	</g>
</g><g>
	<g>
		<path d="M315.324,308.024c-3.119-2.726-7.857-2.408-10.583,0.711c-3.769,4.312-9.412,6.785-15.483,6.785    c-6.071,0-11.715-2.473-15.483-6.785c-2.727-3.119-7.464-3.437-10.583-0.711c-3.119,2.726-3.437,7.464-0.711,10.583    c6.617,7.57,16.377,11.913,26.777,11.913c10.399,0,20.16-4.342,26.777-11.913C318.762,315.488,318.444,310.75,315.324,308.024z" data-original="#000000" class="active-path" data-old_color="#000000" fill="#555555"/>
	</g>
</g><g>
	<g>
		<path d="M449.367,43.113C442.885,18.337,420.312,0,393.533,0H209.099c-4.142,0-7.5,3.358-7.5,7.5s3.358,7.5,7.5,7.5    c0,0,184.343,0,184.433,0c23.032,0,42.709,19.664,42.709,42.709v356.027c0,23.55-19.159,42.709-42.709,42.709H129.788V15h49.312    c4.142,0,7.5-3.358,7.5-7.5s-3.358-7.5-7.5-7.5H82.188C63.75,0,48.749,15.001,48.749,33.439v23.847h-5.13    c-11.966,0-21.702,9.735-21.702,21.702c0,11.967,9.735,21.702,21.702,21.702h5.13v19.29h-5.13    c-11.966,0-21.702,9.735-21.702,21.702c0,11.967,9.735,21.702,21.702,21.702h5.13v19.291h-5.13    c-11.966,0-21.702,9.735-21.702,21.702c0,11.967,9.735,21.702,21.702,21.702h5.13v19.291h-5.13    c-11.966,0-21.702,9.735-21.702,21.702c0,11.967,9.735,21.702,21.702,21.702h5.13v19.291h-5.13    c-11.966,0-21.702,9.735-21.702,21.702c0,11.967,9.735,21.702,21.702,21.702h5.13v19.291h-5.13    c-11.966,0-21.702,9.735-21.702,21.702c0,11.967,9.735,21.702,21.702,21.702h5.13v23.847c0,18.439,15.001,33.44,33.439,33.44    h5.407v7.115c0,18.438,15.001,33.439,33.44,33.439h242.731c4.142,0,7.5-3.358,7.5-7.5c0-4.142-3.358-7.5-7.5-7.5H121.035    c-10.168,0-18.44-8.272-18.44-18.439v-7.115h290.937c31.821,0,57.709-25.888,57.709-57.709V59.957    c14.262,7.071,23.846,21.868,23.846,38.307v356.027c0,23.55-19.159,42.709-42.709,42.709h-38.613c-4.142,0-7.5,3.358-7.5,7.5    c0,4.142,3.358,7.5,7.5,7.5h38.613c31.821,0,57.709-25.888,57.709-57.709V98.264C490.087,72.928,473.233,50.479,449.367,43.113z     M43.619,85.689c-3.696,0.001-6.702-3.005-6.702-6.701c0-3.695,3.006-6.702,6.702-6.702H68.88c3.695,0,6.702,3.006,6.702,6.702    c0,3.695-3.006,6.701-6.702,6.701H43.619z M43.619,148.383c-3.695,0-6.701-3.006-6.701-6.701s3.006-6.702,6.702-6.702H68.88    c3.695,0,6.702,3.006,6.702,6.701s-3.006,6.702-6.702,6.702H43.619z M43.619,211.077c-3.695,0-6.701-3.006-6.701-6.702    c0-3.695,3.006-6.702,6.702-6.702H68.88c3.695,0,6.702,3.006,6.702,6.702s-3.006,6.702-6.702,6.702H43.619z M43.619,273.771    c-3.695,0-6.701-3.006-6.701-6.702c0-3.695,3.006-6.702,6.702-6.702H68.88c3.695,0,6.702,3.006,6.702,6.702    s-3.006,6.702-6.702,6.702H43.619z M43.619,336.465c-3.695,0-6.701-3.007-6.701-6.702s3.006-6.702,6.702-6.702H68.88    c3.695,0,6.702,3.006,6.702,6.702s-3.006,6.702-6.702,6.702H43.619z M43.619,399.158c-3.696,0.001-6.702-3.006-6.702-6.701    s3.006-6.702,6.702-6.702H68.88c3.695,0,6.702,3.006,6.702,6.702c0,3.695-3.006,6.701-6.702,6.701H43.619z M114.787,456.445    H82.188c-10.167,0-18.439-8.272-18.439-18.44v-23.847c0,0,5.128,0,5.13,0c11.721,0,21.702-9.983,21.702-21.702    c0-11.967-9.735-21.702-21.702-21.702h-5.13v-19.29h5.13c11.966,0,21.702-9.735,21.702-21.702    c0-11.967-9.735-21.702-21.702-21.702h-5.13v-19.291h5.13c11.966,0,21.702-9.735,21.702-21.702    c0-11.967-9.735-21.702-21.702-21.702h-5.13v-19.291h5.13c11.966,0,21.702-9.735,21.702-21.702    c0-11.967-9.735-21.702-21.702-21.702h-5.13v-19.29c0,0,5.126,0,5.13,0c12.135,0,22.29-10.704,21.673-22.817    c-0.582-11.45-10.081-20.587-21.673-20.587h-5.13v-19.29c0,0,5.127,0,5.13,0c11.751,0,21.702-9.965,21.702-21.702    c0-11.967-9.735-21.702-21.702-21.702h-5.13V33.439C63.749,23.272,72.021,15,82.188,15h32.599V456.445z" data-original="#000000" class="active-path" data-old_color="#000000" fill="#555555"/>
	</g>
</g></g> </svg>
