<?xml version="1.0" encoding="iso-8859-1"?>
<!-- Generator: Adobe Illustrator 19.0.0, SVG Export Plug-In . SVG Version: 6.00 Build 0)  -->
<svg version="1.1" id="Capa_1" xmlns="http://www.w3.org/2000/svg" xmlns:xlink="http://www.w3.org/1999/xlink" x="0px" y="0px"
	 viewBox="0 0 512 512" style="enable-background:new 0 0 512 512;" xml:space="preserve">
<path style="fill:#EFEDEE;" d="M127.082,279.275l-7.328,93.103l38.358,35.726l0,0c19.756,0,35.771-16.015,35.771-35.771v-71.405
	L127.082,279.275z"/>
<path style="fill:#D2D2D2;" d="M121.38,351.733c7.286,1.823,14.883,3.41,22.797,4.749c2.122,0.36,4.28,0.704,6.476,1.032
	c8.834,1.323,18.181,2.376,27.781,3.129c5.02,0.394,10.183,0.707,15.452,0.947v-60.662l-66.802-21.652L121.38,351.733z"/>
<path style="fill:#506366;" d="M162.494,327.953c0,0-12.872,24.975-5.323,74.876c2.314,15.292,7.984,29.89,16.483,42.811l0,0
	c6.823,10.372-0.617,24.171-13.032,24.171H99.699c-27.065,0,5.413-116.919-36.436-180.199L162.494,327.953z"/>
<circle style="fill:#EFEDEE;" cx="39.528" cy="225.146" r="39.528"/>
<path style="fill:#D2D2D2;" d="M39.529,233.769c-16.348,0-30.376-9.925-36.392-24.076C1.118,214.44,0,219.662,0,225.146
	c0,21.832,17.697,39.529,39.529,39.529s39.529-17.697,39.529-39.529c0-5.484-1.118-10.706-3.136-15.453
	C69.904,223.844,55.876,233.769,39.529,233.769z"/>
<path style="fill:#EFEDEE;" d="M456.953,69.708c0,0-76.864,49.345-238.17,49.345h-1.083l-42.208,106.093l42.208,106.093h1.083
	c161.306,0,238.17,49.345,238.17,49.345l27.519-155.438L456.953,69.708z"/>
<g>
	<path style="fill:#3A484A;" d="M257.824,236.236c-4.268,0-7.726-3.459-7.726-7.726v-14.431c0-4.267,3.458-7.726,7.726-7.726
		s7.726,3.459,7.726,7.726v14.431C265.551,232.777,262.091,236.236,257.824,236.236z"/>
	<path style="fill:#3A484A;" d="M417.297,236.236c-4.268,0-7.726-3.459-7.726-7.726v-14.431c0-4.267,3.458-7.726,7.726-7.726
		s7.726,3.459,7.726,7.726v14.431C425.024,232.777,421.566,236.236,417.297,236.236z"/>
	<path style="fill:#3A484A;" d="M337.561,243.939c-9.899,0-19.193-4.136-25.498-11.348c-2.809-3.213-2.481-8.093,0.731-10.902
		c3.213-2.809,8.095-2.481,10.902,0.731c3.37,3.855,8.424,6.066,13.864,6.066c5.44,0,10.493-2.211,13.863-6.066
		c2.808-3.213,7.688-3.541,10.902-0.731c3.212,2.809,3.541,7.689,0.731,10.902C356.754,239.803,347.461,243.939,337.561,243.939z"/>
</g>
<path style="fill:#D2D2D2;" d="M456.953,349.678c0,0-76.864-49.345-238.17-49.345h-1.083c-4.223-0.008-8.333-0.071-12.363-0.172
	l12.363,31.077l0,0h1.083c161.306,0,238.17,49.345,238.17,49.345l27.519-155.438l-2.736-15.453L456.953,349.678z"/>
<path style="fill:#FD6F71;" d="M484.477,42.188c-15.2,0-27.523,12.323-27.523,27.523v310.867c0,15.2,12.323,27.523,27.523,27.523
	S512,395.781,512,380.579V69.712C512,54.511,499.677,42.188,484.477,42.188z"/>
<path style="fill:#E36465;" d="M484.477,377.197c-15.2,0-27.523-12.323-27.523-27.523v30.905c0,15.2,12.323,27.523,27.523,27.523
	S512,395.78,512,380.579v-30.905C512,364.875,499.677,377.197,484.477,377.197z"/>
<path style="fill:#FD6F71;" d="M217.701,119.052V331.24c-169.208-0.326-181.387-76.702-181.236-99.653
	c0.032-4.298,0.032-8.584,0-12.882C36.314,195.753,48.493,119.377,217.701,119.052z"/>
<path style="fill:#3A484A;" d="M81.637,337.992c17.964,8.297,38.858,14.483,62.539,18.491c2.122,0.36,4.28,0.704,6.476,1.032
	c1.578,0.236,3.19,0.453,4.8,0.673c1.854-20.141,7.042-30.234,7.042-30.234l-99.231-38.342
	C72.583,303.705,78.21,320.461,81.637,337.992z"/>
<path style="fill:#E36465;" d="M37.015,209.693c-0.214,1.71-0.352,3.31-0.438,4.789c-0.004,0.072-0.008,0.144-0.012,0.215
	c-0.037,0.684-0.063,1.341-0.079,1.969c-0.002,0.087-0.003,0.17-0.005,0.254c-0.013,0.622-0.02,1.224-0.015,1.784
	c0.032,4.298,0.032,8.584,0,12.882c-0.005,0.717,0.003,1.487,0.027,2.305c0.06,2.044,0.221,4.39,0.555,6.974
	c0.134,1.034,0.295,2.107,0.488,3.213c4.344,24.902,24.844,67.215,111.798,81.932c1.933,0.327,3.897,0.641,5.896,0.94
	c7.994,1.197,16.522,2.169,25.62,2.881c11.371,0.892,23.632,1.381,36.852,1.407v-30.905
	C66.535,300.044,40.699,239.06,37.015,209.693z"/>
<g>
</g>
<g>
</g>
<g>
</g>
<g>
</g>
<g>
</g>
<g>
</g>
<g>
</g>
<g>
</g>
<g>
</g>
<g>
</g>
<g>
</g>
<g>
</g>
<g>
</g>
<g>
</g>
<g>
</g>
</svg>
