<?xml version="1.0" encoding="iso-8859-1"?>
<!-- Generator: Adobe Illustrator 19.0.0, SVG Export Plug-In . SVG Version: 6.00 Build 0)  -->
<svg version="1.1" id="Capa_1" xmlns="http://www.w3.org/2000/svg" xmlns:xlink="http://www.w3.org/1999/xlink" x="0px" y="0px"
	 viewBox="0 0 512 512" style="enable-background:new 0 0 512 512;" xml:space="preserve">
<path style="fill:#EFEDEE;" d="M437.7,41.779H116.96c-14.757,0-26.723,11.966-26.723,26.723v416.775
	c0,14.757,11.966,26.723,26.723,26.723H437.7c28.564,0,51.724-23.161,51.724-51.724V93.503
	C489.425,64.94,466.263,41.779,437.7,41.779z"/>
<path style="fill:#D2D2D2;" d="M437.7,41.779H116.96c-14.757,0-26.723,11.966-26.723,26.723v416.775c0,2.643,0.39,5.195,1.105,7.608
	h306.339c41.018,0,74.388-33.371,74.388-74.388V54.863C462.93,46.729,450.895,41.779,437.7,41.779z"/>
<path style="fill:#42C3E2;" d="M118.249,0H76.94C62.183,0,50.217,11.966,50.217,26.723v416.776
	c0,14.757,11.966,26.723,26.723,26.723h41.309l41.02-235.111L118.249,0z"/>
<path style="fill:#6EE3FF;" d="M449.405,51.724v366.772c0,28.564-23.161,51.724-51.724,51.724H118.249V0h279.431
	C426.245,0,449.405,23.161,449.405,51.724z"/>
<g>
	<path style="fill:#3A484A;" d="M63.229,59.016H37.206c-8.08,0-14.631,6.55-14.631,14.631c0,8.08,6.55,14.631,14.631,14.631h26.023
		c8.08,0,14.631-6.55,14.631-14.631C77.86,65.566,71.309,59.016,63.229,59.016z"/>
	<path style="fill:#3A484A;" d="M63.229,188.187H37.206c-8.08,0-14.631,6.55-14.631,14.631c0,8.08,6.55,14.631,14.631,14.631h26.023
		c8.08,0,14.631-6.55,14.631-14.631C77.86,194.737,71.309,188.187,63.229,188.187z"/>
	<path style="fill:#3A484A;" d="M63.229,123.601H37.206c-8.08,0-14.631,6.55-14.631,14.631c0,8.08,6.55,14.631,14.631,14.631h26.023
		c8.08,0,14.631-6.55,14.631-14.631C77.86,130.152,71.309,123.601,63.229,123.601z"/>
	<path style="fill:#3A484A;" d="M63.229,252.773H37.206c-8.08,0-14.631,6.55-14.631,14.631c0,8.08,6.55,14.631,14.631,14.631h26.023
		c8.08,0,14.631-6.55,14.631-14.631C77.86,259.323,71.309,252.773,63.229,252.773z"/>
	<path style="fill:#3A484A;" d="M63.229,317.36H37.206c-8.08,0-14.631,6.55-14.631,14.631c0,8.08,6.55,14.631,14.631,14.631h26.023
		c8.08,0,14.631-6.55,14.631-14.631C77.86,323.91,71.309,317.36,63.229,317.36z"/>
	<path style="fill:#3A484A;" d="M63.229,381.945H37.206c-8.08,0-14.631,6.55-14.631,14.631c0,8.08,6.55,14.631,14.631,14.631h26.023
		c8.08,0,14.631-6.55,14.631-14.631C77.86,388.496,71.309,381.945,63.229,381.945z"/>
</g>
<path style="fill:#EFEDEE;" d="M377.061,81.02H190.594c-9.832,0-17.804,7.971-17.804,17.804v71.56
	c0,9.832,7.971,17.804,17.804,17.804h186.467c9.832,0,17.804-7.971,17.804-17.804v-71.56
	C394.864,88.991,386.894,81.02,377.061,81.02z"/>
<g>
	<path style="fill:#3A484A;" d="M349.358,124.541H218.296c-4.267,0-7.726-3.459-7.726-7.726c0-4.267,3.459-7.726,7.726-7.726
		h131.062c4.267,0,7.726,3.459,7.726,7.726C357.084,121.081,353.625,124.541,349.358,124.541z"/>
	<path style="fill:#3A484A;" d="M322.012,154.555h-76.369c-4.267,0-7.726-3.459-7.726-7.726c0-4.267,3.459-7.726,7.726-7.726h76.369
		c4.267,0,7.726,3.459,7.726,7.726C329.738,151.096,326.279,154.555,322.012,154.555z"/>
	<path style="fill:#3A484A;" d="M202.064,324.248c-4.267,0-7.726-3.459-7.726-7.726V300.56c0-4.267,3.459-7.726,7.726-7.726
		s7.726,3.459,7.726,7.726v15.962C209.79,320.789,206.331,324.248,202.064,324.248z"/>
	<path style="fill:#3A484A;" d="M378.456,324.248c-4.268,0-7.726-3.459-7.726-7.726V300.56c0-4.267,3.458-7.726,7.726-7.726
		s7.726,3.459,7.726,7.726v15.962C386.182,320.789,382.723,324.248,378.456,324.248z"/>
	<path style="fill:#3A484A;" d="M290.26,332.769c-10.714,0-20.768-4.473-27.585-12.273c-2.808-3.213-2.481-8.094,0.732-10.902
		c3.212-2.808,8.094-2.481,10.902,0.732c3.883,4.442,9.696,6.99,15.95,6.99s12.068-2.548,15.95-6.99
		c2.808-3.213,7.689-3.541,10.902-0.732c3.213,2.808,3.541,7.689,0.732,10.902C311.028,328.295,300.973,332.769,290.26,332.769z"/>
</g>
<g>
</g>
<g>
</g>
<g>
</g>
<g>
</g>
<g>
</g>
<g>
</g>
<g>
</g>
<g>
</g>
<g>
</g>
<g>
</g>
<g>
</g>
<g>
</g>
<g>
</g>
<g>
</g>
<g>
</g>
</svg>
