<?xml version="1.0" encoding="iso-8859-1"?>
<!-- Generator: Adobe Illustrator 19.0.0, SVG Export Plug-In . SVG Version: 6.00 Build 0)  -->
<svg version="1.1" id="Capa_1" xmlns="http://www.w3.org/2000/svg" xmlns:xlink="http://www.w3.org/1999/xlink" x="0px" y="0px"
	 viewBox="0 0 512 512" style="enable-background:new 0 0 512 512;" xml:space="preserve">
<path style="fill:#AD4F3D;" d="M253.474,0h-23.392c-7.521,0-13.618,6.097-13.618,13.618v39.07h50.628v-39.07
	C267.092,6.097,260.995,0,253.474,0z"/>
<g>
	<path style="fill:#C86D5C;" d="M150.592,329.582c-11.83-4.983-25.461,0.567-30.446,12.397L53.558,500.036
		C51.165,505.717,55.336,512,61.501,512h31.743c3.467,0,6.596-2.077,7.942-5.272l61.804-146.7
		C167.973,348.198,162.422,334.567,150.592,329.582z"/>
	<path style="fill:#C86D5C;" d="M429.998,500.036L363.41,341.979c-4.985-11.832-18.613-17.379-30.446-12.397
		c-11.832,4.985-17.381,18.616-12.397,30.446l61.803,146.7c1.345,3.195,4.475,5.272,7.942,5.272h31.744
		C428.219,512,432.391,505.717,429.998,500.036z"/>
</g>
<rect x="26.376" y="51.299" style="fill:#D2D2D2;" width="430.801" height="299.7"/>
<path style="fill:#EFEDEE;" d="M457.18,74.276L241.777,52.688L26.376,74.276c0,0-8.656,175.858,43.908,228.421h430.804
	C448.524,250.134,457.18,74.276,457.18,74.276z"/>
<g>
	<path style="fill:#3A484A;" d="M138.415,202.677c-4.268,0-7.726-3.459-7.726-7.726v-18.707c0-4.267,3.458-7.726,7.726-7.726
		s7.726,3.459,7.726,7.726v18.707C146.141,199.218,142.682,202.677,138.415,202.677z"/>
	<path style="fill:#3A484A;" d="M345.142,202.677c-4.268,0-7.726-3.459-7.726-7.726v-18.707c0-4.267,3.458-7.726,7.726-7.726
		s7.726,3.459,7.726,7.726v18.707C352.868,199.218,349.409,202.677,345.142,202.677z"/>
	<path style="fill:#3A484A;" d="M241.778,212.662c-12.173,0-23.591-5.077-31.329-13.929c-2.809-3.213-2.481-8.094,0.732-10.902
		c3.211-2.807,8.093-2.481,10.901,0.732c4.803,5.494,11.982,8.645,19.695,8.645s14.891-3.151,19.694-8.645
		c2.807-3.213,7.69-3.541,10.901-0.732c3.213,2.808,3.542,7.689,0.732,10.902C265.368,207.586,253.95,212.662,241.778,212.662z"/>
</g>
<g>
	<path style="fill:#AD4F3D;" d="M150.592,329.582c-11.83-4.982-25.461,0.568-30.446,12.397l-26.502,62.907h50.446l18.899-44.858
		C167.973,348.198,162.422,334.567,150.592,329.582z"/>
	<path style="fill:#AD4F3D;" d="M363.41,341.979c-4.985-11.831-18.613-17.379-30.446-12.397
		c-11.832,4.985-17.381,18.616-12.397,30.446l18.898,44.858h50.447L363.41,341.979z"/>
</g>
<path style="fill:#C86D5C;" d="M457.18,328.026H26.376c-8.54,0-15.464,6.924-15.464,15.464v15.027
	c0,8.54,6.924,15.464,15.464,15.464H457.18c8.54,0,15.464-6.924,15.464-15.464V343.49C472.643,334.95,465.72,328.026,457.18,328.026
	z"/>
<path style="fill:#D2D2D2;" d="M457.18,74.276L241.777,52.688L26.376,74.276c0,0-0.594,12.099-0.525,30.892
	c0.175,0.002,0.349,0.013,0.524,0.013h430.279C456.584,86.381,457.18,74.276,457.18,74.276z"/>
<path style="fill:#C86D5C;" d="M457.18,28.322H26.376c-8.54,0-15.464,6.924-15.464,15.464v15.027c0,8.54,6.924,15.464,15.464,15.464
	H457.18c8.54,0,15.464-6.923,15.464-15.464V43.786C472.643,35.245,465.72,28.322,457.18,28.322z"/>
<g>
</g>
<g>
</g>
<g>
</g>
<g>
</g>
<g>
</g>
<g>
</g>
<g>
</g>
<g>
</g>
<g>
</g>
<g>
</g>
<g>
</g>
<g>
</g>
<g>
</g>
<g>
</g>
<g>
</g>
</svg>
