<?xml version="1.0"?>
<svg xmlns="http://www.w3.org/2000/svg" xmlns:xlink="http://www.w3.org/1999/xlink" version="1.1" id="Capa_1" x="0px" y="0px" viewBox="0 0 512 512" style="enable-background:new 0 0 512 512;" xml:space="preserve" width="512px" height="512px" class=""><g><g>
	<g>
		<path d="M257.771,207.808c-4.142,0-7.5,3.358-7.5,7.5v14.008c0,4.142,3.357,7.5,7.5,7.5c4.142,0,7.5-3.358,7.5-7.5v-14.008    C265.271,211.166,261.913,207.808,257.771,207.808z" data-original="#000000" class="active-path" data-old_color="#000000" fill="#CBCBCB"/>
	</g>
</g><g>
	<g>
		<path d="M412.573,207.808c-4.142,0-7.5,3.358-7.5,7.5v14.008c0,4.142,3.358,7.5,7.5,7.5c4.142,0,7.5-3.358,7.5-7.5v-14.008    C420.073,211.166,416.715,207.808,412.573,207.808z" data-original="#000000" class="active-path" data-old_color="#000000" fill="#CBCBCB"/>
	</g>
</g><g>
	<g>
		<path d="M359.21,222.694c-3.118-2.726-7.856-2.408-10.583,0.711c-3.271,3.741-8.175,5.887-13.457,5.887    c-5.281,0-10.186-2.146-13.457-5.888c-2.726-3.119-7.464-3.438-10.583-0.711c-3.119,2.726-3.437,7.464-0.711,10.583    c6.122,7.002,15.143,11.017,24.752,11.017c9.61,0,18.631-4.015,24.75-11.016C362.647,230.158,362.329,225.421,359.21,222.694z" data-original="#000000" class="active-path" data-old_color="#000000" fill="#CBCBCB"/>
	</g>
</g><g>
	<g>
		<path d="M504.5,116.205c4.142,0,7.5-3.358,7.5-7.5V75.17c0-18.868-15.35-34.217-34.217-34.217    c-17.346,0-31.708,12.977-33.913,29.73c-15.529,8.628-88.856,44.881-223.996,44.881h-1.051c-0.004,0-0.01,0-0.014,0    c-75.197,0.145-128.478,15.5-158.363,45.643c-6.222,6.275-10.932,12.702-14.49,18.975c-0.028,0-0.058-0.003-0.085-0.003    C20.578,180.179,0,200.757,0,226.05c0,25.293,20.578,45.871,45.871,45.871c0.027,0,0.057-0.003,0.085-0.003    c3.558,6.272,8.269,12.7,14.49,18.975c0.86,0.868,1.745,1.72,2.644,2.563c20.786,32.112,21.201,81.046,21.497,116.85    c0.129,15.668,0.241,29.2,1.881,39.269c2.32,14.248,8.313,21.472,17.81,21.472h59.139c8.336,0,15.973-4.559,19.929-11.896    c3.957-7.338,3.568-16.223-1.013-23.188c-5.253-7.985-9.317-16.763-12.016-25.869c18.802-4.263,32.887-21.097,32.887-41.17    v-32.656c5.096,0.162,10.29,0.257,15.605,0.267c0.005,0,0.009,0,0.014,0h1.051c79.504,0,137.041,12.708,171.308,23.368    c28.436,8.846,45.967,17.773,52.688,21.513c2.205,16.754,16.568,29.731,33.913,29.731c18.868,0,34.217-15.35,34.217-34.217    V138.705c0-4.142-3.358-7.5-7.5-7.5c-4.142,0-7.5,3.358-7.5,7.5V376.93c0,10.596-8.621,19.217-19.217,19.217    s-19.217-8.621-19.217-19.217V75.17c0-10.596,8.621-19.217,19.217-19.217S497,64.574,497,75.17v33.535    C497,112.847,500.358,116.205,504.5,116.205z M35.42,226.652c-0.001,5.398-0.08,10.841,0.675,16.2    c0.002,0.017,0.004,0.035,0.007,0.052c0.547,4.018,1.472,8.494,2.978,13.263C25.313,253.066,15,240.74,15,226.05    s10.313-27.016,24.08-30.118c-1.505,4.767-2.43,9.241-2.977,13.258c-0.003,0.022-0.006,0.044-0.009,0.067    C35.35,215.023,35.421,220.85,35.42,226.652z M170.143,452.032c-0.651,1.208-2.609,4.015-6.726,4.015h-59.139    c-0.027,0-0.049,0-0.068-0.001c-0.365-0.323-2.315-2.494-3.454-12.703c-0.968-8.679-1.062-20.024-1.17-33.161    c-0.242-29.288-0.553-66.931-11.58-99.049c18.074,9.751,40.447,16.719,67.017,20.859c-0.477-0.074-2.587,11.081-2.764,12.099    c-0.774,4.464-1.303,8.969-1.625,13.488c-1.128,15.85-0.18,31.985,2.996,47.564c0.004,0.018,0.01,0.035,0.013,0.053    c2.828,13.767,8.357,27.152,16.157,39.008C172.064,447.645,170.794,450.825,170.143,452.032z M167.204,395.429    c-0.298-2.108-0.574-4.219-0.807-6.336c-0.756-6.896-1.162-13.837-1.11-20.775c0.123-16.942,2.912-28.422,4.829-34.336    c5.849,0.645,11.879,1.168,18.087,1.568v33.374h0.001C188.204,381.795,179.226,392.607,167.204,395.429z M443.566,364.312    c-9.604-4.764-25.24-11.626-47.137-18.485c-34.439-10.788-91.602-23.594-170.106-24.265v-32.857c0-4.142-3.358-7.5-7.5-7.5    c-4.142,0-7.5,3.358-7.5,7.5v32.76c-6.324-0.106-12.644-0.346-18.958-0.707c-50.6-2.956-89.275-14.336-113.407-33.424    c-0.043-0.034-0.085-0.068-0.128-0.102c-16.646-13.213-28.578-33.211-28.432-54.873c0.031-4.186,0.031-8.432,0-12.612    c-0.136-18.088,8.112-35.282,20.7-47.979c25.632-25.852,74.026-40.023,140.225-41.134v128.071c0,4.142,3.358,7.5,7.5,7.5    c4.142,0,7.5-3.358,7.5-7.5V130.537c78.504-0.671,135.667-13.477,170.106-24.265c21.896-6.859,37.533-13.722,47.137-18.485    V364.312z" data-original="#000000" class="active-path" data-old_color="#000000" fill="#CBCBCB"/>
	</g>
</g></g> </svg>
