<?xml version="1.0"?>
<svg xmlns="http://www.w3.org/2000/svg" xmlns:xlink="http://www.w3.org/1999/xlink" version="1.1" id="Capa_1" x="0px" y="0px" viewBox="0 0 512 512" style="enable-background:new 0 0 512 512;" xml:space="preserve" width="512px" height="512px" class=""><g><g>
	<g>
		<path d="M465.138,381.583c14.264,0,25.869-11.604,25.869-25.868c0-12.124-8.385-22.321-19.659-25.11    C495.793,314.758,512,287.237,512,255.999c0-31.238-16.207-58.759-40.652-74.605c11.274-2.789,19.66-12.987,19.66-25.11    c0-14.264-11.604-25.868-25.869-25.868c-20.462,0-37.109-16.647-37.109-37.109s16.647-37.109,37.109-37.109    c14.264,0,25.869-11.604,25.869-25.869c0-14.264-11.604-25.868-25.869-25.868h-60.778c-4.142,0-7.5,3.358-7.5,7.5    c0,4.142,3.358,7.5,7.5,7.5h60.778c5.993,0,10.869,4.875,10.869,10.868c0,5.993-4.875,10.869-10.869,10.869    c0,0-247.569,0-247.713,0c-28.075,0-52.109,24.087-52.109,52.109c0,28.733,23.376,52.109,52.109,52.109h247.713    c5.993,0,10.869,4.875,10.869,10.868s-4.875,10.869-10.869,10.869h-41.985h-128.58h-77.15    c-40.717-0.001-73.844-33.129-73.844-73.846c0-40.131,33.757-73.846,73.846-73.846h156.935c4.142,0,7.5-3.358,7.5-7.5    c0-4.142-3.358-7.5-7.5-7.5H217.426H88.846C39.856,4.46,0,44.317,0,93.307c0,31.237,16.207,58.759,40.652,74.604    c-11.274,2.789-19.66,12.986-19.66,25.11c0,14.264,11.604,25.869,25.875,25.869c20.459,0.004,37.103,16.651,37.103,37.11    s-16.645,37.105-37.109,37.109c-14.264,0-25.868,11.605-25.868,25.869c0,12.124,8.385,22.321,19.659,25.11    C16.207,359.933,0,387.454,0,418.691c0,48.99,39.856,88.847,88.846,88.847c0,0,128.58,0,128.584,0h247.708    c14.264,0,25.869-11.604,25.869-25.869c0-14.265-11.604-25.869-25.869-25.869c-20.462,0-37.109-16.647-37.109-37.109    C428.029,398.233,444.671,381.588,465.138,381.583z M217.426,130.416c-20.462,0-37.109-16.647-37.109-37.109    c0-20.462,16.647-37.109,37.109-37.109h211.165c-9.601,9.457-15.562,22.601-15.562,37.109s5.961,27.652,15.562,37.109H217.426z     M423.153,182.153L423.153,182.153c40.72-0.001,73.847,33.127,73.847,73.846s-33.127,73.846-73.847,73.846h-79.228    c0.042-0.028,0.082-0.057,0.123-0.085c17.988-12.098,31.463-31.035,36.725-52.196c1.725-6.938,2.646-14.325,2.646-21.565    c0-21.99-8.453-43.926-23.429-60.053c-4.777-5.144-10.114-9.786-15.941-13.707c-0.042-0.028-0.083-0.058-0.125-0.086H423.153z     M15,93.307C15,52.588,48.127,19.46,88.846,19.46h79.228c-0.044,0.029-0.086,0.061-0.13,0.09    c-24.371,16.293-39.364,44.466-39.364,73.756c0,29.321,15.145,57.348,39.362,73.754c0.045,0.03,0.088,0.062,0.133,0.092h-79.23    C48.126,167.151,15,134.023,15,93.307z M35.993,318.977c0-5.994,4.875-10.869,10.868-10.869h0.007h80.493    c4.142,0,7.5-3.358,7.5-7.5c0-4.142-3.358-7.5-7.5-7.5H83.408c9.601-9.457,15.562-22.6,15.562-37.108    c0-14.508-5.961-27.652-15.563-37.109h211.166c20.462,0,37.109,16.647,37.109,37.109c0,20.462-16.647,37.109-37.109,37.109    H157.361c-4.142,0-7.5,3.358-7.5,7.5c0,4.142,3.358,7.5,7.5,7.5h137.213c28.733,0,52.109-23.376,52.109-52.109    c0-28.733-23.376-52.109-52.109-52.109H46.868h-0.007c-5.993,0-10.868-4.876-10.868-10.869s4.875-10.869,10.868-10.869h247.713    c40.719,0,73.847,33.127,73.847,73.847c0,40.719-33.127,73.846-73.847,73.846H46.861v0    C40.868,329.846,35.993,324.971,35.993,318.977z M88.846,492.538C48.127,492.539,15,459.411,15,418.691    c0-40.718,33.127-73.846,73.846-73.846h79.228c-0.041,0.027-0.08,0.056-0.121,0.083c-9.404,6.328-17.635,14.509-24.012,23.879    c-9.968,14.645-15.362,32.17-15.362,49.884c0,11.54,2.306,23.171,6.701,33.838c6.642,16.124,18.179,30.21,32.664,39.918    c0.044,0.029,0.086,0.061,0.13,0.09H88.846z M465.139,470.802c5.993,0,10.869,4.876,10.869,10.869s-4.875,10.869-10.869,10.869    H217.426c-40.719,0-73.846-33.128-73.846-73.847s33.127-73.846,73.846-73.846h247.713v-0.001c5.993,0,10.869,4.875,10.869,10.869    c0,5.992-4.874,10.867-10.869,10.868c0,0-247.709,0-247.713,0c-28.239,0-52.109,23.678-52.109,52.109    c0,28.105,23.996,52.11,52.109,52.11H465.139z M413.029,418.691c0,14.509,5.961,27.652,15.562,37.109H217.426    c-20.462,0-37.109-16.647-37.109-37.109c0-20.163,16.958-37.11,37.109-37.11h211.165    C418.99,391.04,413.029,404.183,413.029,418.691z" data-original="#000000" class="active-path" data-old_color="#000000" fill="#CBCBCB"/>
	</g>
</g></g> </svg>
