<svg height="512pt" viewBox="-87 0 512 512" width="512pt" xmlns="http://www.w3.org/2000/svg"><path d="m168.777344 0c-72.953125 0-132.644532 59.691406-132.644532 132.644531v147.203125c0 72.953125 59.691407 132.644532 132.644532 132.644532s132.640625-59.691407 132.640625-132.644532v-147.203125c.003906-72.953125-59.6875-132.644531-132.640625-132.644531zm84.285156 279.84375c0 22.367188-8.804688 43.492188-24.800781 59.488281-15.992188 15.992188-37.117188 24.800781-59.484375 24.800781-22.367188 0-43.492188-8.808593-59.488282-24.800781-15.992187-15.996093-24.796874-37.117187-24.796874-59.488281v-147.199219c0-22.367187 8.804687-43.492187 24.796874-59.488281 15.996094-15.992188 37.121094-24.800781 59.488282-24.800781 22.363281 0 43.492187 8.808593 59.484375 24.800781 15.992187 15.996094 24.800781 37.121094 24.800781 59.488281zm0 0" fill="#d8d7da"/><path d="m168.777344 412.488281c72.953125 0 132.644531-59.6875 132.644531-132.644531v-114.019531c0-117.464844-132.644531-117.464844-132.644531-117.464844 22.367187 0 43.492187 8.804687 59.484375 24.800781 15.996093 15.992188 24.800781 37.117188 24.800781 59.484375v147.203125c0 22.367188-8.804688 43.492188-24.800781 59.484375-15.992188 15.992188-37.117188 24.800781-59.484375 24.800781-22.367188 0-43.492188-8.808593-59.484375-24.800781-15.992188-15.992187-24.800781-37.117187-24.800781-59.484375v-147.203125c0-22.367187 8.804687-43.492187 24.800781-59.484375 15.992187-15.996094 37.117187-24.800781 59.484375-24.800781-120.996094 0-132.644532 117.464844-132.644532 117.464844v114.019531c0 72.957031 59.691407 132.644531 132.644532 132.644531zm0 0" fill="#c6c5ca"/><path d="m257.058594 512h-176.5625c-44.457032 0-80.496094-36.039062-80.496094-80.496094v-78.90625c0-93.214844 75.566406-168.777344 168.777344-168.777344 93.214844 0 168.777344 75.566407 168.777344 168.777344v78.90625c0 44.457032-36.039063 80.496094-80.496094 80.496094zm0 0" fill="#ffeb99"/><path d="m221.875 336.785156c0-30.015625-24.910156-54.214844-55.183594-53.054687-26.761718 1.027343-48.867187 22.28125-50.859375 48.984375-1.296875 17.445312 5.839844 33.261718 17.75 43.8125 7.394531 6.550781 11.507813 16.042968 11.507813 25.921875v22.3125c0 13.027343 10.660156 23.6875 23.6875 23.6875s23.6875-10.660157 23.6875-23.6875v-22.371094c0-10.070313 4.488281-19.5 11.949218-26.257813 10.722657-9.710937 17.460938-23.738281 17.460938-39.347656zm0 0" fill="#acabb1"/><path d="m197.46875 186.25c-9.320312-1.597656-18.917969-2.429688-28.691406-2.429688-93.214844 0-168.777344 75.5625-168.777344 168.777344v78.902344c0 44.460938 36.039062 80.5 80.496094 80.5h59.816406c-68.15625-52.246094-65.578125-178.386719-31.082031-237.53125 44.847656-76.898438 88.238281-88.21875 88.238281-88.21875zm0 0" fill="#ffde55"/><path d="m158.988281 344.636719c-10.234375-22.382813-3.050781-46.429688 3.246094-60.546875-24.714844 3.070312-44.523437 23.421875-46.402344 48.625-1.300781 17.445312 5.835938 33.261718 17.75 43.8125 7.394531 6.550781 11.507813 16.042968 11.507813 25.921875v22.3125c0 13.027343 10.660156 23.6875 23.6875 23.6875s23.6875-10.660157 23.6875-23.6875v-22.371094c0-3.453125.527344-6.835937 1.519531-10.054687-12.070313-16.042969-26.476563-29.0625-34.996094-47.699219zm0 0" fill="#898890"/></svg>