<?xml version="1.0"?>
<svg xmlns="http://www.w3.org/2000/svg" xmlns:xlink="http://www.w3.org/1999/xlink" version="1.1" id="Capa_1" x="0px" y="0px" viewBox="0 0 512.001 512.001" style="enable-background:new 0 0 512.001 512.001;" xml:space="preserve" width="512px" height="512px" class=""><g><g>
	<g>
		<path d="M141.862,171.08c-4.142,0-7.5,3.358-7.5,7.5v18.159c0,4.142,3.358,7.5,7.5,7.5c4.142,0,7.5-3.358,7.5-7.5V178.58    C149.362,174.438,146.004,171.08,141.862,171.08z" data-original="#000000" class="active-path" data-old_color="#000000" fill="#CBCBCB"/>
	</g>
</g><g>
	<g>
		<path d="M342.531,171.08c-4.142,0-7.5,3.358-7.5,7.5v18.159c0,4.142,3.358,7.5,7.5,7.5c4.142,0,7.5-3.358,7.5-7.5V178.58    C350.031,174.438,346.673,171.08,342.531,171.08z" data-original="#000000" class="active-path" data-old_color="#000000" fill="#CBCBCB"/>
	</g>
</g><g>
	<g>
		<path d="M271.896,189.829c-3.119-2.726-7.857-2.408-10.583,0.711c-4.662,5.333-11.63,8.392-19.117,8.392    s-14.455-3.059-19.117-8.392c-2.727-3.119-7.464-3.438-10.583-0.711c-3.119,2.727-3.437,7.464-0.711,10.583    c7.511,8.593,18.595,13.521,30.411,13.521c11.815,0,22.899-4.928,30.411-13.52C275.333,197.293,275.015,192.555,271.896,189.829z" data-original="#000000" class="active-path" data-old_color="#000000" fill="#CBCBCB"/>
	</g>
</g><g>
	<g>
		<path d="M499.21,296.027c-19.581-19.581-32.811-62.867-38.262-125.18c-3.278-37.515-2.77-71.638-2.382-84.962    c8.85-3.033,15.232-11.431,15.232-21.296V50.002c0-12.413-10.098-22.511-22.511-22.511H274.269v-6.773    C274.269,9.294,264.974,0,253.55,0h-22.707c-11.424,0-20.719,9.294-20.719,20.719v6.773H33.105    c-12.413,0-22.511,10.098-22.511,22.511v14.586c0,9.701,6.168,17.988,14.789,21.146c-0.263,9.2,0.222,233.971,0.222,233.971    c-8.735,3.097-15.011,11.438-15.011,21.221v14.587c0,12.412,10.098,22.511,22.511,22.511h66.638l-47.164,111.95    c-2.069,4.911-1.545,10.494,1.402,14.935c2.948,4.44,7.889,7.091,13.218,7.091h30.813c6.397,0,12.136-3.81,14.621-9.706    l52.354-124.27h154.416l52.353,124.27c2.484,5.896,8.223,9.706,14.621,9.706h30.814c5.33,0,10.271-2.651,13.218-7.091    c2.947-4.44,3.472-10.023,1.402-14.935l-47.164-111.95h66.638c12.413,0,22.511-10.099,22.511-22.511v-14.587    c0-9.783-6.275-18.125-15.011-21.221V308.83h35.122c3.034,0,5.768-1.827,6.929-4.63    C501.997,301.397,501.355,298.172,499.21,296.027z M225.124,20.719c0-3.153,2.565-5.719,5.719-5.719h22.707    c3.153,0,5.719,2.565,5.719,5.719v6.773h-34.145V20.719z M98.811,496.47c-0.136,0.322-0.449,0.53-0.797,0.53H67.2    c-0.115,0-0.464,0-0.721-0.387c-0.257-0.387-0.121-0.709-0.077-0.814l49.617-117.774h32.691L98.811,496.47z M417.991,495.799    c0.043,0.105,0.179,0.428-0.078,0.814c-0.256,0.387-0.606,0.387-0.72,0.387h-30.814c-0.349,0-0.662-0.208-0.797-0.529    l-49.9-118.446h32.692L417.991,495.799z M458.799,340.927v14.587c0,4.141-3.369,7.511-7.511,7.511H33.105    c-4.142,0-7.511-3.37-7.511-7.511v-14.587c0-4.142,3.369-7.511,7.511-7.511h418.183    C455.43,333.416,458.799,336.785,458.799,340.927z M401.951,293.828L401.951,293.828c-4.142,0.001-7.5,3.359-7.5,7.501    c0,4.261,3.687,7.762,7.942,7.512c0.055-0.003,0.11-0.007,0.165-0.012h41.229v9.587H40.605v-70.123    c5.89,20.986,13.41,37.632,22.524,49.837c3.155,4.226,6.508,10.699,12.598,10.699h295.609c0.347,0.028,0.7,0.032,1.057,0.012    c3.977-0.234,7.047-3.525,7.06-7.456c0-0.01-0.001-0.021,0-0.056c0-4.038-3.464-7.5-7.5-7.5H78.951    c-0.664-0.74-1.32-1.511-1.968-2.308c-0.736-0.906-1.317-1.954-2.145-2.781c-12.996-17.727-22.689-47.481-28.497-86.95    c-3.134-21.407-4.832-43.01-5.659-64.623C39.832,115,40.091,96.654,40.349,87.1h43.604c4.142,0,7.5-3.358,7.5-7.5    c0-4.142-3.358-7.5-7.5-7.5H33.105c-4.142,0-7.511-3.369-7.511-7.511V50.002c0-4.141,3.369-7.511,7.511-7.511h418.183    c4.142,0,7.511,3.37,7.511,7.511v14.586c0,4.142-3.369,7.511-7.511,7.511H113.953c-4.142,0-7.5,3.358-7.5,7.5    c0,4.142,3.358,7.5,7.5,7.5h329.553c-0.924,32.116-1.702,151.376,34.797,206.729H401.951z" data-original="#000000" class="active-path" data-old_color="#000000" fill="#CBCBCB"/>
	</g>
</g></g> </svg>
