<?xml version="1.0" encoding="iso-8859-1"?>
<!-- Generator: Adobe Illustrator 19.0.0, SVG Export Plug-In . SVG Version: 6.00 Build 0)  -->
<svg version="1.1" id="Capa_1" xmlns="http://www.w3.org/2000/svg" xmlns:xlink="http://www.w3.org/1999/xlink" x="0px" y="0px"
	 viewBox="0 0 511.999 511.999" style="enable-background:new 0 0 511.999 511.999;" xml:space="preserve">
<path style="fill:#E0824A;" d="M83.801,4.595C37.593,4.595,0,42.188,0,88.396s37.593,83.801,83.801,83.801l50.822,20.955
	l81.639-20.955V4.595H83.801z"/>
<path style="fill:#EFEDEE;" d="M471.451,42.44c-25.34,0-45.955,20.616-45.955,45.955s20.616,45.955,45.955,45.955v19.645H190.68
	L155,109.501V56.192l39.877-30.643h276.574V42.44z"/>
<path style="fill:#D2D2D2;" d="M155,56.192v18.456h272.598c5.859-18.644,23.301-32.207,43.853-32.207H172.895L155,56.192z"/>
<path style="fill:#FA9F6A;" d="M471.451,134.352H216.262c-25.34,0-45.955-20.616-45.955-45.955s20.616-45.955,45.955-45.955h255.189
	c10.451,0,18.923-8.472,18.923-18.923s-8.472-18.923-18.923-18.923H216.262c-46.209,0-83.801,37.593-83.801,83.801
	s37.593,83.801,83.801,83.801l128.676,28.114l83.261-28.114h43.252c10.451,0,18.923-8.472,18.923-18.923
	C490.374,142.822,481.902,134.352,471.451,134.352z"/>
<path style="fill:#E36465;" d="M428.199,172.198H295.738v167.603l89.929,27.213l42.531-27.213c46.209,0,83.801-37.593,83.801-83.801
	S474.407,172.198,428.199,172.198z"/>
<path style="fill:#EFEDEE;" d="M40.549,210.044c25.34,0,45.955,20.616,45.955,45.955s-20.616,45.955-45.955,45.955v19.645H321.32
	L357,277.104v-53.31l-39.877-30.643H40.549V210.044z"/>
<path style="fill:#D2D2D2;" d="M84.405,242.259H357v-18.465l-17.884-13.742H40.914C61.31,210.213,78.584,223.721,84.405,242.259z"/>
<path style="fill:#FD6F71;" d="M295.738,172.198H40.549c-10.451,0-18.923,8.472-18.923,18.923c0,10.451,8.472,18.923,18.923,18.923
	h255.189c25.34,0,45.955,20.616,45.955,45.955c0,25.339-20.616,45.955-45.955,45.955H40.549c-10.451,0-18.923,8.472-18.923,18.923
	s8.472,18.923,18.923,18.923h43.252l44.514,27.213l167.423-27.213c46.209,0,83.801-37.593,83.801-83.801
	S341.947,172.198,295.738,172.198z"/>
<path style="fill:#42C3E2;" d="M83.801,507.403C37.593,507.403,0,469.81,0,423.602s37.593-83.801,83.801-83.801h132.461v167.603
	H83.801V507.403z"/>
<path style="fill:#EFEDEE;" d="M471.451,377.646c-25.34,0-45.955,20.616-45.955,45.955c0,25.34,20.616,45.955,45.955,45.955v19.645
	H190.68L155,444.707v-53.31l39.877-30.643h276.574V377.646z"/>
<path style="fill:#D2D2D2;" d="M469.362,377.699H172.826L155,391.398v18.508h272.58C433.223,391.87,449.705,378.583,469.362,377.699
	z"/>
<path style="fill:#6EE3FF;" d="M471.451,507.403H216.262c-46.209,0-83.801-37.593-83.801-83.801s37.593-83.801,83.801-83.801
	h255.189c10.451,0,18.923,8.472,18.923,18.923c0,10.451-8.472,18.923-18.923,18.923H216.262c-25.34,0-45.955,20.616-45.955,45.955
	c0,25.34,20.616,45.955,45.955,45.955h255.189c10.451,0,18.923,8.472,18.923,18.923
	C490.374,498.933,481.902,507.403,471.451,507.403z"/>
<g>
</g>
<g>
</g>
<g>
</g>
<g>
</g>
<g>
</g>
<g>
</g>
<g>
</g>
<g>
</g>
<g>
</g>
<g>
</g>
<g>
</g>
<g>
</g>
<g>
</g>
<g>
</g>
<g>
</g>
</svg>
