<?xml version="1.0"?>
<svg xmlns="http://www.w3.org/2000/svg" height="512px" viewBox="-85 0 512 512" width="512px"><g><path d="m307.570312 245.996094c.007813-.140625.019532-.28125.019532-.429688v-109.308594c0-30.71875-10.082032-59.765624-29.15625-84.007812-2.5625-3.253906-7.28125-3.816406-10.535156-1.257812-3.253907 2.5625-3.816407 7.277343-1.253907 10.535156 16.972657 21.570312 25.945313 47.410156 25.945313 74.730468v92.582032c-9.585938-9.613282-20.308594-18.09375-31.941406-25.230469v-67.351563c0-23.714843-9.328126-46.105468-26.269532-63.046874-16.941406-16.941407-39.332031-26.269532-63.042968-26.269532-23.71875 0-46.105469 9.328125-63.046876 26.269532-16.941406 16.941406-26.269531 39.328124-26.269531 63.046874v67.351563c-11.632812 7.136719-22.355469 15.617187-31.941406 25.230469v-92.582032c-.003906-66.863281 54.394531-121.257812 121.253906-121.257812 26.976563 0 52.5625 8.769531 73.984375 25.363281 3.273438 2.535157 7.984375 1.9375 10.523438-1.335937 2.535156-3.273438 1.9375-7.984375-1.335938-10.523438-24.078125-18.648437-52.839844-28.503906-83.171875-28.503906-75.132812 0-136.257812 61.125-136.257812 136.257812v109.308594c0 .148438.015625.289063.023437.429688-22.003906 28.820312-35.097656 64.792968-35.097656 103.773437v76.589844c0 47.222656 38.417969 85.640625 85.640625 85.640625h171.386719c47.222656 0 85.640625-38.417969 85.640625-85.640625v-76.589844c-.003907-38.980469-13.09375-74.949219-35.097657-103.773437zm-210.554687-109.738282c0-19.707031 7.769531-38.332031 21.878906-52.441406 14.109375-14.105468 32.730469-21.875 52.4375-21.875s38.332031 7.769532 52.441407 21.875c14.105468 14.109375 21.875 32.734375 21.875 52.441406v59.148438c-22.492188-10.871094-47.703126-16.972656-74.316407-16.972656-26.609375 0-51.824219 6.101562-74.316406 16.972656zm230.648437 290.101563c0 38.953125-31.6875 70.640625-70.636718 70.640625h-171.386719c-38.953125 0-70.640625-31.6875-70.640625-70.640625v-76.589844c0-86.203125 70.132812-156.335937 156.332031-156.335937 86.203125 0 156.332031 70.132812 156.332031 156.335937zm0 0" data-original="#000000" class="active-path" data-old_color="#000000" fill="#555555"/><path d="m169.019531 275.421875c-13.699219.527344-26.902343 5.917969-37.179687 15.1875-3.078125 2.773437-3.324219 7.515625-.550782 10.59375 2.773438 3.074219 7.515626 3.320313 10.59375.546875 7.675782-6.921875 17.515626-10.945312 27.710938-11.335938 12.097656-.46875 23.570312 3.894532 32.273438 12.269532 8.710937 8.382812 13.507812 19.652344 13.507812 31.738281 0 12.402344-5.28125 24.296875-14.484375 32.632813-8.9375 8.097656-14.066406 19.414062-14.066406 31.046874v21.71875c0 8.539063-6.949219 15.492188-15.488281 15.492188-8.542969 0-15.496094-6.949219-15.496094-15.492188v-21.660156c0-11.847656-4.992188-23.066406-13.695313-30.777344-10.394531-9.203124-15.761719-22.457031-14.722656-36.355468.203125-2.753906 4.558594-15.003906-3.867187-17.351563-9.167969-2.558593-10.816407 12.527344-11.09375 16.238281-1.386719 18.609376 5.804687 36.359376 19.734374 48.699219 5.496094 4.867188 8.644532 11.992188 8.644532 19.546875v21.660156c0 16.8125 13.679687 30.492188 30.492187 30.492188 16.816407 0 30.492188-13.679688 30.492188-30.492188v-21.71875c0-7.40625 3.328125-14.667968 9.136719-19.925781 12.335937-11.175781 19.410156-27.121093 19.410156-43.753906 0-16.199219-6.429688-31.308594-18.101563-42.542969s-27.027343-17.070312-43.25-16.457031zm0 0" data-original="#000000" class="active-path" data-old_color="#000000" fill="#555555"/></g> </svg>
