<?xml version="1.0" encoding="UTF-8" standalone="no"?>
<!DOCTYPE svg PUBLIC "-//W3C//DTD SVG 1.1//EN" "http://www.w3.org/Graphics/SVG/1.1/DTD/svg11.dtd">
<svg version="1.1" xmlns="http://www.w3.org/2000/svg" xmlns:xlink="http://www.w3.org/1999/xlink" preserveAspectRatio="xMidYMid meet" viewBox="0 0 640 640" width="640" height="640"><defs><path d="M263.64 58.16L265.27 58.33L266.87 58.58L268.45 58.89L270.01 59.27L271.54 59.71L273.05 60.21L274.54 60.77L276 61.4L277.42 62.08L278.82 62.82L280.19 63.62L281.52 64.47L282.82 65.37L284.09 66.32L285.32 67.33L286.51 68.38L287.66 69.48L288.77 70.63L289.84 71.82L290.87 73.06L291.85 74.33L292.79 75.65L293.68 77.01L294.52 78.4L295.32 79.83L296.06 81.29L296.75 82.79L297.39 84.32L297.97 85.88L298.5 87.47L298.97 89.09L299.38 90.74L299.73 92.41L300.02 94.1L300.25 95.82L300.41 97.55L300.51 99.31L300.55 101.09L300.55 266.2L300.62 264.47L300.75 262.75L300.95 261.05L301.21 259.37L301.53 257.72L301.91 256.09L302.34 254.48L302.83 252.9L303.38 251.35L303.98 249.83L304.63 248.34L305.33 246.88L306.08 245.45L306.88 244.06L307.73 242.7L308.62 241.38L309.56 240.1L310.55 238.86L311.57 237.66L312.64 236.5L313.74 235.39L314.89 234.32L316.07 233.29L317.29 232.32L318.55 231.39L319.83 230.51L321.15 229.69L322.51 228.92L323.89 228.2L325.3 227.54L326.74 226.93L328.2 226.38L329.69 225.9L331.2 225.47L332.74 225.1L334.3 224.8L335.88 224.57L337.47 224.4L339.09 224.29L340.72 224.26L341.67 224.26L343.32 224.29L344.96 224.4L346.59 224.58L348.19 224.82L349.77 225.13L351.33 225.51L352.86 225.95L354.37 226.45L355.86 227.02L357.32 227.64L358.74 228.32L360.14 229.06L361.51 229.86L362.84 230.71L364.15 231.61L365.41 232.57L366.64 233.57L367.83 234.62L368.98 235.72L370.1 236.87L371.17 238.06L372.19 239.29L373.18 240.57L374.11 241.89L375 243.24L375.85 244.64L376.64 246.07L377.38 247.53L378.07 249.03L378.71 250.56L379.29 252.12L379.82 253.71L380.29 255.33L380.7 256.97L381.05 258.64L381.34 260.33L381.57 262.05L381.74 263.79L381.84 265.55L381.87 267.32L381.87 281.18L381.9 279.41L382 277.65L382.17 275.91L382.4 274.2L382.69 272.5L383.04 270.83L383.45 269.19L383.92 267.57L384.45 265.98L385.03 264.42L385.67 262.89L386.36 261.39L387.1 259.93L387.89 258.5L388.74 257.1L389.63 255.75L390.56 254.43L391.55 253.16L392.58 251.92L393.65 250.73L394.76 249.59L395.91 248.49L397.1 247.43L398.33 246.43L399.6 245.47L400.9 244.57L402.23 243.72L403.6 242.93L405 242.19L406.43 241.5L407.88 240.88L409.37 240.32L410.88 239.81L412.42 239.37L413.98 239L415.56 238.68L417.16 238.44L418.78 238.26L420.42 238.16L422.08 238.12L422.17 238.12L423.83 238.16L425.47 238.26L427.09 238.44L428.7 238.68L430.28 239L431.84 239.37L433.37 239.81L434.88 240.32L436.37 240.88L437.82 241.5L439.25 242.19L440.65 242.93L442.02 243.72L443.35 244.57L444.65 245.47L445.92 246.43L447.15 247.43L448.34 248.49L449.49 249.59L450.6 250.73L451.67 251.92L452.7 253.16L453.68 254.43L454.62 255.75L455.51 257.1L456.36 258.5L457.15 259.93L457.89 261.39L458.58 262.89L459.22 264.42L459.8 265.98L460.33 267.57L460.8 269.19L461.21 270.83L461.56 272.5L461.85 274.2L462.08 275.91L462.25 277.65L462.35 279.41L462.38 281.18L462.38 303.02L462.41 301.25L462.51 299.49L462.68 297.76L462.91 296.04L463.2 294.35L463.55 292.68L463.96 291.03L464.43 289.41L464.96 287.82L465.54 286.26L466.18 284.73L466.87 283.24L467.61 281.77L468.4 280.34L469.24 278.95L470.13 277.59L471.07 276.28L472.06 275L473.08 273.77L474.15 272.58L475.26 271.43L476.42 270.33L477.61 269.28L478.84 268.27L480.1 267.32L481.4 266.42L482.74 265.57L484.1 264.77L485.5 264.03L486.93 263.35L488.39 262.73L489.87 262.16L491.38 261.66L492.92 261.22L494.48 260.84L496.06 260.53L497.66 260.29L499.28 260.11L500.92 260L502.58 259.97L503.47 259.97L505.13 260L506.76 260.11L508.38 260.29L509.98 260.53L511.56 260.84L513.12 261.21L514.65 261.65L516.16 262.15L517.64 262.72L519.09 263.34L520.52 264.02L521.92 264.75L523.28 265.55L524.62 266.39L525.92 267.29L527.18 268.24L528.41 269.24L529.6 270.29L530.75 271.39L531.86 272.53L532.93 273.72L533.96 274.95L534.94 276.22L535.88 277.53L536.77 278.89L537.62 280.27L538.41 281.7L539.15 283.16L539.85 284.65L540.49 286.18L541.07 287.74L541.6 289.32L542.07 290.94L542.48 292.58L542.84 294.24L543.13 295.93L543.36 297.65L543.53 299.38L543.64 301.13L543.67 302.91L543.69 308.6L543.7 314.05L543.71 319.28L543.72 324.29L543.73 329.1L543.74 333.73L543.74 338.21L543.75 342.53L543.76 346.73L543.76 350.82L543.76 354.81L543.77 358.72L543.77 362.57L543.77 366.37L543.77 370.15L543.77 373.91L543.77 377.68L543.77 381.47L543.77 385.3L543.76 389.19L543.76 393.14L543.76 397.19L543.75 401.34L543.75 405.61L543.74 410.02L543.74 414.59L543.73 419.33L543.72 424.25L543.72 429.39L543.71 434.74L543.7 440.34L543.7 446.19L543.69 452.31L543.68 458.73L543.67 465.45L543.66 472.49L543.66 479.87L543.65 487.61L543.64 495.72L543.63 504.22L543.53 509.08L543.26 513.89L542.8 518.65L542.17 523.35L541.37 527.99L540.4 532.56L539.27 537.07L537.98 541.5L536.54 545.85L534.94 550.12L533.19 554.31L531.29 558.42L529.26 562.42L527.08 566.34L524.77 570.15L522.33 573.86L519.76 577.47L517.06 580.96L514.25 584.34L511.31 587.6L508.27 590.74L505.11 593.75L501.85 596.63L498.48 599.38L495.01 601.99L491.45 604.46L487.79 606.79L484.05 608.97L480.22 610.99L476.3 612.86L472.31 614.57L468.25 616.11L464.11 617.49L459.9 618.7L455.63 619.73L451.3 620.58L446.92 621.25L442.48 621.73L437.98 622.02L433.45 622.12L302.89 622.12L299.9 622.08L296.92 621.95L293.96 621.74L291.01 621.44L288.08 621.05L285.17 620.59L282.28 620.04L279.41 619.41L276.56 618.7L273.74 617.92L270.94 617.05L268.16 616.11L265.42 615.09L262.7 613.99L260.01 612.82L257.36 611.57L254.74 610.25L252.15 608.86L249.6 607.4L247.08 605.86L244.61 604.26L242.17 602.58L239.78 600.84L237.43 599.03L235.12 597.15L232.85 595.21L230.64 593.2L228.47 591.13L226.35 589L224.28 586.8L222.26 584.54L220.29 582.22L218.38 579.84L216.53 577.4L214.73 574.9L212.99 572.35L211.31 569.73L209.69 567.07L208.13 564.34L206.64 561.57L90.24 337.93L102.4 327.85L104.31 326.16L106.27 324.57L108.27 323.08L110.31 321.68L112.38 320.38L114.49 319.18L116.63 318.07L118.8 317.06L121 316.15L123.22 315.33L125.46 314.61L127.72 313.98L129.99 313.44L132.28 313.01L134.57 312.66L136.88 312.41L139.19 312.26L141.5 312.2L143.8 312.23L146.11 312.35L148.41 312.57L150.7 312.89L152.98 313.29L155.25 313.79L157.49 314.38L159.72 315.06L161.93 315.84L164.11 316.71L166.27 317.67L168.39 318.72L170.48 319.86L172.53 321.09L174.55 322.42L176.53 323.83L178.46 325.34L180.34 326.94L182.18 328.62L183.97 330.4L185.7 332.26L187.37 334.22L219.95 373.88L220.13 101.05L220.17 99.28L220.27 97.52L220.43 95.78L220.66 94.07L220.95 92.37L221.31 90.71L221.72 89.06L222.19 87.44L222.72 85.86L223.3 84.3L223.94 82.77L224.63 81.27L225.37 79.81L226.16 78.38L227.01 76.99L227.9 75.63L228.84 74.32L229.82 73.04L230.85 71.81L231.92 70.62L233.03 69.47L234.18 68.37L235.37 67.32L236.6 66.32L237.87 65.36L239.17 64.46L240.5 63.61L241.87 62.82L243.26 62.08L244.69 61.39L246.15 60.77L247.63 60.21L249.14 59.7L250.68 59.26L252.23 58.89L253.81 58.58L255.42 58.33L257.04 58.16L258.68 58.05L260.33 58.01L260.35 58.01L262 58.05L263.64 58.16Z" id="g1Gnt60sMg"></path><path d="M264.75 47.55L266.8 47.77L268.83 48.08L270.83 48.46L272.8 48.93L274.75 49.49L276.67 50.11L278.55 50.82L280.4 51.6L282.21 52.45L283.99 53.38L285.72 54.37L287.42 55.43L289.07 56.56L290.68 57.75L292.25 59L293.77 60.32L295.23 61.69L296.65 63.12L298.01 64.61L299.32 66.15L300.58 67.74L301.77 69.38L302.91 71.08L303.98 72.81L305 74.6L305.95 76.42L306.83 78.29L307.64 80.2L308.39 82.15L309.06 84.13L309.66 86.14L310.19 88.19L310.64 90.28L311.01 92.39L311.3 94.52L311.51 96.69L311.64 98.88L311.68 101.09L311.68 223.47L312.31 223L312.95 222.54L313.59 222.09L314.24 221.65L314.89 221.23L315.56 220.82L316.22 220.41L316.9 220.02L317.58 219.65L318.26 219.28L318.96 218.92L319.65 218.58L320.35 218.25L321.06 217.93L321.77 217.62L322.49 217.32L323.21 217.04L323.94 216.77L324.67 216.51L325.4 216.26L326.14 216.03L326.88 215.8L327.63 215.59L328.38 215.39L329.13 215.21L329.89 215.04L330.64 214.88L331.41 214.73L332.17 214.59L332.94 214.47L333.71 214.36L334.48 214.26L335.25 214.18L336.03 214.1L336.81 214.05L337.59 214L338.37 213.97L339.15 213.95L339.94 213.94L340.72 213.95L341.67 213.95L343.13 213.97L344.59 214.03L346.03 214.14L347.46 214.29L348.88 214.48L350.29 214.72L351.69 214.99L353.07 215.3L354.43 215.65L355.79 216.04L357.13 216.47L358.45 216.93L359.75 217.44L361.04 217.97L362.31 218.55L363.56 219.16L364.8 219.8L366.01 220.48L367.21 221.19L368.39 221.94L369.54 222.71L370.67 223.52L371.78 224.36L372.87 225.23L373.94 226.13L374.98 227.06L376 228.01L376.99 229L377.96 230.01L378.9 231.05L379.81 232.12L380.7 233.21L381.56 234.33L382.4 235.47L383.2 236.64L383.98 237.83L384.72 239.05L385.44 240.28L386.12 241.54L386.77 242.82L387.47 242.1L388.18 241.41L388.91 240.72L389.65 240.06L390.39 239.4L391.16 238.77L391.93 238.15L392.71 237.55L393.51 236.96L394.31 236.39L395.13 235.84L395.95 235.31L396.79 234.79L397.63 234.29L398.49 233.8L399.35 233.33L400.22 232.88L401.1 232.45L401.99 232.04L402.89 231.64L403.79 231.26L404.71 230.9L405.62 230.56L406.55 230.23L407.48 229.93L408.42 229.64L409.37 229.37L410.32 229.12L411.27 228.89L412.24 228.68L413.2 228.48L414.17 228.31L415.15 228.15L416.13 228.02L417.11 227.9L418.1 227.8L419.09 227.73L420.09 227.67L421.08 227.63L422.08 227.61L423.71 227.64L425.32 227.72L426.92 227.86L428.5 228.04L430.07 228.28L431.63 228.57L433.16 228.9L434.69 229.29L436.19 229.72L437.67 230.2L439.14 230.73L440.58 231.3L442 231.92L443.4 232.58L444.78 233.28L446.14 234.03L447.47 234.82L448.77 235.64L450.05 236.51L451.31 237.42L452.54 238.36L453.73 239.34L454.9 240.36L456.05 241.41L457.16 242.5L458.24 243.62L459.29 244.77L460.3 245.96L461.29 247.18L462.24 248.42L463.15 249.7L464.03 251.01L464.87 252.34L465.68 253.7L466.45 255.09L467.18 256.5L467.87 257.94L468.52 259.4L469.13 260.88L469.7 262.39L470.38 261.79L471.07 261.2L471.77 260.62L472.48 260.06L473.2 259.52L473.93 258.99L474.67 258.47L475.41 257.96L476.17 257.47L476.93 257L477.7 256.54L478.48 256.09L479.27 255.66L480.06 255.25L480.86 254.84L481.67 254.46L482.49 254.09L483.31 253.73L484.14 253.39L484.97 253.06L485.81 252.75L486.65 252.46L487.5 252.18L488.36 251.91L489.22 251.66L490.08 251.43L490.95 251.21L491.83 251.01L492.71 250.83L493.59 250.66L494.47 250.5L495.36 250.37L496.26 250.25L497.15 250.14L498.05 250.05L498.95 249.98L499.86 249.93L500.76 249.89L501.67 249.87L502.58 249.87L503.47 249.87L505.56 249.91L507.63 250.04L509.67 250.26L511.69 250.56L513.68 250.95L515.65 251.41L517.59 251.95L519.49 252.58L521.37 253.27L523.21 254.04L525.01 254.89L526.78 255.8L528.5 256.78L530.19 257.83L531.83 258.95L533.43 260.13L534.99 261.37L536.49 262.67L537.95 264.03L539.36 265.45L540.71 266.92L542.01 268.45L543.26 270.03L544.44 271.66L545.57 273.34L546.64 275.06L547.65 276.83L548.59 278.64L549.46 280.5L550.27 282.4L551.01 284.33L551.68 286.3L552.28 288.31L552.81 290.35L553.25 292.42L553.63 294.52L553.92 296.65L554.13 298.81L554.26 300.99L554.31 303.19L554.32 307.34L554.33 311.35L554.34 315.23L554.35 318.99L554.35 322.64L554.36 326.18L554.37 329.62L554.37 332.97L554.38 336.23L554.38 339.4L554.39 342.5L554.39 345.54L554.4 348.51L554.4 351.42L554.4 354.29L554.4 357.11L554.41 359.9L554.41 362.65L554.41 365.39L554.41 368.11L554.41 370.82L554.41 373.52L554.41 376.23L554.41 378.95L554.41 381.68L554.41 384.44L554.4 387.22L554.4 390.05L554.4 392.91L554.4 395.82L554.39 398.79L554.39 401.82L554.39 404.92L554.38 408.09L554.38 411.34L554.38 414.68L554.37 418.12L554.37 421.65L554.36 425.3L554.36 429.05L554.35 430.51L554.35 431.98L554.35 433.47L554.35 434.98L554.35 436.51L554.34 438.06L554.34 439.62L554.34 441.21L554.34 442.81L554.34 444.44L554.33 446.08L554.33 447.75L554.33 449.44L554.33 451.15L554.33 452.88L554.32 454.64L554.32 456.42L554.32 458.22L554.32 460.04L554.32 461.89L554.31 463.76L554.31 465.65L554.31 467.58L554.31 469.52L554.31 471.49L554.3 473.49L554.3 475.51L554.3 477.56L554.3 479.64L554.3 481.74L554.29 483.87L554.29 486.03L554.29 488.22L554.29 490.44L554.28 492.68L554.28 494.96L554.28 497.26L554.28 499.59L554.28 501.96L554.27 504.35L554.17 509.64L553.86 514.88L553.36 520.06L552.67 525.18L551.79 530.23L550.73 535.21L549.49 540.12L548.07 544.95L546.48 549.69L544.72 554.35L542.8 558.92L540.72 563.39L538.48 567.77L536.09 572.04L533.56 576.2L530.88 580.25L528.06 584.19L525.1 588L522.01 591.69L518.79 595.25L515.44 598.68L511.98 601.97L508.4 605.12L504.7 608.13L500.9 610.98L496.99 613.68L492.98 616.23L488.88 618.61L484.68 620.82L480.39 622.86L476.01 624.73L471.56 626.42L467.02 627.93L462.42 629.25L457.74 630.38L453 631.31L448.19 632.04L443.33 632.57L438.41 632.89L433.44 633L302.89 633L299.6 632.95L296.33 632.81L293.07 632.57L289.83 632.24L286.61 631.82L283.41 631.31L280.24 630.71L277.08 630.02L273.95 629.24L270.85 628.37L267.77 627.42L264.72 626.38L261.7 625.26L258.72 624.06L255.77 622.77L252.85 621.4L249.97 619.95L247.13 618.43L244.32 616.82L241.56 615.13L238.84 613.37L236.17 611.53L233.54 609.62L230.95 607.64L228.42 605.58L225.93 603.45L223.5 601.25L221.12 598.98L218.79 596.64L216.52 594.23L214.31 591.75L212.15 589.21L210.06 586.6L208.02 583.93L206.05 581.2L204.15 578.4L202.31 575.54L200.54 572.62L198.83 569.64L197.2 566.6L80.8 342.85L80.63 342.51L80.48 342.18L80.34 341.83L80.21 341.49L80.09 341.14L79.99 340.79L79.9 340.44L79.82 340.09L79.75 339.73L79.7 339.38L79.65 339.02L79.62 338.66L79.6 338.3L79.6 337.95L79.6 337.59L79.62 337.24L79.65 336.88L79.69 336.53L79.75 336.18L79.81 335.83L79.89 335.48L79.97 335.14L80.07 334.8L80.18 334.46L80.31 334.12L80.44 333.79L80.58 333.47L80.74 333.14L80.9 332.83L81.08 332.52L81.27 332.21L81.47 331.91L81.68 331.61L81.9 331.32L82.13 331.04L82.38 330.77L82.63 330.5L82.89 330.24L83.17 329.99L83.45 329.75L95.41 319.83L96.46 318.87L97.52 317.95L98.6 317.04L99.7 316.16L100.81 315.31L101.94 314.47L103.08 313.67L104.24 312.89L105.41 312.13L106.59 311.4L107.79 310.69L109 310.01L110.23 309.35L111.47 308.72L112.71 308.11L113.98 307.53L115.25 306.98L116.53 306.45L117.82 305.95L119.12 305.47L120.43 305.02L121.76 304.6L123.08 304.2L124.42 303.83L125.77 303.49L127.12 303.18L128.48 302.89L129.84 302.63L131.21 302.4L132.59 302.2L133.97 302.02L135.36 301.87L136.75 301.75L138.15 301.66L139.55 301.6L140.95 301.57L142.36 301.56L143.77 301.59L145.18 301.64L146.59 301.72L148.02 301.84L149.46 301.99L150.88 302.17L152.3 302.38L153.71 302.62L155.12 302.88L156.51 303.18L157.9 303.5L159.28 303.85L160.65 304.23L162.02 304.63L163.37 305.06L164.71 305.53L166.04 306.01L167.36 306.53L168.67 307.07L169.97 307.63L171.25 308.23L172.52 308.85L173.78 309.49L175.03 310.16L176.26 310.86L177.48 311.58L178.68 312.32L179.87 313.09L181.04 313.89L182.2 314.71L183.34 315.55L184.46 316.42L185.57 317.31L186.66 318.22L187.73 319.16L188.79 320.12L189.82 321.1L190.84 322.11L191.83 323.14L192.81 324.19L193.77 325.26L194.7 326.35L195.62 327.47L209.39 344.19L209.61 101.04L209.66 98.83L209.79 96.64L210 94.48L210.29 92.35L210.66 90.24L211.11 88.16L211.63 86.11L212.23 84.1L212.9 82.12L213.64 80.17L214.46 78.26L215.33 76.4L216.28 74.57L217.29 72.79L218.36 71.06L219.49 69.37L220.68 67.72L221.93 66.13L223.24 64.59L224.6 63.11L226.01 61.68L227.47 60.31L228.98 58.99L230.54 57.74L232.15 56.55L233.8 55.42L235.49 54.36L237.22 53.37L238.99 52.45L240.8 51.6L242.64 50.82L244.52 50.11L246.43 49.48L248.38 48.93L250.35 48.46L252.35 48.07L254.37 47.77L256.42 47.55L258.49 47.42L260.58 47.37L262.67 47.42L264.75 47.55ZM258.17 68.76L256.98 68.9L255.8 69.08L254.63 69.31L253.48 69.6L252.35 69.93L251.23 70.31L250.13 70.74L249.06 71.21L248 71.72L246.96 72.28L245.95 72.88L244.96 73.52L244 74.2L243.06 74.91L242.14 75.67L241.26 76.46L240.4 77.29L239.57 78.16L238.78 79.05L238.01 79.98L237.28 80.94L236.58 81.93L235.92 82.95L235.29 84L234.69 85.08L234.14 86.18L233.62 87.3L233.15 88.46L232.71 89.63L232.31 90.83L231.96 92.04L231.65 93.28L231.39 94.53L231.17 95.81L231 97.1L230.88 98.4L230.8 99.72L230.77 101.06L230.59 373.88L230.58 374.22L230.57 374.55L230.54 374.89L230.5 375.22L230.46 375.54L230.4 375.87L230.33 376.19L230.26 376.51L230.17 376.82L230.08 377.13L229.97 377.44L229.86 377.74L229.74 378.04L229.61 378.34L229.47 378.63L229.32 378.91L229.16 379.2L229 379.47L228.82 379.74L228.64 380.01L228.45 380.27L228.26 380.52L228.05 380.77L227.84 381.01L227.62 381.25L227.39 381.48L227.16 381.7L226.92 381.92L226.67 382.13L226.42 382.33L226.16 382.52L225.89 382.71L225.61 382.89L225.33 383.06L225.05 383.22L224.76 383.37L224.46 383.52L224.15 383.66L223.85 383.78L223.53 383.9L223.21 384.01L222.89 384.11L222.57 384.2L222.25 384.27L221.92 384.34L221.6 384.39L221.27 384.44L220.95 384.48L220.62 384.5L220.3 384.52L219.97 384.52L219.65 384.52L219.33 384.51L219.01 384.48L218.68 384.45L218.36 384.41L218.05 384.35L217.73 384.29L217.42 384.22L217.11 384.14L216.8 384.05L216.49 383.95L216.19 383.84L215.89 383.72L215.59 383.59L215.3 383.46L215.01 383.31L214.73 383.16L214.45 383L214.17 382.82L213.9 382.64L213.64 382.45L213.38 382.26L213.12 382.05L212.87 381.83L212.63 381.61L212.39 381.38L212.16 381.14L211.94 380.89L211.72 380.63L179.14 340.98L178.51 340.2L177.86 339.44L177.2 338.69L176.52 337.96L175.83 337.24L175.12 336.54L174.4 335.85L173.67 335.18L172.93 334.53L172.17 333.89L171.4 333.27L170.62 332.66L169.83 332.07L169.03 331.5L168.22 330.94L167.39 330.41L166.55 329.88L165.71 329.38L164.85 328.89L163.99 328.42L163.11 327.97L162.23 327.54L161.34 327.12L160.44 326.73L159.53 326.35L158.61 325.99L157.69 325.64L156.75 325.32L155.81 325.02L154.87 324.73L153.91 324.47L152.95 324.22L151.99 323.99L151.02 323.78L150.04 323.6L149.06 323.43L148.07 323.28L147.08 323.15L146.09 323.05L145.09 322.96L144.1 322.9L143.12 322.87L142.15 322.86L141.17 322.86L140.2 322.89L139.22 322.94L138.25 323L137.29 323.09L136.32 323.2L135.36 323.32L134.41 323.47L133.46 323.63L132.51 323.82L131.56 324.02L130.63 324.24L129.69 324.48L128.76 324.74L127.84 325.02L126.93 325.32L126.02 325.63L125.11 325.97L124.22 326.32L123.33 326.69L122.45 327.08L121.58 327.49L120.71 327.92L119.85 328.36L119 328.82L118.17 329.3L117.34 329.8L116.51 330.31L115.7 330.84L114.9 331.39L114.11 331.95L113.33 332.54L112.56 333.14L111.81 333.75L111.06 334.38L110.33 335.03L109.6 335.7L109.59 335.71L109.57 335.73L109.55 335.75L109.54 335.75L109.51 335.78L109.5 335.79L109.48 335.81L109.46 335.83L109.42 335.87L109.39 335.9L109.37 335.91L109.35 335.93L109.33 335.95L109.31 335.97L109.29 335.99L109.28 336L109.25 336.02L109.24 336.03L109.22 336.04L109.2 336.06L109.19 336.07L103.65 340.7L216.08 556.77L217.43 559.28L218.84 561.74L220.3 564.16L221.82 566.52L223.39 568.84L225.02 571.1L226.7 573.31L228.42 575.47L230.2 577.57L232.02 579.62L233.89 581.61L235.81 583.55L237.77 585.43L239.77 587.25L241.81 589.01L243.9 590.71L246.02 592.36L248.18 593.94L250.38 595.46L252.61 596.92L254.88 598.31L257.18 599.64L259.52 600.91L261.88 602.11L264.27 603.24L266.7 604.3L269.14 605.3L271.62 606.23L274.12 607.09L276.64 607.88L279.19 608.59L281.75 609.24L284.34 609.81L286.94 610.31L289.56 610.73L292.2 611.08L294.85 611.35L297.52 611.55L300.2 611.66L302.89 611.7L433.45 611.7L437.54 611.61L441.59 611.35L445.6 610.91L449.55 610.29L453.46 609.52L457.32 608.57L461.11 607.47L464.85 606.21L468.52 604.8L472.12 603.24L475.65 601.54L479.11 599.69L482.5 597.7L485.8 595.58L489.02 593.32L492.15 590.94L495.2 588.43L498.15 585.8L501 583.05L503.75 580.19L506.41 577.22L508.95 574.14L511.39 570.96L513.71 567.67L515.92 564.29L518.01 560.82L519.98 557.25L521.82 553.6L523.54 549.87L525.12 546.05L526.57 542.16L527.88 538.2L529.04 534.17L530.07 530.07L530.94 525.92L531.67 521.7L532.24 517.43L532.65 513.11L532.9 508.73L532.99 504.32L532.99 501.92L532.99 499.56L533 497.23L533 494.92L533 492.65L533 490.4L533.01 488.19L533.01 486L533.01 483.84L533.01 481.7L533.01 479.6L533.02 477.52L533.02 475.47L533.02 473.44L533.02 471.44L533.03 469.47L533.03 467.52L533.03 465.6L533.03 463.7L533.03 461.83L533.04 459.98L533.04 458.15L533.04 456.35L533.04 454.57L533.05 452.81L533.05 451.08L533.05 449.37L533.05 447.68L533.05 446.01L533.06 444.36L533.06 442.73L533.06 441.13L533.06 439.54L533.07 437.97L533.07 436.42L533.07 434.9L533.07 433.39L533.07 431.89L533.08 430.42L533.08 428.97L533.08 425.21L533.09 421.57L533.09 418.04L533.09 414.6L533.1 411.26L533.1 408.01L533.11 404.84L533.11 401.75L533.11 398.72L533.12 395.76L533.12 392.85L533.12 389.98L533.12 387.17L533.12 384.38L533.13 381.63L533.13 378.9L533.13 376.18L533.13 373.48L533.13 370.77L533.13 368.07L533.13 365.35L533.13 362.62L533.12 359.87L533.12 357.08L533.12 354.26L533.12 351.4L533.12 348.48L533.11 345.52L533.11 342.49L533.1 339.39L533.1 336.22L533.09 332.96L533.09 329.62L533.08 326.18L533.07 322.64L533.07 319L533.06 315.24L533.05 311.36L533.04 307.35L533.03 303.21L533 301.88L532.93 300.56L532.8 299.26L532.63 297.98L532.41 296.71L532.15 295.46L531.85 294.23L531.5 293.03L531.11 291.84L530.68 290.68L530.21 289.54L529.7 288.42L529.15 287.33L528.57 286.27L527.95 285.23L527.29 284.22L526.6 283.24L525.88 282.29L525.12 281.38L524.33 280.49L523.51 279.64L522.67 278.83L521.79 278.04L520.89 277.3L519.96 276.59L519 275.92L518.02 275.29L517.02 274.7L515.99 274.16L514.94 273.65L513.87 273.19L512.78 272.77L511.68 272.4L510.55 272.07L509.41 271.8L508.25 271.57L507.08 271.39L505.89 271.26L504.69 271.18L503.47 271.15L502.58 271.15L501.36 271.18L500.16 271.25L498.96 271.38L497.78 271.56L496.61 271.79L495.46 272.06L494.33 272.38L493.21 272.75L492.11 273.16L491.03 273.62L489.96 274.12L488.93 274.66L487.91 275.24L486.91 275.86L485.95 276.52L485 277.22L484.08 277.96L483.19 278.73L482.33 279.54L481.5 280.38L480.7 281.26L479.93 282.17L479.19 283.11L478.49 284.08L477.82 285.08L477.19 286.11L476.59 287.17L476.03 288.26L475.51 289.37L475.03 290.5L474.59 291.66L474.2 292.85L473.84 294.05L473.53 295.28L473.27 296.52L473.05 297.79L472.87 299.07L472.75 300.37L472.67 301.69L472.65 303.02L472.65 328.82L472.64 329.26L472.61 329.69L472.57 330.12L472.51 330.55L472.43 330.96L472.34 331.38L472.23 331.78L472.11 332.18L471.97 332.58L471.81 332.96L471.64 333.34L471.46 333.71L471.26 334.07L471.05 334.43L470.83 334.77L470.59 335.11L470.35 335.43L470.09 335.75L469.81 336.05L469.53 336.35L469.24 336.63L468.93 336.9L468.62 337.16L468.29 337.41L467.96 337.64L467.61 337.87L467.26 338.08L466.9 338.27L466.53 338.46L466.15 338.63L465.76 338.78L465.37 338.92L464.97 339.04L464.56 339.15L464.15 339.25L463.73 339.32L463.31 339.38L462.88 339.43L462.44 339.45L462.01 339.46L461.57 339.45L461.13 339.43L460.7 339.38L460.28 339.32L459.86 339.25L459.45 339.15L459.04 339.04L458.64 338.92L458.25 338.78L457.86 338.63L457.48 338.46L457.11 338.27L456.75 338.08L456.4 337.87L456.06 337.64L455.72 337.41L455.4 337.16L455.08 336.9L454.77 336.63L454.48 336.35L454.2 336.05L453.93 335.75L453.66 335.43L453.42 335.11L453.18 334.77L452.96 334.43L452.75 334.07L452.55 333.71L452.37 333.34L452.2 332.96L452.05 332.58L451.91 332.18L451.78 331.78L451.67 331.38L451.58 330.96L451.5 330.55L451.44 330.12L451.4 329.69L451.37 329.26L451.36 328.82L451.36 281.18L451.34 279.85L451.27 278.53L451.15 277.22L450.99 275.93L450.78 274.66L450.52 273.4L450.23 272.17L449.89 270.95L449.51 269.75L449.09 268.58L448.63 267.43L448.13 266.3L447.6 265.2L447.03 264.12L446.42 263.07L445.77 262.05L445.1 261.06L444.39 260.1L443.64 259.17L442.87 258.27L442.06 257.41L441.23 256.58L440.37 255.78L439.47 255.03L438.56 254.31L437.61 253.63L436.64 252.99L435.65 252.39L434.63 251.83L433.59 251.32L432.53 250.85L431.45 250.42L430.34 250.04L429.22 249.71L428.08 249.42L426.93 249.19L425.76 249L424.57 248.87L423.36 248.79L422.15 248.76L420.93 248.79L419.72 248.87L418.52 249L417.34 249.19L416.18 249.42L415.04 249.71L413.91 250.04L412.8 250.42L411.72 250.85L410.65 251.32L409.6 251.83L408.58 252.39L407.59 252.99L406.61 253.63L405.67 254.31L404.74 255.03L403.85 255.78L402.98 256.58L402.15 257.41L401.34 258.27L400.56 259.17L399.82 260.1L399.11 261.06L398.43 262.05L397.78 263.07L397.17 264.12L396.6 265.2L396.06 266.3L395.57 267.43L395.11 268.58L394.68 269.75L394.31 270.95L393.97 272.17L393.67 273.4L393.42 274.66L393.21 275.93L393.04 277.22L392.93 278.53L392.85 279.85L392.83 281.18L392.83 331.68L392.82 332.12L392.8 332.55L392.75 332.98L392.69 333.41L392.61 333.82L392.52 334.24L392.41 334.64L392.29 335.04L392.15 335.44L391.99 335.82L391.83 336.2L391.64 336.57L391.45 336.93L391.24 337.29L391.01 337.63L390.78 337.97L390.53 338.29L390.27 338.61L390 338.91L389.71 339.21L389.42 339.49L389.11 339.76L388.8 340.02L388.47 340.27L388.14 340.5L387.79 340.73L387.44 340.94L387.08 341.13L386.71 341.32L386.33 341.48L385.94 341.64L385.55 341.78L385.15 341.9L384.75 342.01L384.33 342.1L383.91 342.18L383.49 342.24L383.06 342.29L382.63 342.31L382.19 342.32L381.75 342.31L381.32 342.29L380.89 342.24L380.46 342.18L380.04 342.1L379.63 342.01L379.22 341.9L378.82 341.78L378.43 341.64L378.05 341.48L377.67 341.32L377.3 341.13L376.94 340.94L376.58 340.73L376.24 340.5L375.9 340.27L375.58 340.02L375.26 339.76L374.96 339.49L374.66 339.21L374.38 338.91L374.11 338.61L373.85 338.29L373.6 337.97L373.36 337.63L373.14 337.29L372.93 336.93L372.73 336.57L372.55 336.2L372.38 335.82L372.23 335.44L372.09 335.04L371.96 334.64L371.86 334.24L371.76 333.82L371.69 333.41L371.62 332.98L371.58 332.55L371.55 332.12L371.55 331.68L371.55 267.32L371.52 265.99L371.45 264.67L371.32 263.36L371.15 262.08L370.93 260.81L370.67 259.56L370.36 258.33L370 257.12L369.61 255.93L369.17 254.77L368.69 253.62L368.17 252.51L367.62 251.41L367.02 250.35L366.39 249.31L365.72 248.3L365.02 247.32L364.29 246.37L363.52 245.46L362.72 244.57L361.89 243.72L361.03 242.9L360.14 242.12L359.23 241.38L358.28 240.67L357.32 240L356.32 239.37L355.31 238.78L354.27 238.24L353.21 237.73L352.13 237.27L351.03 236.85L349.92 236.48L348.78 236.16L347.63 235.88L346.46 235.65L345.28 235.47L344.09 235.34L342.88 235.26L341.67 235.23L340.72 235.23L339.54 235.26L338.36 235.33L337.2 235.46L336.05 235.64L334.92 235.86L333.8 236.13L332.69 236.44L331.61 236.81L330.54 237.21L329.49 237.66L328.46 238.15L327.45 238.68L326.46 239.25L325.5 239.86L324.56 240.51L323.64 241.2L322.75 241.92L321.89 242.68L321.06 243.47L320.25 244.3L319.47 245.16L318.73 246.05L318.01 246.97L317.33 247.92L316.69 248.9L316.07 249.91L315.5 250.94L314.96 252L314.45 253.09L313.99 254.2L313.56 255.33L313.18 256.48L312.84 257.66L312.54 258.85L312.28 260.07L312.07 261.3L311.9 262.55L311.78 263.81L311.71 265.09L311.68 266.39L311.68 338.4L311.67 338.84L311.65 339.27L311.6 339.7L311.54 340.12L311.47 340.54L311.37 340.95L311.26 341.36L311.14 341.76L311 342.15L310.85 342.54L310.68 342.92L310.49 343.29L310.3 343.65L310.09 344L309.87 344.35L309.63 344.68L309.38 345.01L309.12 345.32L308.85 345.63L308.57 345.92L308.27 346.21L307.97 346.48L307.65 346.74L307.33 346.99L306.99 347.22L306.65 347.44L306.29 347.65L305.93 347.85L305.56 348.03L305.18 348.2L304.8 348.36L304.4 348.5L304 348.62L303.6 348.73L303.19 348.82L302.77 348.9L302.34 348.96L301.91 349L301.48 349.03L301.04 349.04L300.6 349.03L300.17 349L299.74 348.96L299.31 348.9L298.9 348.82L298.48 348.73L298.08 348.62L297.68 348.5L297.28 348.36L296.9 348.2L296.52 348.03L296.15 347.85L295.79 347.65L295.43 347.44L295.09 347.22L294.76 346.99L294.43 346.74L294.11 346.48L293.81 346.21L293.52 345.92L293.23 345.63L292.96 345.32L292.7 345.01L292.45 344.68L292.22 344.35L291.99 344L291.78 343.65L291.59 343.29L291.4 342.92L291.23 342.54L291.08 342.15L290.94 341.76L290.82 341.36L290.71 340.95L290.61 340.54L290.54 340.12L290.48 339.7L290.43 339.27L290.41 338.84L290.4 338.4L290.4 267.82L290.4 267.81L290.4 267.8L290.4 267.79L290.4 267.77L290.4 267.75L290.4 267.73L290.4 267.72L290.39 267.71L290.39 267.68L290.39 267.66L290.39 267.64L290.39 267.62L290.39 267.58L290.38 267.55L290.38 267.52L290.38 267.5L290.38 267.48L290.38 267.45L290.38 267.43L290.38 267.41L290.37 267.4L290.37 267.39L290.37 267.36L290.37 267.35L290.37 267.34L290.37 267.32L290.37 267.31L290.37 267.28L290.37 267.25L290.37 267.22L290.37 267.19L290.37 267.16L290.37 267.13L290.37 267.1L290.38 267.07L290.38 267.04L290.38 267.01L290.38 266.98L290.38 266.95L290.38 266.92L290.38 266.89L290.38 266.86L290.38 266.83L290.38 266.77L290.38 266.74L290.39 266.68L290.39 266.65L290.39 266.59L290.39 266.56L290.39 266.5L290.39 266.47L290.39 266.44L290.39 266.41L290.39 266.38L290.4 266.35L290.4 266.32L290.4 266.29L290.4 266.26L290.4 266.23L290.4 266.2L290.4 266.17L290.4 266.14L290.4 266.11L290.4 101.09L290.37 99.75L290.3 98.43L290.17 97.12L290 95.83L289.79 94.56L289.52 93.3L289.21 92.06L288.86 90.85L288.47 89.65L288.03 88.48L287.56 87.32L287.04 86.2L286.49 85.09L285.89 84.02L285.27 82.97L284.6 81.95L283.9 80.95L283.17 79.99L282.4 79.06L281.61 78.17L280.78 77.3L279.92 76.47L279.04 75.68L278.13 74.92L277.19 74.2L276.22 73.52L275.23 72.88L274.22 72.28L273.18 71.72L272.13 71.21L271.05 70.74L269.95 70.31L268.84 69.93L267.7 69.6L266.55 69.32L265.39 69.08L264.21 68.9L263.01 68.76L261.81 68.68L260.59 68.66L259.37 68.68L258.17 68.76Z" id="a41n5jYdLE"></path><path d="M268 0.32L271.83 0.7L275.62 1.24L279.35 1.93L283.04 2.76L286.67 3.73L290.24 4.84L293.75 6.09L297.19 7.47L300.57 8.98L303.87 10.61L307.11 12.36L310.26 14.24L313.33 16.23L316.33 18.34L319.23 20.55L322.05 22.88L324.77 25.31L327.4 27.84L329.93 30.46L332.36 33.19L334.68 36L336.9 38.91L339 41.9L341 44.98L342.87 48.13L344.63 51.36L346.26 54.67L347.77 58.04L349.14 61.49L350.39 65L351.5 68.57L352.47 72.2L353.3 75.88L353.99 79.62L354.53 83.41L354.92 87.24L355.15 91.12L355.23 95.04L355.23 95.48L355.2 95.91L355.16 96.34L355.1 96.76L355.02 97.18L354.93 97.59L354.82 98L354.69 98.4L354.55 98.79L354.4 99.18L354.23 99.56L354.05 99.93L353.85 100.29L353.64 100.64L353.42 100.99L353.18 101.32L352.93 101.65L352.67 101.96L352.4 102.27L352.12 102.56L351.82 102.85L351.52 103.12L351.2 103.38L350.88 103.63L350.54 103.86L350.2 104.09L349.85 104.3L349.48 104.49L349.11 104.67L348.74 104.84L348.35 105L347.96 105.14L347.56 105.26L347.15 105.37L346.74 105.46L346.32 105.54L345.89 105.6L345.47 105.64L345.03 105.67L344.59 105.68L344.15 105.67L343.72 105.64L343.29 105.6L342.87 105.54L342.45 105.46L342.03 105.37L341.63 105.26L341.23 105.14L340.84 105L340.45 104.84L340.07 104.67L339.7 104.49L339.34 104.3L338.99 104.09L338.64 103.86L338.31 103.63L337.98 103.38L337.67 103.12L337.36 102.85L337.07 102.56L336.78 102.27L336.51 101.96L336.25 101.65L336 101.32L335.77 100.99L335.54 100.64L335.33 100.29L335.14 99.93L334.95 99.56L334.79 99.18L334.63 98.79L334.49 98.4L334.37 98L334.26 97.59L334.17 97.18L334.09 96.76L334.03 96.34L333.98 95.91L333.96 95.48L333.95 95.04L333.89 92L333.71 88.99L333.4 86.01L332.98 83.07L332.45 80.17L331.81 77.31L331.05 74.5L330.19 71.73L329.22 69L328.15 66.33L326.98 63.71L325.72 61.14L324.36 58.63L322.9 56.19L321.35 53.8L319.72 51.48L318 49.22L316.2 47.04L314.31 44.93L312.35 42.89L310.31 40.92L308.2 39.04L306.01 37.23L303.76 35.51L301.43 33.88L299.05 32.33L296.6 30.88L294.09 29.52L291.53 28.25L288.91 27.08L286.23 26.01L283.51 25.04L280.74 24.18L277.92 23.43L275.06 22.78L272.16 22.25L269.23 21.83L266.25 21.53L263.24 21.35L260.2 21.28L257.16 21.35L254.15 21.53L251.18 21.83L248.24 22.25L245.34 22.78L242.48 23.43L239.66 24.18L236.89 25.04L234.17 26.01L231.49 27.08L228.87 28.25L226.31 29.52L223.8 30.88L221.35 32.33L218.96 33.88L216.64 35.51L214.39 37.23L212.2 39.04L210.09 40.92L208.05 42.89L206.09 44.93L204.2 47.04L202.4 49.22L200.68 51.48L199.04 53.8L197.5 56.19L196.04 58.63L194.68 61.14L193.41 63.71L192.24 66.33L191.18 69L190.21 71.73L189.35 74.5L188.59 77.31L187.95 80.17L187.41 83.07L187 86.01L186.69 88.99L186.51 92L186.45 95.04L186.44 95.48L186.41 95.91L186.37 96.34L186.31 96.76L186.23 97.18L186.14 97.59L186.03 98L185.91 98.4L185.77 98.79L185.61 99.18L185.44 99.56L185.26 99.93L185.06 100.29L184.85 100.64L184.63 100.99L184.4 101.32L184.15 101.65L183.89 101.96L183.61 102.27L183.33 102.56L183.04 102.85L182.73 103.12L182.42 103.38L182.09 103.63L181.76 103.86L181.41 104.09L181.06 104.3L180.7 104.49L180.33 104.67L179.95 104.84L179.56 105L179.17 105.14L178.77 105.26L178.36 105.37L177.95 105.46L177.53 105.54L177.11 105.6L176.68 105.64L176.25 105.67L175.81 105.68L175.37 105.67L174.93 105.64L174.5 105.6L174.08 105.54L173.66 105.46L173.25 105.37L172.84 105.26L172.44 105.14L172.05 105L171.66 104.84L171.29 104.67L170.92 104.49L170.55 104.3L170.2 104.09L169.86 103.86L169.52 103.63L169.2 103.38L168.88 103.12L168.58 102.85L168.28 102.56L168 102.27L167.73 101.96L167.47 101.65L167.22 101.32L166.98 100.99L166.76 100.64L166.55 100.29L166.35 99.93L166.17 99.56L166 99.18L165.85 98.79L165.71 98.4L165.58 98L165.47 97.59L165.38 97.18L165.3 96.76L165.24 96.34L165.2 95.91L165.17 95.48L165.16 95.04L165.24 91.12L165.48 87.24L165.87 83.41L166.41 79.62L167.09 75.88L167.93 72.2L168.9 68.57L170.01 65L171.25 61.49L172.63 58.04L174.14 54.67L175.77 51.36L177.53 48.13L179.4 44.98L181.39 41.9L183.5 38.91L185.72 36L188.04 33.19L190.47 30.46L193 27.84L195.63 25.31L198.35 22.88L201.17 20.55L204.07 18.34L207.06 16.23L210.14 14.24L213.29 12.36L216.53 10.61L219.83 8.98L223.21 7.47L226.65 6.09L230.16 4.84L233.73 3.73L237.36 2.76L241.05 1.93L244.79 1.24L248.57 0.7L252.41 0.32L256.28 0.08L260.2 0L264.12 0.08L268 0.32Z" id="a4TvG9lrku"></path></defs><g><g><g><use xlink:href="#g1Gnt60sMg" opacity="1" fill="#f7caa5" fill-opacity="1"></use><g><use xlink:href="#g1Gnt60sMg" opacity="1" fill-opacity="0" stroke="#000000" stroke-width="1" stroke-opacity="0"></use></g></g><g><use xlink:href="#a41n5jYdLE" opacity="1" fill="#666666" fill-opacity="1"></use><g><use xlink:href="#a41n5jYdLE" opacity="1" fill-opacity="0" stroke="#000000" stroke-width="1" stroke-opacity="0"></use></g></g><g><use xlink:href="#a4TvG9lrku" opacity="1" fill="#fedb41" fill-opacity="1"></use><g><use xlink:href="#a4TvG9lrku" opacity="1" fill-opacity="0" stroke="#000000" stroke-width="1" stroke-opacity="0"></use></g></g></g></g></svg>