<?xml version="1.0" encoding="iso-8859-1"?>
<!-- Generator: Adobe Illustrator 19.0.0, SVG Export Plug-In . SVG Version: 6.00 Build 0)  -->
<svg version="1.1" id="Layer_1" xmlns="http://www.w3.org/2000/svg" xmlns:xlink="http://www.w3.org/1999/xlink" x="0px" y="0px"
	 viewBox="0 0 512 512" style="enable-background:new 0 0 512 512;" xml:space="preserve">
<path style="fill:#CC894F;" d="M448.205,225.75c0,0,1.001-73.644-30.833-120.212c-4.557-6.665-14.328-6.859-19.043-0.303
	c-8.215,11.421-20.442,29.97-30.188,51.272c-22.421,49.011,31.771,98.341,77.983,70.531
	C446.818,226.619,447.512,226.191,448.205,225.75z"/>
<g>
	<path style="fill:#825732;" d="M366.06,394.174l-26.607,58.747l13.666,2.902c1.793,0.38,3.075,1.962,3.075,3.792v9.843
		c0,2.141-1.738,3.878-3.882,3.878h-50.099c-5.261,0-8.999-5.116-7.394-10.12l18.464-74L366.06,394.174z"/>
	<path style="fill:#825732;" d="M184.505,400.902l5.697,68.873c0.166,2.01,1.848,3.558,3.869,3.558h54.166
		c2.144,0,3.882-1.736,3.882-3.878v-10.756c0-1.783-1.217-3.335-2.95-3.764l-26.832-3.148l15.69-60.095L184.505,400.902z"/>
</g>
<path style="fill:#FBB071;" d="M152.534,320.093v16.271c0,0-86.758,5.14-135.528-85.313C5.104,228.978,0.361,205.1,0.02,181.544
	c-0.9-62.635,29.347-122.941,38.984-140.527c1.433-2.614,5.02-3.023,6.997-0.791c11.434,12.91,43.426,54.781,51.59,126.861v0.01
	c1.671,14.768,2.345,30.8,1.639,48.107C95.525,305.709,152.534,320.093,152.534,320.093z"/>
<path style="fill:#CC894F;" d="M38.329,251.053c-11.901-22.073-16.644-45.951-16.987-69.508
	C20.576,128.096,42.485,76.35,54.918,51.391c-3.55-4.866-6.645-8.597-8.917-11.165c-1.977-2.232-5.564-1.823-6.997,0.791
	C29.367,58.604-0.88,118.908,0.02,181.544c0.343,23.556,5.084,47.434,16.987,69.508c48.77,90.453,135.528,85.313,135.528,85.313
	v-1.525C123.686,330.354,71.971,313.448,38.329,251.053z"/>
<path style="fill:#F2E5CB;" d="M97.592,167.086l-23.1-9.966c-2.016-0.872-4.354-0.097-5.443,1.799l-13.215,22.885
	c-1.314,2.284-4.376,2.856-6.434,1.207l-22.485-18.037c-1.476-1.185-3.536-1.271-5.098-0.227c-0.087,0.053-0.162,0.119-0.237,0.172
	L0.022,181.544c-0.906-62.879,29.577-123.41,39.095-140.735c1.229-2.23,4.074-2.791,6.036-1.368c0.01,0,0.022,0,0.022,0.01
	c0.302,0.259,0.517,0.464,0.669,0.604c0.075,0.074,0.13,0.13,0.162,0.171c0.14,0.162,0.292,0.324,0.442,0.496
	c0.528,0.624,1.121,1.314,1.746,2.057c0.399,0.464,0.809,0.959,1.239,1.476c0.27,0.334,0.539,0.668,0.809,1.024
	c0.237,0.292,0.485,0.603,0.734,0.915c1.239,1.552,2.555,3.287,3.944,5.193C69.222,70.999,91.049,109.356,97.592,167.086z"/>
<path style="fill:#D1C1A1;" d="M54.919,51.39c-11.114,22.336-29.836,66.113-33.102,113.358c-0.087,0.053-0.162,0.119-0.237,0.172
	L0.021,181.544c-0.905-62.879,29.578-123.41,39.096-140.735c1.229-2.23,4.074-2.791,6.036-1.368c0.01,0,0.022,0,0.022,0.01
	c0.302,0.259,0.517,0.464,0.669,0.604c0.075,0.074,0.13,0.13,0.162,0.171c0.14,0.162,0.292,0.324,0.442,0.496
	c0.55,0.624,1.132,1.314,1.746,2.057c0.399,0.464,0.809,0.959,1.239,1.476c0.27,0.334,0.539,0.668,0.809,1.024
	c0.237,0.292,0.485,0.603,0.734,0.915C52.213,47.748,53.528,49.483,54.919,51.39z"/>
<path style="fill:#FBB071;" d="M512,247.083l-2.802,10.045c-4.149,10.216-19.746,13.972-21.935,14.112
	c0,0-10.23,0.764-15.759,10.788l-35.021,3.37c-0.087,0.14-0.172,0.29-0.27,0.429c-6.025,9.722-13.43,46.334-45.768,79.869
	c-8.472,8.784,24.479,83.195,24.479,83.195c0.625,1.293,1.898,2.141,3.309,2.196l15.252,0.731c2.08,0.097,3.708,1.797,3.708,3.876
	v13.769c0,2.132-1.746,3.877-3.881,3.877h-41.898c-2.468,0-4.808-1.185-6.274-3.176l-15.899-21.67
	c-11.156-15.191-29.351-45.581-48.203-45.581H147.058c-7.912,12.875-16.416,44.977-17.333,49.359l32.563,2.487
	c2.058,0.366,3.449,2.303,3.137,4.37l-1.616,10.906c-0.28,1.894-1.918,3.305-3.848,3.305H85.058c-2.145,0-3.881-1.744-3.881-3.877
	v-56.463c0,0-10.725-156.582,106.776-156.582l142.304-2.024l25.266-12.294c-18.173-7.149-33.091-23.038-36.54-46.291
	c-3.664-24.782-3.504-48.52-2.792-63.549c0.41-8.612,9.291-14.124,17.258-10.788c50.51,21.101,89.767,77.877,96.644,88.266
	l14.843,0.13c7.286,0.053,14.228,3.1,19.176,8.44l3.719,3.994c10.445,11.228,24.468,18.527,39.699,20.637l0.647,0.043
	C510.319,243.153,511.978,244.93,512,247.083z"/>
<g>
	<path style="fill:#CC894F;" d="M150.924,453.89c-0.014,0.065-0.032,0.146-0.044,0.202l12.306,0.955
		c-0.283-0.128-0.579-0.233-0.898-0.289L150.924,453.89z"/>
	<path style="fill:#CC894F;" d="M102.332,471.556V414.2c0,0-9.644-143.259,89.83-157.843l-4.209,0.06
		c-117.501,0-106.776,156.582-106.776,156.582v56.464c0,2.132,1.736,3.877,3.881,3.877h17.715
		C102.5,472.799,102.332,472.199,102.332,471.556z"/>
</g>
<path style="fill:#F2E5CB;" d="M437.194,455.69v13.77c0,2.133-1.746,3.879-3.88,3.879h-41.898c-2.468,0-4.808-1.185-6.274-3.179
	l-15.899-21.667c-11.156-15.193-29.351-45.576-48.203-45.576H181.884c9.399-14.362,28.812-34.521,60.104-34.521h88.948
	c16.928,0,32.979-7.494,43.848-20.466c8.965-10.7,19.746-24.775,28.933-40.207c6.173-10.371,16.263-17.821,27.979-20.732
	l4.495-1.117c-6.025,9.783-13.452,46.33-45.746,79.817c-8.472,8.792,24.479,83.2,24.479,83.2c0.625,1.294,1.898,2.144,3.309,2.198
	l15.252,0.733C435.567,451.919,437.194,453.621,437.194,455.69z"/>
<path style="fill:#D1C1A1;" d="M406.298,472.267l-15.899-22.013c-11.156-15.43-29.351-46.302-48.203-46.302h-15.027
	c16.603,5.419,32.134,31.004,42.075,44.539l15.899,21.671c1.466,1.991,3.804,3.175,6.274,3.175h15.836
	C406.908,473.01,406.582,472.659,406.298,472.267z"/>
<path style="fill:#F2E5CB;" d="M378.134,224.853c-15.918-0.002-34.544-10.079-37.822-32.2c-2.42-16.334-3.054-32.26-2.969-45.303
	c30.768,17.429,56.241,48.643,68.219,64.952c-9.252,11.162-21.785,12.55-27.424,12.55
	C378.136,224.853,378.135,224.853,378.134,224.853z"/>
<circle style="fill:#825732;" cx="449.724" cy="235.07" r="8.084"/>
<g>
</g>
<g>
</g>
<g>
</g>
<g>
</g>
<g>
</g>
<g>
</g>
<g>
</g>
<g>
</g>
<g>
</g>
<g>
</g>
<g>
</g>
<g>
</g>
<g>
</g>
<g>
</g>
<g>
</g>
</svg>
