<?xml version="1.0" encoding="UTF-8" standalone="no"?>
<!DOCTYPE svg PUBLIC "-//W3C//DTD SVG 1.1//EN" "http://www.w3.org/Graphics/SVG/1.1/DTD/svg11.dtd">
<svg version="1.1" xmlns="http://www.w3.org/2000/svg" xmlns:xlink="http://www.w3.org/1999/xlink" preserveAspectRatio="xMidYMid meet" viewBox="0 0 640 640" width="640" height="640"><defs><path d="M384 496L384 400C400.31 416.31 409.38 425.38 411.19 427.19C424.67 440.67 446.52 440.67 460 427.19C461.35 425.85 462.58 424.39 463.68 422.85C473.19 409.54 472.05 391.39 460.96 379.37C454.43 372.3 402.23 315.75 395.71 308.68C388.15 300.49 377.93 295.24 366.88 293.86C363.75 293.47 348.13 291.52 320 288L320 208L240 208L240 288C215.53 291.06 201.94 292.76 199.22 293.1C184.22 294.98 170.38 302.1 160.13 313.2C149.8 324.15 67.13 411.74 56.79 422.68C51.15 428.67 48 436.58 48 444.81C48 445.35 48 449.64 48 450.18C48 463.36 56.03 475.21 68.26 480.11C80.24 484.89 93.91 482.09 103.03 472.97C107.9 468.1 132.22 443.78 176 400L176 496L384 496Z" id="bDzY1yaQ3"></path><path d="M320 208L240 208C240 243.91 240 263.87 240 267.86C264.21 284.04 295.79 284.04 320 267.86C320 259.88 320 239.92 320 208Z" id="dIfU3bjbD"></path><path d="M446.38 363.58L399.58 415.58L384 400L384 496L176 496L176 400L160.42 415.58L113.11 363.01C141.32 333.12 157 316.51 160.13 313.19C170.38 302.09 184.23 294.97 199.22 293.1C201.7 292.79 221.52 290.31 224 290C224 319.82 248.18 344 278 344C278.4 344 281.6 344 282 344C311.82 344 336 319.82 336 290C339.09 290.39 363.79 293.47 366.88 293.86C377.94 295.24 388.15 300.49 395.71 308.68C402.47 316 419.36 334.3 446.38 363.58Z" id="dq1jvyAcc"></path><path d="M352 192C352 231.76 319.76 264 280 264C240.24 264 208 231.76 208 192C208 184.8 208 127.2 208 120C208 84.65 236.65 56 272 56C273.6 56 286.4 56 288 56C323.35 56 352 84.65 352 120C352 134.4 352 184.8 352 192Z" id="dsRZcPmBE"></path><path d="M352 192C351.98 231.79 319.71 264.02 279.92 264C273.18 264 266.47 263.05 260 261.18C290.8 252.26 312 224.06 312 192C312 184 312 120 312 112C312.02 92.9 304.43 74.58 290.91 61.09C289.12 59.29 287.23 57.59 285.25 56C285.53 56 287.73 56 288 56C323.35 56 352 84.65 352 120C352 134.4 352 184.8 352 192Z" id="hLGF8dY9B"></path><path d="M352 134.42C340.18 128.52 330.59 118.93 324.69 107.11C324.22 106.17 320.47 98.68 320 97.74C317.12 101.34 314.01 104.75 310.68 107.94C290.83 127.06 264.34 137.74 236.78 137.74C234.86 137.74 225.27 137.74 208 137.74C208 127.1 208 121.18 208 120C208 84.65 236.65 56 272 56C273.6 56 286.4 56 288 56C323.35 56 352 84.65 352 120C352 122.88 352 132.98 352 134.42Z" id="bS4AUFWoW"></path><path d="M352 128C336.63 122.88 323.93 111.86 316.69 97.37C316.22 96.43 312.47 88.94 312 88C309.12 91.6 306.01 95.01 302.68 98.2C287.33 112.98 267.91 122.82 246.92 126.45C241.51 127.38 236.04 127.89 230.55 127.98C229.96 128 229.37 128 228.78 128C227.39 128 220.47 128 208 128C208 123.2 208 120.53 208 120C208 84.65 236.65 56 272 56C273.6 56 286.4 56 288 56C323.35 56 352 84.65 352 120C352 121.6 352 127.2 352 128Z" id="b4ktYCsx9M"></path><path d="M244 144C237.37 144 232 149.37 232 156C232 162.63 237.37 168 244 168C250.63 168 256 162.63 256 156C256 149.37 250.63 144 244 144Z" id="eIronzw8T"></path><path d="M316 144C309.37 144 304 149.37 304 156C304 162.63 309.37 168 316 168C322.63 168 328 162.63 328 156C328 149.37 322.63 144 316 144Z" id="c6WOZoSIb"></path><path d="M192 480C192 488.84 184.84 496 176 496C168 496 104 496 96 496C87.16 496 80 488.84 80 480C80 465.6 80 350.4 80 336C80 327.16 87.16 320 96 320C104 320 168 320 176 320C184.83 319.99 191.99 327.15 192 335.98C192 335.99 192 335.99 192 336C192 364.8 192 465.6 192 480Z" id="c2AmE8Fv4D"></path><path d="M192 480C192 488.84 184.84 496 176 496C168 496 104 496 96 496C87.16 496 80 488.84 80 480C80 478.9 80 470.13 80 469.03C120.16 435.89 158.3 388.86 184.07 322.18C188.98 325.05 192 330.31 192 336C192 364.8 192 465.6 192 480Z" id="o2Lny2o8Z"></path><path d="M136 408C118.33 408 104 422.33 104 440C104 457.67 118.33 472 136 472C153.67 472 168 457.67 168 440C168 422.33 153.67 408 136 408Z" id="a1h98R7uJu"></path><path d="M160 344C165.33 344 168 346.67 168 352C168 371.2 168 381.87 168 384C168 389.33 165.33 392 160 392C131.2 392 115.2 392 112 392C106.67 392 104 389.33 104 384C104 364.8 104 354.13 104 352C104 346.67 106.67 344 112 344C140.8 344 156.8 344 160 344Z" id="c1xva82r"></path><path d="M112 344C107.58 344 104 347.58 104 352C104 353.6 104 366.4 104 368C104 363.58 107.58 360 112 360C116.8 360 155.2 360 160 360C164.42 360 168 363.58 168 368C168 366.4 168 353.6 168 352C168 347.58 164.42 344 160 344C150.4 344 116.8 344 112 344Z" id="cNkD1653z"></path><path d="M40 496L40 416C73.6 416 92.27 416 96 416C104.84 416 112 423.16 112 432C112 436.8 112 475.2 112 480C112 488.84 104.84 496 96 496C88.53 496 69.87 496 40 496Z" id="e4tfjeOsWL"></path><path d="M64 416C72.84 416 80 423.16 80 432C80 436.8 80 475.2 80 480C80 488.84 72.84 496 64 496C67.2 496 92.8 496 96 496C104.84 496 112 488.84 112 480C112 475.2 112 436.8 112 432C112 423.16 104.84 416 96 416C89.6 416 67.2 416 64 416Z" id="do49uiV9p"></path><path d="M256 200L256 216C264.93 216 269.9 216 270.89 216C284.79 216 297.98 212.77 308.03 206.91C307.22 205.53 300.78 194.47 299.97 193.09C292.44 197.48 281.84 200 270.89 200C268.91 200 263.94 200 256 200Z" id="a1GAYt1IZT"></path><path d="M176 268C176 274.63 170.63 280 164 280C157.37 280 152 274.63 152 268C152 266.4 152 253.6 152 252C152 236.54 139.46 224 124 224C108.54 224 96 236.54 96 252C96 256.53 96 279.2 96 320L112 320C112 279.2 112 256.53 112 252C112 245.37 117.37 240 124 240C130.63 240 136 245.37 136 252C136 253.6 136 266.4 136 268C136 283.46 148.54 296 164 296C179.46 296 192 283.46 192 268C192 262.93 192 237.6 192 192L176 192C176 232.53 176 257.87 176 268Z" id="a1OGlYwc1G"></path><path d="M275.97 86.95C262.32 94.74 252.71 106.45 248.91 119.92C248.71 120.57 247.12 125.8 246.92 126.45C241.51 127.38 236.04 127.89 230.55 127.98C230.85 126.74 233.21 116.81 233.51 115.57C238.46 98.04 250.72 82.94 268.03 73.05C269.62 75.83 274.38 84.17 275.97 86.95Z" id="a1hVMQc1yk"></path><path d="M208 120L208 192C188.8 192 178.13 192 176 192C167.16 192 160 184.84 160 176C160 172 160 140 160 136C160 127.16 167.16 120 176 120C180.27 120 190.93 120 208 120Z" id="b7Bn2qKXOl"></path><path d="M160 176C160 184.84 167.16 192 176 192C178.13 192 188.8 192 208 192L208 167.99C188.8 167.99 178.13 167.99 176 167.99C167.16 167.99 160 160.82 160 151.99C160 156.79 160 173.6 160 176Z" id="a5nR7DEwJ"></path><path d="M384 120C392.84 120 400 127.16 400 136C400 140 400 172 400 176C400 184.84 392.84 192 384 192C381.87 192 371.2 192 352 192L352 120C371.2 120 381.87 120 384 120Z" id="a1A8aD4LlB"></path><path d="M352 168L352 192C371.2 192 381.87 192 384 192C392.84 192 400 184.84 400 176C400 173.6 400 154.4 400 152C400 160.84 392.84 168 384 168C379.73 168 369.07 168 352 168Z" id="c11bUDfeds"></path><path d="M352 120C352.01 84.67 323.38 56.01 288.05 56C288.03 56 288.02 56 288 56C286.4 56 273.6 56 272 56C255.02 55.99 238.74 62.73 226.74 74.74C226.18 75.3 225.63 75.87 225.09 76.46C214.08 88.28 207.97 103.85 208 120C204.8 120 179.2 120 176 120C175.99 66.99 218.96 24.01 271.97 24C271.98 24 271.99 24 272 24C273.6 24 286.4 24 288 24C341.01 24.01 383.99 66.99 384 120C377.6 120 355.2 120 352 120Z" id="e1pELlrlid"></path><path d="M237.47 66.1C233.59 68.58 229.99 71.48 226.74 74.74C226.18 75.3 225.63 75.87 225.09 76.46C222.83 74.19 204.77 56.04 202.51 53.77C206.18 49.91 210.17 46.37 214.43 43.17C219.04 47.76 232.86 61.51 237.47 66.1Z" id="bBU1BYMbM"></path><path d="M334.91 76.46C331.24 72.5 327.08 69.02 322.54 66.11C324.85 63.82 343.32 45.51 345.63 43.22C349.89 46.42 353.87 49.97 357.54 53.83C353.01 58.36 337.17 74.2 334.91 76.46Z" id="a23i744yiV"></path><path d="M352 128C336.63 122.88 323.93 111.86 316.69 97.37C316.22 96.43 312.47 88.94 312 88C309.12 91.6 306.01 95.01 302.68 98.2C299.94 84.14 293.05 71.21 282.91 61.09C281.12 59.29 279.23 57.59 277.25 56C278.33 56 286.93 56 288 56C323.35 56 352 84.65 352 120C352 121.6 352 127.2 352 128Z" id="a8p0T4bNzw"></path><path d="M446.38 363.58L399.58 415.58L384 400L384 496C278.57 496 219.99 496 208.28 496C272.85 465.41 346.64 407.77 384.15 299.55C388.46 301.97 392.36 305.05 395.71 308.68C402.47 316 419.36 334.3 446.38 363.58Z" id="g1pyexyLkE"></path><path d="M424 232L424 144C409.05 119.23 400.75 105.47 399.09 102.72C394.12 95.75 384.55 93.91 377.35 98.54C370.82 102.6 368.5 111 372.03 117.84C373.25 120.11 379.37 131.5 390.39 152C384.03 176.75 380.5 190.5 379.79 193.25C377.28 203.04 376 213.12 376 223.23C376 229.07 376.42 234.9 377.27 240.68C379.77 257.73 399.74 394.18 402.24 411.24C404.84 427.79 419.41 440 436.54 440C449.58 440.06 461.57 432.82 467.58 421.25C467.66 421.1 468.26 419.93 468.33 419.78C472.21 412.23 473.05 403.48 470.68 395.33C464.45 373.55 448.89 319.11 424 232Z" id="d4KRfI7eU"></path><path d="M176 192L192 192L192 208L176 208L176 192Z" id="b1gv2Nqjdo"></path></defs><g><g><g><use xlink:href="#bDzY1yaQ3" opacity="1" fill="#fec9a3" fill-opacity="1"></use><g><use xlink:href="#bDzY1yaQ3" opacity="1" fill-opacity="0" stroke="#000000" stroke-width="1" stroke-opacity="0"></use></g></g><g><use xlink:href="#dIfU3bjbD" opacity="1" fill="#feb784" fill-opacity="1"></use><g><use xlink:href="#dIfU3bjbD" opacity="1" fill-opacity="0" stroke="#000000" stroke-width="1" stroke-opacity="0"></use></g></g><g><use xlink:href="#dq1jvyAcc" opacity="1" fill="#f98500" fill-opacity="1"></use><g><use xlink:href="#dq1jvyAcc" opacity="1" fill-opacity="0" stroke="#000000" stroke-width="1" stroke-opacity="0"></use></g></g><g><use xlink:href="#dsRZcPmBE" opacity="1" fill="#fec9a3" fill-opacity="1"></use><g><use xlink:href="#dsRZcPmBE" opacity="1" fill-opacity="0" stroke="#000000" stroke-width="1" stroke-opacity="0"></use></g></g><g><use xlink:href="#hLGF8dY9B" opacity="1" fill="#fec093" fill-opacity="1"></use><g><use xlink:href="#hLGF8dY9B" opacity="1" fill-opacity="0" stroke="#000000" stroke-width="1" stroke-opacity="0"></use></g></g><g><use xlink:href="#bS4AUFWoW" opacity="1" fill="#fec093" fill-opacity="1"></use><g><use xlink:href="#bS4AUFWoW" opacity="1" fill-opacity="0" stroke="#000000" stroke-width="1" stroke-opacity="0"></use></g></g><g><use xlink:href="#b4ktYCsx9M" opacity="1" fill="#ffb531" fill-opacity="1"></use><g><use xlink:href="#b4ktYCsx9M" opacity="1" fill-opacity="0" stroke="#000000" stroke-width="1" stroke-opacity="0"></use></g></g><g><use xlink:href="#eIronzw8T" opacity="1" fill="#7a432a" fill-opacity="1"></use><g><use xlink:href="#eIronzw8T" opacity="1" fill-opacity="0" stroke="#000000" stroke-width="1" stroke-opacity="0"></use></g></g><g><use xlink:href="#c6WOZoSIb" opacity="1" fill="#7a432a" fill-opacity="1"></use><g><use xlink:href="#c6WOZoSIb" opacity="1" fill-opacity="0" stroke="#000000" stroke-width="1" stroke-opacity="0"></use></g></g><g><use xlink:href="#c2AmE8Fv4D" opacity="1" fill="#e0e0de" fill-opacity="1"></use><g><use xlink:href="#c2AmE8Fv4D" opacity="1" fill-opacity="0" stroke="#000000" stroke-width="1" stroke-opacity="0"></use></g></g><g><use xlink:href="#o2Lny2o8Z" opacity="1" fill="#d6d6d4" fill-opacity="1"></use><g><use xlink:href="#o2Lny2o8Z" opacity="1" fill-opacity="0" stroke="#000000" stroke-width="1" stroke-opacity="0"></use></g></g><g><use xlink:href="#a1h98R7uJu" opacity="1" fill="#c7c7c5" fill-opacity="1"></use><g><use xlink:href="#a1h98R7uJu" opacity="1" fill-opacity="0" stroke="#000000" stroke-width="1" stroke-opacity="0"></use></g></g><g><use xlink:href="#c1xva82r" opacity="1" fill="#4db7e5" fill-opacity="1"></use><g><use xlink:href="#c1xva82r" opacity="1" fill-opacity="0" stroke="#000000" stroke-width="1" stroke-opacity="0"></use></g></g><g><use xlink:href="#cNkD1653z" opacity="1" fill="#48add9" fill-opacity="1"></use><g><use xlink:href="#cNkD1653z" opacity="1" fill-opacity="0" stroke="#000000" stroke-width="1" stroke-opacity="0"></use></g></g><g><use xlink:href="#e4tfjeOsWL" opacity="1" fill="#fec9a3" fill-opacity="1"></use><g><use xlink:href="#e4tfjeOsWL" opacity="1" fill-opacity="0" stroke="#000000" stroke-width="1" stroke-opacity="0"></use></g></g><g><use xlink:href="#do49uiV9p" opacity="1" fill="#fec093" fill-opacity="1"></use><g><use xlink:href="#do49uiV9p" opacity="1" fill-opacity="0" stroke="#000000" stroke-width="1" stroke-opacity="0"></use></g></g><g><use xlink:href="#a1GAYt1IZT" opacity="1" fill="#f7a468" fill-opacity="1"></use><g><use xlink:href="#a1GAYt1IZT" opacity="1" fill-opacity="0" stroke="#000000" stroke-width="1" stroke-opacity="0"></use></g></g><g><use xlink:href="#a1OGlYwc1G" opacity="1" fill="#bfbfbd" fill-opacity="1"></use><g><use xlink:href="#a1OGlYwc1G" opacity="1" fill-opacity="0" stroke="#000000" stroke-width="1" stroke-opacity="0"></use></g></g><g><use xlink:href="#a1hVMQc1yk" opacity="1" fill="#f7a116" fill-opacity="1"></use><g><use xlink:href="#a1hVMQc1yk" opacity="1" fill-opacity="0" stroke="#000000" stroke-width="1" stroke-opacity="0"></use></g></g><g><use xlink:href="#b7Bn2qKXOl" opacity="1" fill="#e0e0de" fill-opacity="1"></use><g><use xlink:href="#b7Bn2qKXOl" opacity="1" fill-opacity="0" stroke="#000000" stroke-width="1" stroke-opacity="0"></use></g></g><g><use xlink:href="#a5nR7DEwJ" opacity="1" fill="#d6d6d4" fill-opacity="1"></use><g><use xlink:href="#a5nR7DEwJ" opacity="1" fill-opacity="0" stroke="#000000" stroke-width="1" stroke-opacity="0"></use></g></g><g><use xlink:href="#a1A8aD4LlB" opacity="1" fill="#e0e0de" fill-opacity="1"></use><g><use xlink:href="#a1A8aD4LlB" opacity="1" fill-opacity="0" stroke="#000000" stroke-width="1" stroke-opacity="0"></use></g></g><g><use xlink:href="#c11bUDfeds" opacity="1" fill="#d6d6d4" fill-opacity="1"></use><g><use xlink:href="#c11bUDfeds" opacity="1" fill-opacity="0" stroke="#000000" stroke-width="1" stroke-opacity="0"></use></g></g><g><use xlink:href="#e1pELlrlid" opacity="1" fill="#d6d6d4" fill-opacity="1"></use><g><use xlink:href="#e1pELlrlid" opacity="1" fill-opacity="0" stroke="#000000" stroke-width="1" stroke-opacity="0"></use></g></g><g><use xlink:href="#bBU1BYMbM" opacity="1" fill="#c7c7c5" fill-opacity="1"></use><g><use xlink:href="#bBU1BYMbM" opacity="1" fill-opacity="0" stroke="#000000" stroke-width="1" stroke-opacity="0"></use></g></g><g><use xlink:href="#a23i744yiV" opacity="1" fill="#c7c7c5" fill-opacity="1"></use><g><use xlink:href="#a23i744yiV" opacity="1" fill-opacity="0" stroke="#000000" stroke-width="1" stroke-opacity="0"></use></g></g><g><use xlink:href="#a8p0T4bNzw" opacity="1" fill="#ffa912" fill-opacity="1"></use><g><use xlink:href="#a8p0T4bNzw" opacity="1" fill-opacity="0" stroke="#000000" stroke-width="1" stroke-opacity="0"></use></g></g><g><use xlink:href="#g1pyexyLkE" opacity="1" fill="#f27900" fill-opacity="1"></use><g><use xlink:href="#g1pyexyLkE" opacity="1" fill-opacity="0" stroke="#000000" stroke-width="1" stroke-opacity="0"></use></g></g><g><use xlink:href="#d4KRfI7eU" opacity="1" fill="#fec9a3" fill-opacity="1"></use><g><use xlink:href="#d4KRfI7eU" opacity="1" fill-opacity="0" stroke="#000000" stroke-width="1" stroke-opacity="0"></use></g></g><g><use xlink:href="#b1gv2Nqjdo" opacity="1" fill="#b0b0ae" fill-opacity="1"></use><g><use xlink:href="#b1gv2Nqjdo" opacity="1" fill-opacity="0" stroke="#000000" stroke-width="1" stroke-opacity="0"></use></g></g></g></g></svg>