<?xml version="1.0" encoding="iso-8859-1"?>
<!-- Generator: Adobe Illustrator 21.1.0, SVG Export Plug-In . SVG Version: 6.00 Build 0)  -->
<svg version="1.1" id="Layer_1" xmlns="http://www.w3.org/2000/svg" xmlns:xlink="http://www.w3.org/1999/xlink" x="0px" y="0px"
	 viewBox="0 0 100.353 100.353" style="enable-background:new 0 0 100.353 100.353;" xml:space="preserve">
<g>
	<path d="M95.182,60.183c0-6.99-5.597-12.685-12.541-12.867c-5.095-12.923-17.616-22.128-32.282-22.324
		c1.183-1.464,2.328-3.318,2.375-5.07c0.095-3.763-2.262-5.137-3.983-6.14c-1.561-0.91-2.311-1.414-2.314-2.915
		c-0.006-2.961,2.831-3.235,3.391-3.259c0.828-0.025,1.479-0.717,1.454-1.545c-0.026-0.828-0.711-1.468-1.545-1.454
		c-2.183,0.067-6.31,1.462-6.299,6.266c0.009,3.287,2.202,4.565,3.803,5.499c1.719,1.002,2.542,1.568,2.495,3.472
		c-0.038,1.43-2.117,3.919-3.681,5.347c-13.207,1.435-24.237,10.204-28.937,22.138c-6.832,0.313-12.298,5.95-12.298,12.854
		c0,6.911,5.467,12.552,12.299,12.865c5.148,13.068,17.888,22.344,32.763,22.344c14.87,0,27.606-9.271,32.758-22.332
		C89.584,72.879,95.182,67.179,95.182,60.183z M7.819,60.183c0-4.886,3.569-8.944,8.236-9.734c-0.892,3.095-1.38,6.359-1.38,9.737
		c0,3.38,0.489,6.646,1.382,9.742C11.389,69.137,7.819,65.074,7.819,60.183z M49.881,92.392c-17.758,0-32.206-14.447-32.206-32.206
		s14.448-32.207,32.206-32.207c17.759,0,32.206,14.448,32.206,32.207S67.64,92.392,49.881,92.392z M83.694,69.967
		c0.901-3.108,1.393-6.387,1.393-9.781c0-3.393-0.492-6.671-1.392-9.777c4.789,0.681,8.486,4.799,8.486,9.774
		C92.182,65.164,88.483,69.286,83.694,69.967z"/>
	<path d="M40.655,56.378c0,0.828,0.671,1.5,1.5,1.5s1.5-0.672,1.5-1.5c0-3.843-3.127-6.97-6.972-6.97
		c-3.845,0-6.973,3.127-6.973,6.97c0,0.828,0.671,1.5,1.5,1.5s1.5-0.672,1.5-1.5c0-2.188,1.782-3.97,3.973-3.97
		C38.873,52.408,40.655,54.19,40.655,56.378z"/>
	<path d="M62.711,49.408c-3.845,0-6.973,3.127-6.973,6.97c0,0.828,0.672,1.5,1.5,1.5s1.5-0.672,1.5-1.5
		c0-2.188,1.782-3.97,3.973-3.97s3.972,1.781,3.972,3.97c0,0.828,0.672,1.5,1.5,1.5s1.5-0.672,1.5-1.5
		C69.683,52.535,66.555,49.408,62.711,49.408z"/>
	<path d="M63.899,66.259c-0.828,0-1.5,0.672-1.5,1.5c0,6.903-5.615,12.52-12.518,12.52c-6.902,0-12.517-5.616-12.517-12.52
		c0-0.828-0.671-1.5-1.5-1.5s-1.5,0.672-1.5,1.5c0,8.558,6.961,15.52,15.517,15.52c8.557,0,15.518-6.962,15.518-15.52
		C65.399,66.931,64.728,66.259,63.899,66.259z"/>
</g>
</svg>
