<svg id="Capa_1" enable-background="new 0 0 512 512" height="512" viewBox="0 0 512 512" width="512" xmlns="http://www.w3.org/2000/svg"><path d="m504.36 329.432c-3.524 0-6.691-2.455-7.456-6.04-12.55-58.822-61.492-113.682-61.985-114.23-2.819-3.13-2.569-7.956.56-10.777 3.13-2.82 7.953-2.572 10.775.556 2.123 2.354 52.158 58.38 65.576 121.265.879 4.122-1.749 8.176-5.871 9.056-.536.115-1.072.17-1.599.17z" fill="#e7b467"/><path d="m252.232 35.503c17.875-21.303 69.047 12.689 130.153 63.403 8.565 7.108 17.828 14.798 17.943 14.895 73.288 61.497 86.712 117.681 88.153 145.935.423 8.292-8.995 13.337-15.68 8.413-26.614-19.605-84.802-63.148-136.206-106.282-23.276-19.532-42.639-37.563-57.356-53.788-1.188-1.31-.924-3.368.557-4.332l13.599-8.855c.749-.488.561-1.632-.304-1.855l-27.71-7.142c-3.322-.856-6.186-2.967-8.003-5.877-11.73-18.783-14.068-33.883-5.146-44.515z" fill="#c8c1c9"/><path d="m472.795 268.144c-26.617-19.607-84.8-63.146-136.2-106.277-23.276-19.531-42.639-37.563-57.355-53.787-1.188-1.31-.924-3.368.557-4.332l13.599-8.855c.749-.488.561-1.632-.304-1.855l-27.71-7.142c-3.322-.856-6.187-2.967-8.004-5.877-11.608-18.587-14.011-33.565-5.413-44.179l116.27 89.911c39.764 30.749 74.546 67.451 103.116 108.809l17.108 24.764c.007.136.017.276.023.411.422 8.291-9.002 13.333-15.687 8.409z" fill="#c8c1c9"/><path d="m488.481 259.733c-.001-.029-.003-.058-.005-.087-1.324-25.567-12.465-73.892-68.674-128.318 17.829 29.021 27.1 54.881 31.58 76.379-24.322-30.509-52.219-58.041-83.147-81.958l-17.449-13.493c41.178 41.936 76.497 89.295 104.943 140.807l2.274 4.118c5.614 4.185 10.597 7.872 14.793 10.963 6.684 4.924 16.108-.118 15.685-8.411z" fill="#a698a6"/><path d="m357.84 257.237h-357.84v-99.896c0-7.395 5.995-13.39 13.39-13.39h331.06c7.395 0 13.39 5.995 13.39 13.39z" fill="#eedfda"/><path d="m397.541 370.523h-357.839l-39.702-113.286h357.84z" fill="#f2e7e4"/><path d="m348.178 482.961h-328.967c-9.387 0-15.962-9.271-12.857-18.13l33.348-95.156h357.84l-36.506 104.168c-1.915 5.461-7.071 9.118-12.858 9.118z" fill="#eedfda"/><path d="m344.216 143.951h-53.425c7.524 0 13.624 6.1 13.624 13.624v99.662h53.425v-99.662c0-7.525-6.1-13.624-13.624-13.624z" fill="#ded0cb"/><path d="m344.117 369.674-.149.424.149.424h-.297l-36.21 103.32c-1.914 5.462-7.07 9.118-12.857 9.118h53.425c5.787 0 10.943-3.656 12.857-9.118l36.506-104.168z" fill="#ded0cb"/><path d="m357.84 257.237h-53.425l39.404 112.437h.298l-.149.425.149.424h53.424z" fill="#eedfda"/><g fill="#c9beb9"><path d="m225.268 307.908h-158.195c-4.215 0-7.631-3.417-7.631-7.631s3.417-7.631 7.631-7.631h158.195c4.215 0 7.631 3.417 7.631 7.631s-3.416 7.631-7.631 7.631z"/><path d="m205.813 201.281h-158.195c-4.215 0-7.631-3.417-7.631-7.631s3.417-7.631 7.631-7.631h158.195c4.215 0 7.631 3.417 7.631 7.631s-3.417 7.631-7.631 7.631z"/><path d="m176.757 420.381h-100.988c-4.215 0-7.631-3.417-7.631-7.631 0-4.215 3.417-7.631 7.631-7.631h100.989c4.215 0 7.631 3.417 7.631 7.631-.001 4.214-3.417 7.631-7.632 7.631z"/><path d="m258.422 420.381h-46.933c-4.215 0-7.631-3.417-7.631-7.631 0-4.215 3.417-7.631 7.631-7.631h46.933c4.215 0 7.631 3.417 7.631 7.631.001 4.214-3.416 7.631-7.631 7.631z"/><path d="m282.103 226.998h-234.485c-4.215 0-7.631-3.417-7.631-7.631 0-4.215 3.417-7.631 7.631-7.631h234.485c4.215 0 7.631 3.417 7.631 7.631.001 4.214-3.416 7.631-7.631 7.631z"/><path d="m144.413 339.555h-66.486c-4.215 0-7.631-3.417-7.631-7.631s3.417-7.631 7.631-7.631h66.486c4.215 0 7.631 3.417 7.631 7.631s-3.416 7.631-7.631 7.631z"/><path d="m333.148 307.908h-75.536c-4.215 0-7.631-3.417-7.631-7.631s3.417-7.631 7.631-7.631h75.536c4.215 0 7.631 3.417 7.631 7.631s-3.416 7.631-7.631 7.631z"/><path d="m279.39 339.555h-102.633c-4.215 0-7.631-3.417-7.631-7.631s3.417-7.631 7.631-7.631h102.633c4.215 0 7.631 3.417 7.631 7.631s-3.416 7.631-7.631 7.631z"/></g></svg>