<svg height="512" viewBox="0 0 512 512" width="512" xmlns="http://www.w3.org/2000/svg"><g id="Flat"><path d="m112 200h-60a36 36 0 0 1 0-72h109.373a46.321 46.321 0 0 0 32.97-13.656l11.314 11.312a62.214 62.214 0 0 1 -44.284 18.344h-109.373a20 20 0 0 0 0 40h60z" fill="#f79d16"/><path d="m304 312h-40l24 120h40 16z" fill="#f98500"/><path d="m112 288v72l32 72h64v-16a16 16 0 0 0 -16-16h-16l-16-48 39.47-47.37.53-16.63z" fill="#f98500"/><path d="m392 416v16h-64l-24-120h-64l-40.53-7.37-47.47-8.63a157.03 157.03 0 0 1 -87.47 63.85l-.53.15 8 40h16a16 16 0 0 1 16 16v16h-64l-16-80 24-40v-57.4a82.751 82.751 0 0 1 19.91-53.83 80.516 80.516 0 0 1 8.75-8.77 82.65 82.65 0 0 1 62.28-19.71l37.06 3.71h184v224h16a16 16 0 0 1 16 16z" fill="#ffb531"/><path d="m392 416v16h-64l-24-120h-64l-40.53-7.37-47.47-8.63a157.03 157.03 0 0 1 -87.47 63.85l-.53.15 8 40h16a16 16 0 0 1 16 16v16h-64l-16-80 24-40v-50.02c60.67-19.01 121.95-46.44 175.09-85.98h136.91v224h16a16 16 0 0 1 16 16z" fill="#ffa912"/><path d="m240 80a0 0 0 0 1 0 0 48 48 0 0 1 -48 48 0 0 0 0 1 0 0 48 48 0 0 1 48-48z" fill="#6e3d26"/><path d="m151.993 304a8 8 0 0 1 -7.078-11.717c.67-1.278 1.363-2.557 2.069-3.861 5.131-9.472 10.438-19.267 13.078-40.415a8 8 0 1 1 15.876 1.982c-3.013 24.139-9.6 36.29-14.886 46.055-.671 1.238-1.329 2.453-1.967 3.669a8 8 0 0 1 -7.092 4.287z" fill="#f98500"/><path d="m432 208-32-56 8-32h32l-7.16-14.31a32 32 0 0 0 -28.62-17.69h-59.33a63.979 63.979 0 0 0 -43.24 16.82l-77.65 71.18a113.263 113.263 0 0 0 9.83 46.17c.07.15.13.3.2.44.54 1.21 1.11 2.41 1.7 3.6a113.188 113.188 0 0 0 32.75 39.81l5.11 3.91.56.43 85.85 65.64 52.17-81.98a15.985 15.985 0 0 1 10.87-7.19l30.61-5.11a15.97 15.97 0 0 0 12.89-11.9l5.46-21.82z" fill="#6e3d26"/><g fill="#4f2816"><path d="m240 224a8 8 0 0 1 -5.657-13.657l80.545-80.543a60.369 60.369 0 0 1 42.969-17.8h26.143a8 8 0 0 1 0 16h-26.143a44.47 44.47 0 0 0 -31.657 13.112l-80.545 80.545a7.976 7.976 0 0 1 -5.655 2.343z"/><path d="m279.994 272a8 8 0 0 1 -6.335-12.878l60.641-81.222a46.138 46.138 0 0 1 36.339-17.9h37.361a8 8 0 0 1 0 16h-37.361a30.038 30.038 0 0 0 -23.662 11.651l-60.636 81.227a7.986 7.986 0 0 1 -6.347 3.122z"/><path d="m323.1 305.678a8 8 0 0 1 -6.649-12.438l53-77.835a34.528 34.528 0 0 1 28.783-15.405h33.766a8 8 0 0 1 0 16h-33.766a18.561 18.561 0 0 0 -15.473 8.28l-53 77.835a7.991 7.991 0 0 1 -6.661 3.563z"/></g><path d="m379.693 129.227a16.444 16.444 0 0 0 10.753 19.588l9.554 3.185 32 56h40l16-40-32-24-16-24h-32l-7.154-2.385a16.444 16.444 0 0 0 -21.153 11.612z" fill="#ffb531"/></g></svg>