<svg height="511pt" viewBox="-68 0 511 511.99989" width="511pt" xmlns="http://www.w3.org/2000/svg"><path d="m359.730469 154.273438c-25.769531-47.578126-62.558594-79.765626-85.589844-86.730469-1.726563-.523438-3.214844 1.324219-2.351563 2.910156l60.1875 110.496094c3.003907 5.519531.96875 12.425781-4.546874 15.433593-5.519532 3.003907-12.429688.96875-15.433594-4.550781l-46.101563-84.632812c-.644531-1.183594-2.226562-1.398438-3.203125-.46875-12.539062 11.929687-8.742187 58.835937 16.238282 104.957031 19.738281 36.445312 46.316406 53.761719 73.480468 39.046875 28.6875-15.539063 31.175782-52.417969 7.320313-96.460937zm0 0" fill="#ff6930"/><path d="m113.425781 106.414062c-.957031-.84375-2.457031-.523437-3.066406.59375l-46.210937 84.824219c-3.003907 5.515625-9.914063 7.554688-15.429688 4.546875-5.519531-3.003906-7.554688-9.914062-4.550781-15.429687l60.128906-110.390625c.867187-1.589844-.636719-3.445313-2.367187-2.90625-23.054688 7.203125-59.585938 39.304687-85.214844 86.621094-23.855469 44.042968-21.367188 80.921874 7.320312 96.460937 27.164063 14.710937 53.742188-2.605469 73.480469-39.046875 25.203125-46.53125 28.847656-93.863281 15.910156-105.273438zm0 0" fill="#ff6930"/><path d="m359.730469 154.273438c-25.769531-47.578126-62.558594-79.765626-85.589844-86.730469-1.726563-.523438-3.214844 1.324219-2.351563 2.910156l2.949219 5.410156c21.699219 13.777344 48.359375 41.441407 68.375 78.394531 23.859375 44.042969 21.371094 80.925782-7.320312 96.464844-3.757813 2.035156-7.503907 3.4375-11.226563 4.28125 9.035156 2.082032 18.40625.84375 27.84375-4.269531 28.6875-15.539063 31.175782-52.417969 7.320313-96.460937zm0 0" fill="#ff5426"/><path d="m113.425781 106.414062c-.957031-.84375-2.457031-.523437-3.066406.59375l-7.199219 13.214844c3.609375 20.148438-3.070312 56.023438-22.257812 91.449219-12.894532 23.804687-28.710938 39.441406-45.695313 43.328125 23.179688 5.292969 45.289063-11.886719 62.3125-43.316406 25.199219-46.527344 28.84375-93.859375 15.90625-105.269532zm0 0" fill="#ff5426"/><path d="m245.695312 473.945312-42.160156-42.546874c-4.085937-4.117188-9.644531-6.4375-15.445312-6.4375-5.800782 0-11.359375 2.320312-15.441406 6.4375l-41.792969 42.175781c-8.296875 8.375-8.855469 21.957031-.78125 30.546875 8.476562 9.019531 22.664062 9.148437 31.300781.429687l4.394531-4.433593c.957031-.964844 2.5625-.726563 3.210938.472656 3.675781 6.789062 10.84375 11.410156 19.109375 11.410156s15.4375-4.621094 19.109375-11.410156c.648437-1.199219 2.257812-1.4375 3.214843-.472656l4.394532 4.433593c4.25 4.289063 9.84375 6.4375 15.441406 6.4375 5.53125 0 11.066406-2.097656 15.304688-6.296875 8.527343-8.453125 8.589843-22.21875.140624-30.746094zm0 0" fill="#ff6930"/><path d="m245.695312 473.945312-42.160156-42.546874c-4.085937-4.117188-9.644531-6.4375-15.445312-6.4375-3.828125 0-7.542969 1.03125-10.808594 2.902343l40.984375 41.363281c8.453125 8.527344 8.390625 22.292969-.136719 30.746094-1.375 1.359375-2.894531 2.476563-4.492187 3.394532l1.171875 1.183593c4.25 4.292969 9.847656 6.4375 15.445312 6.4375 5.527344 0 11.0625-2.09375 15.300782-6.296875 8.527343-8.453125 8.589843-22.21875.140624-30.746094zm0 0" fill="#ff5426"/><g fill="#f26935"><path d="m134.261719 352.746094h-51.011719c-9.019531 0-18.054688-2.128906-26.128906-6.15625l-17.539063-8.757813c-3.75-1.867187-5.269531-6.421875-3.398437-10.171875 1.871094-3.746094 6.425781-5.269531 10.171875-3.398437l17.539062 8.757812c5.980469 2.984375 12.675781 4.558594 19.355469 4.558594h51.011719c4.1875 0 7.582031 3.398437 7.582031 7.585937s-3.394531 7.582032-7.582031 7.582032zm0 0"/><path d="m95.015625 388.515625c-4.050781 0-8.113281-.617187-12.03125-1.855469l-33.203125-10.492187c-3.992188-1.261719-6.207031-5.523438-4.945312-9.519531 1.261718-3.992188 5.523437-6.207032 9.519531-4.945313l33.199219 10.492187c5.640624 1.78125 11.742187 1.488282 17.183593-.832031l42.085938-17.949219c3.851562-1.640624 8.308593.148438 9.949219 4 1.644531 3.855469-.148438 8.308594-4 9.953126l-42.085938 17.945312c-4.992188 2.128906-10.324219 3.203125-15.671875 3.203125zm0 0"/><path d="m98 424.578125c-3.855469 0-7.726562-.804687-11.351562-2.425781l-18.820313-8.417969c-3.824219-1.710937-5.539063-6.199219-3.828125-10.019531 1.710938-3.824219 6.195312-5.535156 10.019531-3.828125l18.824219 8.421875c3.789062 1.695312 8.171875 1.421875 11.722656-.734375l60.585938-36.796875c3.582031-2.175782 8.246094-1.035156 10.421875 2.542968 2.171875 3.582032 1.035156 8.246094-2.546875 10.417969l-60.589844 36.800781c-4.414062 2.679688-9.414062 4.039063-14.4375 4.039063zm0 0"/><path d="m293.195312 352.746094h-51.011718c-4.1875 0-7.582032-3.394532-7.582032-7.582032s3.394532-7.585937 7.582032-7.585937h51.011718c6.679688 0 13.375-1.578125 19.355469-4.558594l17.539063-8.757812c3.746094-1.871094 8.300781-.347657 10.171875 3.398437 1.871093 3.75.347656 8.304688-3.398438 10.171875l-17.539062 8.757813c-8.074219 4.027344-17.109375 6.15625-26.128907 6.15625zm0 0"/><path d="m281.429688 388.515625c-5.347657 0-10.679688-1.074219-15.667969-3.199219l-42.085938-17.949218c-3.855469-1.640626-5.648437-6.097657-4.003906-9.949219 1.644531-3.855469 6.097656-5.644531 9.953125-4.003907l42.085938 17.949219c5.4375 2.320313 11.542968 2.613281 17.183593.832031l33.199219-10.492187c3.992188-1.261719 8.253906.953125 9.515625 4.949219 1.261719 3.992187-.953125 8.253906-4.945313 9.515625l-33.199218 10.492187c-3.921875 1.238282-7.980469 1.855469-12.035156 1.855469zm0 0"/><path d="m278.445312 424.578125c-5.023437 0-10.023437-1.359375-14.4375-4.039063l-60.589843-36.800781c-3.578125-2.171875-4.71875-6.835937-2.546875-10.417969 2.175781-3.578124 6.839844-4.71875 10.421875-2.542968l60.589843 36.796875c3.546876 2.152343 7.929688 2.429687 11.722657.734375l18.820312-8.421875c3.824219-1.710938 8.308594.003906 10.019531 3.828125 1.710938 3.820312-.003906 8.308594-3.828124 10.019531l-18.820313 8.417969c-3.621094 1.621094-7.492187 2.425781-11.351563 2.425781zm0 0"/></g><path d="m175.410156 169.28125c-3.507812 0-6.65625-2.445312-7.410156-6.011719l-19.117188-90.257812c-3.394531-16.03125-15.296874-28.765625-31.0625-33.234375-12.457031-3.535156-23.578124-11.199219-31.316406-21.582032l-4.527344-6.078124c-2.503906-3.359376-1.8125-8.109376 1.546876-10.613282 3.359374-2.503906 8.113281-1.808594 10.613281 1.550782l4.53125 6.078124c5.753906 7.722657 14.027343 13.425782 23.292969 16.050782 21.191406 6.011718 37.195312 23.132812 41.757812 44.683594l19.117188 90.257812c.867187 4.097656-1.75 8.121094-5.847657 8.988281-.527343.117188-1.054687.167969-1.578125.167969zm0 0" fill="#f1572d"/><path d="m201.035156 169.28125c-.519531 0-1.050781-.050781-1.578125-.164062-4.097656-.867188-6.71875-4.894532-5.847656-8.992188l19.117187-90.253906c4.5625-21.554688 20.5625-38.675782 41.757813-44.683594 9.265625-2.628906 17.539063-8.332031 23.292969-16.054688l4.53125-6.078124c2.5-3.359376 7.25-4.054688 10.609375-1.550782s4.054687 7.253906 1.550781 10.613282l-4.527344 6.078124c-7.738281 10.386719-18.859375 18.050782-31.320312 21.582032-15.761719 4.472656-27.664063 17.207031-31.058594 33.238281l-19.117188 90.253906c-.753906 3.566407-3.90625 6.011719-7.410156 6.011719zm0 0" fill="#f1572d"/><path d="m62.742188 285.34375-1.601563 1.605469c-8.234375 8.234375-21.585937 8.234375-29.820313 0l-8.125-8.128907c-8.234374-8.234374-8.234374-21.585937 0-29.820312l1.601563-1.601562c8.234375-8.234376 21.585937-8.234376 29.820313 0l8.125 8.125c8.238281 8.234374 8.238281 21.585937 0 29.820312zm0 0" fill="#ff6930"/><path d="m139.683594 292.871094v2.269531c0 11.644531-9.441406 21.085937-21.085938 21.085937h-43.8125c-11.648437 0-21.085937-9.441406-21.085937-21.085937v-2.269531c0-11.644532 9.441406-21.085938 21.085937-21.085938h43.8125c11.644532 0 21.085938 9.441406 21.085938 21.085938zm0 0" fill="#ff6930"/><path d="m62.578125 255.359375-7.792969-7.792969c-1.65625-1.65625-3.523437-2.96875-5.511718-3.96875 4.015624 7.992188 2.703124 17.972656-3.964844 24.644532l-1.269532 1.269531c-6.671874 6.667969-16.652343 7.980469-24.644531 3.96875.996094 1.984375 2.308594 3.851562 3.96875 5.507812l7.789063 7.792969c8.328125 8.328125 21.828125 8.328125 30.15625 0l1.269531-1.269531c8.324219-8.328125 8.324219-21.828125 0-30.152344zm0 0" fill="#ff5426"/><path d="m118.363281 271.785156h-.949219c.253907 1.3125.398438 2.664063.398438 4.050782v1.796874c0 11.773438-9.546875 21.320313-21.324219 21.320313h-42.394531c1.894531 9.835937 10.535156 17.269531 20.925781 17.269531h43.34375c11.773438 0 21.320313-9.542968 21.320313-21.320312v-1.796875c0-11.773438-9.546875-21.320313-21.320313-21.320313zm0 0" fill="#ff5426"/><path d="m236.761719 292.871094v2.269531c0 11.644531 9.441406 21.085937 21.085937 21.085937h43.8125c11.648438 0 21.085938-9.441406 21.085938-21.085937v-2.269531c0-11.644532-9.4375-21.085938-21.085938-21.085938h-43.8125c-11.644531 0-21.085937 9.441406-21.085937 21.085938zm0 0" fill="#ff6930"/><path d="m301.425781 271.785156h-.945312c.253906 1.3125.394531 2.664063.394531 4.050782v1.796874c0 11.773438-9.546875 21.320313-21.320312 21.320313h-42.398438c1.894531 9.835937 10.539062 17.269531 20.925781 17.269531h43.34375c11.777344 0 21.320313-9.542968 21.320313-21.320312v-1.796875c0-11.773438-9.542969-21.320313-21.320313-21.320313zm0 0" fill="#ff5426"/><path d="m215.226562 412.144531h-54.253906c-11.757812 0-21.289062-9.53125-21.289062-21.289062v-.628907c0-11.757812 9.535156-21.289062 21.289062-21.289062h54.253906c11.757813 0 21.289063 9.53125 21.289063 21.289062v.628907c0 11.757812-9.53125 21.289062-21.289063 21.289062zm0 0" fill="#ff6930"/><path d="m215.226562 450.019531h-54.253906c-11.757812 0-21.289062-9.53125-21.289062-21.289062v-.628907c0-11.757812 9.535156-21.289062 21.289062-21.289062h54.253906c11.757813 0 21.289063 9.53125 21.289063 21.289062v.628907c0 11.757812-9.53125 21.289062-21.289063 21.289062zm0 0" fill="#ff6930"/><path d="m214.910156 368.9375h-8.070312c1.425781 2.882812 2.25 6.117188 2.25 9.550781 0 11.933594-9.675782 21.605469-21.605469 21.605469h-45.550781c3.527344 7.132812 10.859375 12.050781 19.355468 12.050781h53.621094c11.929688 0 21.605469-9.671875 21.605469-21.605469 0-11.929687-9.671875-21.601562-21.605469-21.601562zm0 0" fill="#ff5426"/><path d="m214.910156 406.8125h-8.070312c1.425781 2.882812 2.25 6.117188 2.25 9.550781 0 11.933594-9.675782 21.605469-21.605469 21.605469h-45.550781c3.527344 7.132812 10.859375 12.050781 19.355468 12.050781h53.621094c11.929688 0 21.605469-9.671875 21.605469-21.605469 0-11.929687-9.671875-21.601562-21.605469-21.601562zm0 0" fill="#ff5426"/><path d="m263.027344 295.042969c0 69.46875-33.492188 87.992187-74.804688 87.992187s-74.804687-18.523437-74.804687-87.992187c0-69.464844 33.492187-161.5625 74.804687-161.5625s74.804688 92.097656 74.804688 161.5625zm0 0" fill="#ff6930"/><path d="m190.957031 133.632812c21.9375 32.527344 36.640625 88.472657 36.640625 134.492188 0 69.464844-33.492187 87.992188-74.804687 87.992188-9.511719 0-18.601563-.984376-26.96875-3.34375 13.390625 22.882812 36.335937 30.261718 62.398437 30.261718 41.3125 0 74.804688-18.523437 74.804688-87.992187 0-67.921875-32.023438-157.472657-72.070313-161.410157zm0 0" fill="#ff5426"/><path d="m175.453125 189.257812c0 6.9375-5.625 12.5625-12.5625 12.5625-6.941406 0-12.566406-5.625-12.566406-12.5625 0-6.941406 5.625-12.566406 12.566406-12.566406 6.9375 0 12.5625 5.625 12.5625 12.566406zm0 0" fill="#433f43"/><path d="m226.121094 189.257812c0 6.9375-5.625 12.5625-12.5625 12.5625-6.941406 0-12.566406-5.625-12.566406-12.5625 0-6.941406 5.625-12.566406 12.566406-12.566406 6.9375 0 12.5625 5.625 12.5625 12.566406zm0 0" fill="#433f43"/><path d="m313.703125 285.34375 1.601563 1.605469c8.234374 8.234375 21.585937 8.234375 29.820312 0l8.125-8.128907c8.234375-8.234374 8.234375-21.585937 0-29.820312l-1.601562-1.601562c-8.234376-8.234376-21.585938-8.234376-29.820313 0l-8.125 8.125c-8.234375 8.234374-8.234375 21.585937 0 29.820312zm0 0" fill="#ff6930"/><path d="m353.085938 248.835938-1.269532-1.269532c-3.402344-3.402344-7.664062-5.386718-12.085937-6.011718 4.09375 8.011718 2.800781 18.070312-3.90625 24.777343l-7.792969 7.792969c-4.925781 4.925781-11.660156 6.914062-18.066406 6.011719.988281 1.933593 2.285156 3.753906 3.90625 5.375l1.269531 1.269531c8.324219 8.328125 21.824219 8.328125 30.152344 0l7.792969-7.792969c8.324218-8.328125 8.324218-21.828125 0-30.152343zm0 0" fill="#ff5426"/><path d="m162.890625 331.246094c0 4.527344-3.671875 8.195312-8.195313 8.195312-4.527343 0-8.195312-3.667968-8.195312-8.195312 0-4.523438 3.667969-8.191406 8.195312-8.191406 4.523438 0 8.195313 3.667968 8.195313 8.191406zm0 0" fill="#ff5426"/><path d="m188.222656 331.246094c0 4.527344-3.667968 8.195312-8.195312 8.195312s-8.195313-3.667968-8.195313-8.195312c0-4.523438 3.667969-8.191406 8.195313-8.191406s8.195312 3.667968 8.195312 8.191406zm0 0" fill="#ff5426"/><path d="m205.613281 312.898438c0 4.527343-3.667969 8.195312-8.195312 8.195312-4.523438 0-8.195313-3.667969-8.195313-8.195312 0-4.523438 3.671875-8.195313 8.195313-8.195313 4.527343 0 8.195312 3.671875 8.195312 8.195313zm0 0" fill="#ff5426"/></svg>