<svg height="512" viewBox="0 0 512 512" width="512" xmlns="http://www.w3.org/2000/svg"><g id="Flat"><path d="m112 200a80 80 0 0 0 -80 80v120l-8 16a80 80 0 0 0 80-80v-72a24 24 0 0 1 24-24h72v-40z" fill="#e67007"/><path d="m488 208-8 24h-48l-56 72h-32v48l24 64h-32l-24-64-8-48h-88a44.825 44.825 0 0 1 -19.97 37.31l-28.03 18.69v56h-32v-80l24-32-6.13-12.27-2.71-5.42a67.6 67.6 0 0 1 -7.16-30.31 56 56 0 0 1 56-56h152l32-32 5.27-10.53a38.806 38.806 0 0 1 34.73-21.47v32a29.921 29.921 0 0 1 24.88 13.31l7.12 10.69z" fill="#f98500"/><path d="m488 208-8 24h-48l-56 72h-32v48l24 64h-32l-24-64-8-48h-88a44.825 44.825 0 0 1 -19.97 37.31l-28.03 18.69v56h-32v-80l24-32-6.13-12.27c90.03-19.28 192.04-56.3 270.13-126.97v3.24a29.921 29.921 0 0 1 24.88 13.31l7.12 10.69z" fill="#f77c00"/><g fill="#e67007"><rect height="40" rx="8" width="16" x="208" y="264"/><rect height="40.792" rx="8" transform="matrix(.981 -.196 .196 .981 -49.871 64.35)" width="16" x="292" y="263.604"/><path d="m216 360 24 56h-32l-24-64v-2.67l32-45.33h32a64 64 0 0 1 -25.6 51.2z"/><path d="m400 416h-32s-24-56-24-64v-48h32v48z"/></g><path d="m72 352-20-16-20 16v48l-8 16a80 80 0 0 0 79.461-70.831l-11.461-9.169z" fill="#d6d6d4"/><path d="m424 184h16v16h-16z" fill="#7a432a"/><path d="m312 352 24 64h32l-24-64z" fill="#92563a"/><path d="m136 360h32v56h-32z" fill="#92563a"/><path d="m240 416h-32l-21-56h29z" fill="#6e3d26"/><path d="m400 416h-32s-24-56-24-64h32z" fill="#6e3d26"/></g></svg>