<svg id="Capa_1" enable-background="new 0 0 512 512" height="512" viewBox="0 0 512 512" width="512" xmlns="http://www.w3.org/2000/svg"><path d="m500.789 429.768c0-7.243 3.665-13.626 9.238-17.408 1.235-.838 1.95-2.265 1.963-3.758.016-1.738.012-3.481-.01-5.228-.169-13.293-1.418-26.312-3.664-38.974-.271-1.528-1.305-2.841-2.755-3.395-7.914-3.018-13.542-10.659-13.542-19.632 0-4.988 1.739-9.569 4.641-13.174.974-1.21 1.205-2.868.667-4.325-5.203-14.095-11.704-27.545-19.356-40.213-.863.108-1.736.182-2.628.182-11.616 0-21.033-9.417-21.033-21.033 0-2.435.425-4.767 1.193-6.939.53-1.499.18-3.177-.858-4.381-43.425-50.354-107.741-82.081-179.681-82.081-71.517 0-135.623 31.683-179.084 81.766-1.072 1.236-1.385 2.962-.825 4.5.81 2.227 1.259 4.627 1.259 7.134 0 11.616-9.417 21.033-21.033 21.033-.164 0-.328-.003-.49-.007-1.65-.049-3.207.783-4.046 2.205-7.458 12.624-13.778 26-18.822 39.986 4.103 3.838 6.682 9.285 6.682 15.347 0 9.423-6.201 17.388-14.743 20.063-1.082.339-1.898 1.238-2.1 2.353-2.515 13.838-3.833 28.093-3.833 42.656 0 .892.015 1.781.033 2.669.021 1.047.583 2.008 1.486 2.539 6.211 3.654 10.388 10.389 10.388 18.116 0 6.309-2.791 11.954-7.192 15.806-.794.695-1.169 1.757-.984 2.796.946 5.317 2.052 10.578 3.351 15.764 3.966 15.835 23.747 21.215 35.397 9.779 42.828-42.042 113.994-69.553 194.559-69.553 80.456 0 151.54 27.438 194.386 69.384 11.784 11.536 31.649 6.128 35.635-9.874 1.256-5.041 2.348-10.147 3.274-15.31.259-1.442-.266-2.892-1.302-3.927-3.811-3.805-6.171-9.057-6.171-14.866z" fill="#f0ecef"/><path d="m500.789 429.768c0-7.243 3.665-13.626 9.238-17.408 1.235-.838 1.95-2.265 1.963-3.758.016-1.738.012-3.481-.01-5.228-.169-13.293-1.418-26.312-3.664-38.974-.271-1.528-1.305-2.841-2.755-3.394-7.914-3.018-13.542-10.659-13.542-19.633 0-4.988 1.739-9.569 4.641-13.174.974-1.21 1.205-2.868.667-4.325-4.876-13.207-10.89-25.848-17.924-37.81-.835-1.42-2.386-2.224-4.034-2.221-.009 0-.018 0-.027 0-11.616 0-21.033-9.417-21.033-21.033 0-2.435.425-4.767 1.193-6.938.53-1.499.18-3.178-.858-4.382-43.425-50.354-107.741-82.081-179.68-82.08-13.118 0-25.982 1.083-38.521 3.133 111.702 18.188 196.84 113.876 198.324 230.832.18 14.154-.889 28.025-3.092 41.514 14.163 8.551 26.828 18.236 37.676 28.857 11.784 11.536 31.667 6.07 35.65-9.933 1.25-5.022 2.336-10.109 3.259-15.252.259-1.442-.266-2.892-1.302-3.927-3.809-3.805-6.169-9.057-6.169-14.866z" fill="#e3dfe2"/><path d="m433.387 108.792c-.04-.002-.08-.004-.119-.006-7.449-.335-14.305-4.154-18.198-10.514-30.223-49.382-76.257-96.958-140.106-70.011-63.849-26.946-109.883 20.63-140.106 70.012-3.892 6.36-10.749 10.179-18.198 10.514-.04.002-.08.004-.119.006-24.629 1.174-43.514 22.551-41.392 47.344 1.954 22.839 21.692 40.461 44.606 39.852 10.995-.292 20.892-4.61 28.365-11.478 9.847.164 20.858-1.063 32.174-3.498 1.835-62.227 17.958-138.153 94.671-148.734 76.713 10.581 92.835 86.508 94.671 148.734 11.316 2.435 22.327 3.662 32.174 3.498 7.473 6.868 17.37 11.186 28.365 11.478 22.914.609 42.652-17.014 44.606-39.852 2.12-24.794-16.764-46.171-41.394-47.345z" fill="#845151"/><path d="m433.387 108.792c-.04-.002-.08-.004-.119-.006-7.449-.335-14.305-4.154-18.198-10.514-27.28-44.573-67.443-87.666-121.96-75.822 36.728 8.34 65.221 41.644 86.139 75.822 3.892 6.36 10.749 10.179 18.198 10.514.04.002.08.004.119.006 24.629 1.174 43.514 22.551 41.392 47.344-1.38 16.134-11.641 29.654-25.621 35.994 5.14 2.327 10.822 3.699 16.836 3.858 22.914.609 42.652-17.014 44.606-39.852 2.122-24.793-16.762-46.17-41.392-47.344z" fill="#5a3535"/><path d="m103.317 481.896c0 6.632-7.394 10.523-12.9 6.825-8.694-5.838-21.699-11.736-38.759-11.736-20.601 0-35.289 8.601-43.613 15.311-3.237 2.609-8.045.313-8.045-3.845v-117.323c0-2.379.924-4.66 2.589-6.359 6.073-6.197 22.744-20.242 49.07-20.242 33.777 0 51.659 23.121 51.659 23.121v114.248z" fill="#ded0cb"/><path d="m206.635 488.451c0 4.158-4.808 6.455-8.045 3.845-8.324-6.71-23.013-15.311-43.613-15.311-17.06 0-30.064 5.898-38.759 11.736-5.506 3.697-12.9-.193-12.9-6.825v-114.248s17.882-23.121 51.659-23.121c26.326 0 42.996 14.045 49.07 20.242 1.665 1.699 2.589 3.98 2.589 6.359v117.323z" fill="#ded0cb"/><path d="m187.082 352.322v96.816c0 5.741-5.568 9.848-11.042 8.117-6.133-1.94-13.162-3.207-21.064-3.207-33.777 0-51.659 23.121-51.659 23.121v4.728c0 6.632 7.394 10.523 12.9 6.825 8.694-5.838 21.699-11.736 38.759-11.736 20.601 0 35.289 8.601 43.613 15.311 3.237 2.609 8.045.313 8.045-3.845v-117.32c0-2.401-.952-4.694-2.635-6.406-3.052-3.102-8.732-8.137-16.917-12.404z" fill="#c9beb9"/><path d="m82.602 351.725v97.054c0 5.694-5.477 9.778-10.934 8.15-5.882-1.755-12.558-2.881-20.01-2.881-33.776-.001-51.658 23.12-51.658 23.12v11.283c0 4.158 4.808 6.455 8.045 3.845 8.324-6.71 23.013-15.311 43.613-15.311 17.06 0 30.064 5.898 38.759 11.736 5.506 3.697 12.9-.193 12.9-6.825v-114.248s-7.073-9.137-20.715-15.923z" fill="#c9beb9"/><path d="m412.609 170.673c-6.749-2.595-14.394-1.079-21.495 3.506-1.361.879-3.161-.063-3.182-1.683-.882-67.566-18.071-153.947-112.309-153.899-92.656.047-111.374 82.419-113.456 149.318-.044 1.411-1.464 2.389-2.775 1.866-5.267-2.101-10.629-2.442-15.543-.611-14.559 5.424-23.662 29.287-15.401 51.461 7.126 19.127 31.234 29.792 47.07 28.883.871-.05 1.663.484 1.983 1.295 21.39 54.062 61.265 104.922 96.549 104.904 35.86-.018 77.005-51.967 98.693-106.648.179.076.349.161.534.232 14.502 5.575 45.707-4.917 54.198-27.004 8.491-22.089-.363-46.045-14.866-51.62z" fill="#ffcbbe"/><path d="m412.609 170.673c-6.749-2.595-14.394-1.079-21.495 3.506-1.367.883-3.162-.072-3.183-1.7-.861-65.697-17.154-149.16-104.69-153.676 49.64 27.926 58.388 96.08 58.112 149.219-.329 63.4-53.581 159.291-102.211 173.336 11.596 9.031 23.492 14.36 34.907 14.354 35.86-.018 77.005-51.967 98.693-106.648.179.076.349.161.534.232 14.502 5.575 45.707-4.917 54.198-27.004 8.492-22.088-.362-46.044-14.865-51.619z" fill="#fdad9d"/><ellipse cx="226.609" cy="188.916" fill="#845151" rx="14.907" ry="14.907" transform="matrix(.005 -1 1 .005 36.52 414.541)"/><ellipse cx="331.462" cy="189.46" fill="#845151" rx="14.907" ry="14.907" transform="matrix(.005 -1 1 .005 140.286 519.934)"/><g fill="#ad6b6b"><path d="m256.243 164.244c-1.825 0-3.658-.642-5.131-1.949-5.225-4.633-14.614-7.512-24.503-7.512s-19.278 2.878-24.503 7.512c-3.198 2.835-8.088 2.541-10.923-.655-2.836-3.197-2.542-8.088.655-10.923 8.176-7.251 20.85-11.409 34.771-11.409s26.595 4.158 34.771 11.409c3.197 2.835 3.491 7.726.655 10.923-1.529 1.725-3.656 2.604-5.792 2.604z"/><path d="m361.096 164.244c-1.825 0-3.658-.642-5.131-1.949-5.225-4.633-14.614-7.512-24.503-7.512s-19.279 2.878-24.504 7.512c-3.198 2.835-8.089 2.541-10.923-.655-2.836-3.197-2.542-8.088.655-10.923 8.176-7.251 20.85-11.409 34.771-11.409s26.595 4.158 34.771 11.409c3.197 2.835 3.491 7.726.655 10.923-1.527 1.725-3.654 2.604-5.791 2.604z"/><path d="m289.697 296.471c0 8.137-6.596 28.413-14.733 28.413s-14.733-20.276-14.733-28.413 6.596-8.419 14.733-8.419 14.733.282 14.733 8.419z"/></g><path d="m274.964 288.052c-1.955 0-3.817.019-5.525.157 5.397.435 9.208 2.08 9.208 8.262s-3.81 19.365-9.208 25.345c1.707 1.89 3.57 3.068 5.525 3.068 8.137 0 14.733-20.276 14.733-28.413s-6.596-8.419-14.733-8.419z" fill="#995e5e"/><path d="m282.736 242.373c-4.749-3.019-10.707-3.019-15.455 0-2.859 1.818-6.35 3.32-10.364 4.472v4.532c0 9.773 7.922 17.695 17.695 17.695s17.695-7.922 17.695-17.695v-4.754c-3.683-1.122-6.898-2.551-9.571-4.25z" fill="#fa6931"/><path d="m282.736 242.373c-4.416-2.808-9.866-2.97-14.429-.555.343.182.694.343 1.026.555 2.672 1.699 5.888 3.128 9.571 4.25v4.754c0 7.4-4.546 13.731-10.994 16.373 2.068.847 4.328 1.322 6.701 1.322 9.773 0 17.695-7.922 17.695-17.695v-4.754c-3.682-1.122-6.897-2.551-9.57-4.25z" fill="#fc5327"/><path d="m333.024 237.462-44.139-12.897c-1.364-.399-2.744-.55-4.089-.483-6.547.326-13.118.326-19.665 0-1.345-.067-2.724.084-4.089.483l-44.139 12.897c-4.736 1.384-5.532 7.714-1.315 10.278 6.82 4.147 17.158 6.792 28.735 6.792 10.525 0 18.754-2.186 24.278-5.698 3.91-2.486 8.814-2.486 12.724 0 5.524 3.513 13.754 5.698 24.278 5.698 11.578 0 21.915-2.645 28.735-6.792 4.218-2.564 3.422-8.894-1.314-10.278z" fill="#ad6b6b"/><path d="m333.024 237.462-16.422-4.798c.271 2.996-1.003 6.144-4.032 7.986-7.418 4.511-17.641 7.818-29.331 9.273 5.444 2.865 12.984 4.61 22.365 4.61 11.578 0 21.915-2.645 28.735-6.792 4.217-2.565 3.421-8.895-1.315-10.279z" fill="#995e5e"/><path d="m62.167 397.491c-1.162-.396-2.407-.611-3.702-.613-3.088-.005-5.894 1.205-7.967 3.178-.829.789-2.144.773-2.978-.011-2.092-1.966-4.919-3.16-8.025-3.125-7.2.079-12.442 6.653-11.238 13.752.418 2.467 1.692 4.258 4.469 7.023 2.906 2.894 12.044 11.631 15.245 14.687.627.599 1.612.596 2.236-.006 3.299-3.18 12.922-12.466 15.258-14.812 2.832-2.845 4.51-5.412 4.516-9.135.007-5.074-3.264-9.388-7.814-10.938" fill="#ed500a"/></svg>