<svg height="512" viewBox="0 0 512 512" width="512" xmlns="http://www.w3.org/2000/svg"><g id="Flat"><path d="m177.706 24a25.705 25.705 0 0 1 25.447 22.07l36.847 257.93h-88v-254.294a25.706 25.706 0 0 1 25.706-25.706z" fill="#ab925b"/><path d="m372.133 44.664a25.706 25.706 0 0 0 -25.207-20.664h-1.22a25.706 25.706 0 0 0 -25.706 25.706v198.294l40 56h64z" fill="#ab925b"/><path d="m488 56h-456v32l33.708 1.438-41.708 54.562 24 8 57.587-61.187 382.413 21.187z" fill="#7a432a"/><circle cx="32" cy="72" fill="#9c5c3e" r="16"/><path d="m488 49.71v285.01a153.283 153.283 0 0 1 -250.35 118.63l-23.13-18.92-4.84-3.96a63.963 63.963 0 0 0 -40.53-14.47h-73.15v-112h120l51.87-259.34a25.7 25.7 0 0 1 25.2-20.66h1.22a25.709 25.709 0 0 1 25.71 25.71v198.29l-40 56h120l36.77-257.37c1.84-12.93 12.89-22.84 25.94-22.63a25.713 25.713 0 0 1 25.29 25.71z" fill="#ba9f63"/><path d="m488 303.34v31.38a153.283 153.283 0 0 1 -250.35 118.63l-23.13-18.92c100.65-14.11 199.83-52.68 273.48-131.09z" fill="#b3995f"/><path d="m285 297.753a8 8 0 0 0 -11.247 1.247l-32 40a8 8 0 1 0 12.494 10l32-40a8 8 0 0 0 -1.247-11.247z" fill="#ab925b"/><g fill="#a68e56"><path d="m280 392h-32a8 8 0 0 1 0-16h32a8 8 0 0 1 0 16z"/><path d="m352 400h-32a8 8 0 0 1 0-16h32a8 8 0 0 1 0 16z"/><path d="m312 432h-32a8 8 0 0 1 0-16h32a8 8 0 0 1 0 16z"/><path d="m368 360h-32a8 8 0 0 1 0-16h32a8 8 0 0 1 0 16z"/><path d="m440 384h-32a8 8 0 0 1 0-16h32a8 8 0 0 1 0 16z"/><path d="m408 432h-32a8 8 0 0 1 0-16h32a8 8 0 0 1 0 16z"/><path d="m287.994 131a8 8 0 0 1 -6.412-12.777l32-43a8 8 0 1 1 12.836 9.552l-32 43a7.989 7.989 0 0 1 -6.424 3.225z"/><path d="m287.994 187a8 8 0 0 1 -6.412-12.777l32-43a8 8 0 1 1 12.836 9.552l-32 43a7.989 7.989 0 0 1 -6.424 3.225z"/><path d="m287.994 243a8 8 0 0 1 -6.412-12.777l32-43a8 8 0 1 1 12.836 9.552l-32 43a7.989 7.989 0 0 1 -6.424 3.225z"/><path d="m455.994 131a8 8 0 0 1 -6.412-12.777l32-43a8 8 0 0 1 12.836 9.552l-32 43a7.989 7.989 0 0 1 -6.424 3.225z"/><path d="m455.994 187a8 8 0 0 1 -6.412-12.777l32-43a8 8 0 1 1 12.836 9.552l-32 43a7.989 7.989 0 0 1 -6.424 3.225z"/><path d="m455.994 243a8 8 0 0 1 -6.412-12.777l32-43a8 8 0 1 1 12.836 9.552l-32 43a7.989 7.989 0 0 1 -6.424 3.225z"/></g><path d="m168 360a55.993 55.993 0 0 1 -56 56h-32a56.016 56.016 0 0 1 -55.19-46.45 56.63 56.63 0 0 1 -.81-9.55 55.993 55.993 0 0 1 56-56h32a55.958 55.958 0 0 1 56 56z" fill="#e0e0de"/><path d="m96 352a16 16 0 0 1 16 16v16a0 0 0 0 1 0 0h-32a0 0 0 0 1 0 0v-16a16 16 0 0 1 16-16z" fill="#4d5e78"/><path d="m112 392h-32a34.047 34.047 0 0 1 -24.5-10.472 8 8 0 0 1 11.566-11.056 17.975 17.975 0 0 0 12.934 5.528h32a17.975 17.975 0 0 0 12.932-5.528 8 8 0 0 1 11.568 11.056 34.047 34.047 0 0 1 -24.5 10.472z" fill="#4d5e78"/><path d="m80 336a8 8 0 0 1 -8 8 40.242 40.242 0 0 0 -24 8l-23.19 17.55a56.63 56.63 0 0 1 -.81-9.55 56.055 56.055 0 0 1 1.02-10.68l13.35-10.1a56.4 56.4 0 0 1 33.63-11.22 8 8 0 0 1 8 8z" fill="#4d5e78"/><path d="m168 360a56.1 56.1 0 0 1 -.79 9.41l-23.21-17.41a40.242 40.242 0 0 0 -24-8 8 8 0 0 1 0-16 56.361 56.361 0 0 1 33.6 11.2l13.36 10.02a56.294 56.294 0 0 1 1.04 10.78z" fill="#4d5e78"/><rect fill="#c7ae71" height="80" rx="28" width="56" x="152" y="24"/><rect fill="#c7ae71" height="80" rx="28" width="56" x="320" y="24"/></g></svg>