<?xml version="1.0" encoding="iso-8859-1"?>
<!-- Generator: Adobe Illustrator 19.0.0, SVG Export Plug-In . SVG Version: 6.00 Build 0)  -->
<svg version="1.1" id="Layer_1" xmlns="http://www.w3.org/2000/svg" xmlns:xlink="http://www.w3.org/1999/xlink" x="0px" y="0px"
	 viewBox="0 0 512 512" style="enable-background:new 0 0 512 512;" xml:space="preserve">
<path style="fill:#4A5058;" d="M169.005,392.416l-16.381,34.21c-16.301,34.044-57.114,48.429-91.16,32.128l0,0
	c-7.749-3.711-11.023-13-7.313-20.75l39.178-81.823c10.006-20.897,35.058-29.727,55.955-19.721l0,0
	C170.182,346.468,179.011,371.519,169.005,392.416z"/>
<path style="opacity:0.15;enable-background:new    ;" d="M149.285,336.463L149.285,336.463
	c-20.897-10.006-45.949-1.177-55.955,19.72l-5.655,11.811c14.873,19.737,38.354,30.63,64.79,30.63c4.808,0,9.511-0.381,14.091-1.09
	l2.45-5.117C179.011,371.519,170.182,346.468,149.285,336.463z"/>
<g>
	<path style="fill:#4A5058;" d="M235.576,325.019h19.579c37.746,0,68.345-30.599,68.345-68.345l0,0
		c0-8.592-6.965-15.556-15.556-15.556h-72.368c-23.169,0-41.951,18.782-41.951,41.951l0,0
		C193.625,306.237,212.407,325.019,235.576,325.019z"/>
	<path style="fill:#4A5058;" d="M248.259,300.679c0-52.996-16.29-95.958-81.416-95.958s-81.416,42.962-81.416,95.958
		c0,52.996,36.451,84.477,81.416,84.477S248.259,353.675,248.259,300.679z"/>
</g>
<path style="fill:#FFFFFF;" d="M166.843,204.721v67.604c0,30.576,24.787,55.362,55.362,55.362l0,0
	c8.584,0,16.713-1.955,23.963-5.442c1.352-6.935,2.09-14.147,2.09-21.566C248.259,247.683,231.969,204.721,166.843,204.721z"/>
<path style="opacity:0.1;enable-background:new    ;" d="M166.843,204.721c-39.461,0-60.989,15.776-71.831,39.997
	c11.724,8.492,26.129,13.513,41.713,13.513h106.712C234.845,226.528,213.238,204.721,166.843,204.721z"/>
<path style="fill:#F4B759;" d="M490.88,253.323L490.88,253.323c-13.588-7.992-29.067-12.206-44.831-12.206H244.507V188.16h231.777
	L512,213.404v27.839C512,252.081,500.223,258.817,490.88,253.323z"/>
<path style="opacity:0.1;enable-background:new    ;" d="M490.88,253.323L490.88,253.323c-13.588-7.992-29.067-12.206-44.831-12.206
	H244.507V188.16h231.777L512,213.404v27.839C512,252.081,500.223,258.817,490.88,253.323z"/>
<path style="fill:#4A5058;" d="M244.507,241.117H136.725c-39.326,0-71.207-31.88-71.207-71.207l0,0
	c0-68.142,55.239-123.381,123.381-123.381h55.607L244.507,241.117L244.507,241.117z"/>
<path style="fill:#F4B759;" d="M503.926,233.773l-15.581-12.985c-18.138-15.115-41.001-23.392-64.612-23.392H244.507V46.529H348.82
	c90.122,0,163.18,73.058,163.18,163.18v20.282C512,234.165,507.132,236.445,503.926,233.773z"/>
<path style="fill:#FFFFFF;" d="M164.248,241.117h80.26V94.15h-61.113c-42.319,0-76.624,34.306-76.624,76.624v12.864
	C106.769,215.383,132.504,241.117,164.248,241.117z"/>
<path style="fill:#4A5058;" d="M182.808,165.047c-4.523,0-8.19-3.667-8.19-8.19c0-3.084-2.508-5.593-5.592-5.593
	c-3.084,0-5.593,2.509-5.593,5.593c0,4.523-3.667,8.19-8.19,8.19s-8.19-3.667-8.19-8.19c0-12.116,9.856-21.973,21.973-21.973
	c12.115,0,21.971,9.856,21.971,21.973C190.998,161.38,187.331,165.047,182.808,165.047z"/>
<path style="opacity:0.15;enable-background:new    ;" d="M90.723,256.531c-3.822,13.216-5.295,28.228-5.295,44.148
	c0,14.859,2.868,28.025,7.983,39.282c20.575-2.688,36.465-20.275,36.465-41.582l0,0C129.876,276.151,112.586,257.972,90.723,256.531
	z"/>
<path style="fill:#4A5058;" d="M87.925,325.019H68.346C30.599,325.019,0,294.42,0,256.674l0,0c0-8.592,6.965-15.556,15.556-15.556
	h72.369c23.169,0,41.951,18.782,41.951,41.951l0,0C129.876,306.237,111.093,325.019,87.925,325.019z"/>
<g>
	<path style="fill:#F4B759;" d="M158.816,405.418c-7.539,0-13.65-6.112-13.65-13.65v-21.317c0-7.538,6.111-13.65,13.65-13.65
		c7.539,0,13.65,6.112,13.65,13.65v21.317C172.465,399.306,166.353,405.418,158.816,405.418z"/>
	<path style="fill:#F4B759;" d="M211.23,405.418c-7.539,0-13.65-6.112-13.65-13.65v-21.317c0-7.538,6.111-13.65,13.65-13.65
		s13.65,6.112,13.65,13.65v21.317C224.88,399.306,218.768,405.418,211.23,405.418z"/>
</g>
<g>
</g>
<g>
</g>
<g>
</g>
<g>
</g>
<g>
</g>
<g>
</g>
<g>
</g>
<g>
</g>
<g>
</g>
<g>
</g>
<g>
</g>
<g>
</g>
<g>
</g>
<g>
</g>
<g>
</g>
</svg>
